<svg width="123" height="100" viewBox="0 0 123 100" fill="none" xmlns="http://www.w3.org/2000/svg">
<g clip-path="url(#clip0_695_6843)">
<path d="M58.9948 2.59556C53.8274 7.47562 47.7681 11.56 35.2822 18.6414C24.4489 24.768 19.9373 27.9772 15.0321 32.9103C8.81542 39.196 5.32673 45.9061 3.49058 55.1093C2.31019 60.9442 1.78558 67.336 1.26096 82.5331C1.05112 88.2619 1.07735 88.9515 1.47081 89.4024C1.86427 89.8798 2.31019 89.8798 12.3828 89.7206C27.4917 89.4554 33.7871 89.9859 42.8105 92.1872C47.4795 93.3542 53.6438 95.7677 59.5194 98.7381C60.49 99.2421 61.6441 99.6399 62.0638 99.6399C62.4835 99.6399 64.3459 98.9238 66.182 98.022C75.5989 93.5398 79.6909 92.2137 89.3176 90.5693C92.3603 90.0654 93.8555 89.9859 107.076 89.9063C117.725 89.8267 121.581 89.7206 121.844 89.4819C122.185 89.2167 122.211 88.1823 122.054 82.7984C121.66 69.166 121.031 61.0237 119.903 55.401C117.725 44.4209 113.161 36.7295 104.584 29.4624C100.518 26.0411 96.3999 23.3358 87.5339 18.3497C75.835 11.7722 69.9068 7.71432 63.9 2.25077C62.7983 1.26945 61.7753 0.447267 61.6179 0.447267C61.4343 0.447267 60.2801 1.42858 58.9948 2.59556ZM63.6114 4.71732C64.582 5.61907 66.8116 7.42258 68.569 8.7752C73.4742 12.4883 77.3826 14.9283 89.8946 22.0362C100.702 28.1894 107.574 33.9181 111.876 40.363C116.204 46.8875 118.276 54.1015 119.273 66.2221C119.588 70.1208 120.296 87.4663 120.165 87.758C120.112 87.8376 115.312 87.8641 109.515 87.7845C97.8426 87.6254 93.2522 87.8376 87.0617 88.8984C78.8777 90.3041 72.4512 92.5054 64.0049 96.802L62.1687 97.7568L58.2866 95.9003C49.4993 91.6833 44.0171 89.9593 34.6789 88.4741C31.3214 87.9436 29.8525 87.8641 17.0256 87.7845L3.04465 87.6519L3.20204 84.3101C3.28073 82.4536 3.46435 78.1305 3.5955 74.7091C4.06765 63.9942 4.6185 58.8224 5.9825 53.2262C9.18265 40.1774 16.5273 31.7168 32.8428 22.4076C43.3088 16.4136 45.0401 15.4057 48.1353 13.4166C51.9388 10.9765 57.5259 6.75952 59.8604 4.58471C60.7261 3.78905 61.5392 3.126 61.6441 3.09948C61.7753 3.09948 62.6671 3.84209 63.6114 4.71732Z" fill="#5E6278"/>
<path d="M55.8477 19.7288C55.9264 21.5058 55.9264 21.5323 55.2706 21.5323C54.6935 21.5323 54.5886 21.3732 54.3788 20.2593C54.2214 19.3045 54.064 19.0127 53.723 19.0658C53.382 19.1453 53.3295 19.4371 53.382 20.6306C53.4607 21.718 53.382 22.1954 53.0672 22.4341C52.5689 22.8584 52.5164 23.5215 52.9623 23.5215C53.1197 23.5215 53.4607 23.3358 53.6968 23.1237C54.0115 22.8319 55.0608 22.7258 58.5495 22.6993C61.0151 22.6993 63.612 22.7523 64.3465 22.8584L65.7105 23.0441L66.1564 21.6915C66.3925 20.9488 66.5236 20.2327 66.4187 20.0736C66.1039 19.5432 65.7105 19.8349 65.317 20.8693C64.7924 22.1954 64.3202 22.2749 64.5563 21.0019C64.7137 20.2062 64.6612 20.0736 64.2153 20.0736C63.9005 20.0736 63.612 20.3654 63.4284 20.8958C63.0874 21.8771 62.4578 21.7975 62.5628 20.7897C62.6415 20.2327 62.5365 20.0736 62.1431 20.0736C61.7758 20.0736 61.5922 20.3123 61.4873 20.8693L61.3299 21.6649H59.2315H57.133L57.0018 20.7897C56.9232 20.3388 56.8182 19.5166 56.792 19.0127C56.7395 18.3497 56.5822 18.0579 56.2412 18.0049C55.7952 17.8988 55.7428 18.0845 55.8477 19.7288Z" fill="#5E6278"/>
<path d="M71.7422 21.3201C71.6636 22.4871 71.6111 22.5932 71.0078 22.5666C70.6406 22.5666 69.9848 22.4606 69.5126 22.3545C68.7257 22.1688 68.6732 22.2219 68.1224 23.4419C67.5191 24.821 67.5191 25.7758 68.1224 25.7758C68.4634 25.7758 69.1192 24.7945 69.5389 23.654C69.5913 23.4949 69.9848 23.5745 70.4832 23.8397C71.5062 24.4232 72.8177 24.4497 73.0013 23.9193C73.2112 23.3888 73.5259 23.4154 74.4178 24.0519C74.8899 24.3967 75.2047 24.9271 75.3096 25.5106C75.4408 26.2267 75.6769 26.545 76.2015 26.7306C76.8572 26.9958 76.9884 26.9163 78.0376 25.7758C78.6409 25.0862 79.1393 24.3701 79.1393 24.158C79.1393 23.4949 78.4311 23.7601 77.5917 24.7149C76.6736 25.7758 76.2539 25.8819 76.2539 25.0597C76.2539 24.7415 75.8867 24.0784 75.4145 23.601C74.7325 22.8849 74.6539 22.6727 74.9162 22.3545C75.2047 21.9832 75.3621 22.0362 76.149 22.6462C76.831 23.1767 77.1458 23.2562 77.3556 23.044C77.5917 22.8053 77.4868 22.5401 76.9097 21.9301C75.8605 20.8427 75.2834 20.7101 74.3915 21.3731C73.3423 22.1688 72.8964 22.0892 72.7915 21.0814C72.739 20.5244 72.5554 20.1797 72.2669 20.1266C71.8996 20.047 71.8209 20.2857 71.7422 21.3201Z" fill="#5E6278"/>
<path d="M49.0013 21.161C48.5553 21.3466 48.4242 21.5588 48.5291 21.9832C48.634 22.328 48.5291 22.6728 48.2668 22.8584C48.0045 23.0441 47.8996 23.3623 48.0045 23.6275C48.1619 24.0254 48.2668 24.0254 49.1324 23.6541C49.6833 23.4419 50.1554 23.3093 50.2341 23.3889C50.3128 23.4684 50.3128 23.5745 50.2603 23.601C50.2079 23.6541 49.4734 24.211 48.6603 24.8476C47.1651 25.935 47.1127 25.9615 46.4831 25.5371C45.8011 25.0863 45.3027 25.1658 45.3027 25.7228C45.3027 25.9084 45.7224 26.3328 46.2208 26.6776L47.1127 27.2876L49.3685 25.6167C51.808 23.7867 52.2276 22.9645 50.9161 22.4606C50.5489 22.3014 50.339 22.0627 50.4177 21.9301C50.6013 21.6384 50.103 20.8427 49.7882 20.8958C49.7095 20.8958 49.3423 21.0284 49.0013 21.161Z" fill="#5E6278"/>
<path d="M61.9058 26.7572C61.3549 27.4468 49.2363 48.1606 49.2363 48.3993C49.2363 48.6645 61.591 70.8104 62.0894 71.3939C62.273 71.6061 62.5615 71.7917 62.7452 71.7917C63.1648 71.7917 75.8605 48.8236 75.8081 48.1871C75.7556 47.4445 63.0075 26.5716 62.5878 26.492C62.3517 26.439 62.0632 26.5716 61.9058 26.7572Z" fill="#5E6278"/>
<path d="M15.4777 47.8423C15.2941 47.8953 15.1367 48.134 15.1367 48.3462C15.1367 48.691 32.4228 70.837 33.1835 71.447C33.4982 71.7122 36.6197 71.7917 46.771 71.7917C54.0107 71.7917 60.1224 71.7122 60.3585 71.6326C60.5946 71.553 60.7782 71.2878 60.7782 71.0757C60.7782 70.6248 46.9808 48.1606 46.5087 47.8688C46.1939 47.6566 16.0023 47.6301 15.4777 47.8423Z" fill="#5E6278"/>
<path d="M78.5631 48.1075C78.1696 48.6114 65.3166 69.3252 64.7395 70.4126C64.005 71.7917 63.9001 71.7917 78.327 71.7917C88.557 71.7917 91.7309 71.7122 92.0719 71.447C92.308 71.2878 96.4525 66.116 101.305 59.9894C107.26 52.4306 110.092 48.691 110.04 48.3197C109.961 47.7893 109.725 47.7893 94.4589 47.7097C79.9533 47.6566 78.9303 47.6832 78.5631 48.1075Z" fill="#5E6278"/>
<path d="M36.9082 79.3504V84.7875H41.1051H45.302V84.1244V83.4614H41.892H38.482V78.6874V73.9134H37.6951H36.9082V79.3504Z" fill="#5E6278"/>
<path d="M47.4004 77.8122C47.4004 81.0214 47.4791 81.8966 47.8725 82.6392C48.6595 84.204 49.4988 84.6549 52.0432 84.761C54.745 84.8671 55.9516 84.5488 56.9746 83.4614L57.7615 82.6392L57.8402 78.2631L57.9189 73.9135H57.132H56.3451L56.2664 78.0244C56.1877 82.0823 56.1877 82.1353 55.4795 82.8249C54.1417 84.1775 50.5218 83.9388 49.5513 82.4536C49.1841 81.8966 49.0792 80.9683 49.0005 77.8387L48.9218 73.9135H48.1611H47.4004V77.8122Z" fill="#5E6278"/>
<path d="M61.5664 79.3239V84.7875H62.3533H63.1403V80.2257C63.1403 77.7326 63.2189 75.77 63.3501 75.8761C63.455 75.9821 64.3731 77.9978 65.3699 80.3583C67.1273 84.4692 67.2322 84.6549 67.9929 84.7344C68.7799 84.814 68.7799 84.7875 70.7472 80.2257L72.7145 75.6374L72.7932 80.1992L72.8456 84.7875H73.6325H74.4195V79.3504V73.9134H73.2915H72.1636L70.8783 76.8839C70.1701 78.5283 69.252 80.65 68.8586 81.6048L68.0979 83.3288L66.1568 78.6874L64.2157 74.046L62.9042 73.9665L61.5664 73.8869V79.3239Z" fill="#5E6278"/>
<path d="M79.7436 74.4174C78.5107 75.0009 78.091 75.6109 78.091 76.9105C78.091 78.4223 79.2452 79.1118 83.0749 79.8545C85.9078 80.4379 86.5373 80.8358 86.4324 81.9497C86.3012 83.2228 85.0684 83.8062 82.7339 83.6471C80.819 83.5145 79.7698 82.9841 79.2714 81.9232C78.9304 81.1275 77.5664 81.101 77.5664 81.8701C77.5664 82.6658 79.0616 84.2041 80.137 84.5223C81.3961 84.8671 84.9372 84.8671 85.8816 84.4958C88.4784 83.5145 88.8719 80.7032 86.5635 79.3771C86.4062 79.2975 84.9372 78.8997 83.3109 78.5549C80.1108 77.8388 79.6649 77.6001 79.6649 76.6718C79.6649 74.6826 84.8586 74.3909 85.8291 76.3005C86.2225 77.0962 87.298 77.4144 87.6652 76.8575C87.9275 76.4066 87.1931 75.2396 86.2488 74.6561C84.911 73.8074 81.2912 73.6748 79.7436 74.4174Z" fill="#5E6278"/>
</g>
<defs>
<clipPath id="clip0_695_6843">
<rect width="122.119" height="100" fill="white" transform="translate(0.693359)"/>
</clipPath>
</defs>
</svg>
