<svg width="281" height="100" viewBox="0 0 281 100" fill="none" xmlns="http://www.w3.org/2000/svg">
<g clip-path="url(#clip0_695_6616)">
<path d="M0.0449219 -0.178101H100.062V99.8373H0.0449219V-0.178101Z" fill="#5E6278"/>
<path d="M25.4169 73.8151H35.1847V80.6205H18.8359V18.9923H25.4169V73.8151ZM81.3801 25.7194H71.328V45.4778H80.7223V52.6682H71.328V73.8074H81.3801V80.6205H64.747V19H81.3801V25.7194ZM40.9189 80.5982V73.8559L42.9806 73.8482C45.6879 73.8328 50.2679 71.9478 50.9441 67.6852C51.5973 63.5533 51.1132 60.5617 45.8055 51.494L45.7348 51.3418C42.0385 45.3149 38.5336 40.0502 39.8423 31.7901C41.2639 22.8131 48.2853 18.8579 54.6719 18.9762L56.7351 18.9739V25.7163L54.6719 25.724C51.9661 25.7386 47.2578 27.5944 46.5808 31.8577C45.9277 35.9882 46.3795 38.6601 51.5504 47.611L51.6887 47.84C55.5317 54.0252 58.9913 59.4943 57.6826 67.7536C56.2602 76.7329 49.3695 80.7166 42.9814 80.599H40.9189" fill="white"/>
<path d="M118.732 23.9704H125.091V25.0201H122.507V32.2773H121.316V25.0201H118.732V23.9704ZM127.495 27.443H131.465V23.9681H132.655V32.2773H131.465V28.4935H127.495V32.2773H126.302V23.9681H127.495V27.443ZM139.517 25.0201H136.054V27.4423H139.21V28.4927H136.054V31.2246H139.517V32.2766H134.864V23.9689H139.517V25.0201ZM148.29 30.6037H153.867V32.2773H146.374V18.9447H148.29V30.6037ZM155.025 26.743C155.025 30.1026 156.971 32.4633 160.356 32.4633C163.746 32.4633 165.688 30.1019 165.688 26.743C165.688 23.4648 163.726 21.0234 160.356 21.0234C156.985 21.0226 155.025 23.4648 155.025 26.743ZM156.698 26.743C156.698 24.4945 157.904 22.402 160.356 22.4181C162.805 22.402 164.016 24.4945 164.016 26.743C164.016 28.9453 162.916 31.0686 160.356 31.0686C157.794 31.0686 156.698 28.9453 156.698 26.743ZM174.953 30.1103H174.985V21.2078H176.568V32.2773H174.537L169.499 23.1612H169.468V32.2773H167.884V21.2078H170.041L174.953 30.1103ZM179.237 32.2781H182.495C186.14 32.2781 188.383 30.3585 188.383 26.6469C188.383 23.2373 185.774 21.2086 182.495 21.2086H179.237V32.2781ZM180.816 22.6033H182.669C184.949 22.6033 186.707 24.1264 186.707 26.7122C186.707 29.567 185.205 30.8841 182.482 30.8841H180.816V22.6033ZM190.156 26.743C190.156 30.1026 192.099 32.4633 195.488 32.4633C198.874 32.4633 200.819 30.1019 200.819 26.743C200.819 23.4648 198.86 21.0234 195.488 21.0234C192.114 21.0226 190.156 23.4648 190.156 26.743ZM191.827 26.743C191.827 24.4945 193.039 22.402 195.487 22.4181C197.934 22.402 199.145 24.4945 199.145 26.743C199.145 28.9453 198.048 31.0686 195.487 31.0686C192.923 31.0686 191.827 28.9453 191.827 26.743ZM210.082 30.1103H210.116V21.2078H211.696V32.2773H209.668L204.628 23.1612H204.598V32.2773H203.015V21.2078H205.171L210.082 30.1103ZM225.154 20.9558C224.182 20.5738 223.647 20.4017 222.649 20.4017C221.576 20.4017 220.312 20.7829 220.312 22.1768C220.312 24.735 226.047 24.1425 226.047 28.5311C226.047 31.3721 223.858 32.4956 221.175 32.4956C220.234 32.4956 219.323 32.2274 218.447 31.9423L218.636 30.1718C219.287 30.4392 220.423 30.8196 221.405 30.8196C222.493 30.8196 224.03 30.2094 224.03 28.6449C224.03 25.6687 218.294 26.4886 218.294 22.3482C218.294 19.9844 220.158 18.728 222.569 18.728C223.455 18.728 224.504 18.8794 225.416 19.1945L225.154 20.9558ZM235.943 23.0352C235.25 22.6268 234.46 22.4134 233.656 22.4174C231.101 22.4174 229.401 24.2563 229.401 26.7422C229.401 29.3411 231.274 31.0678 233.577 31.0678C234.37 31.0678 235.435 30.8619 235.99 30.5283L236.089 32.0676C235.246 32.4157 234.215 32.4633 233.562 32.4633C230.055 32.4633 227.73 30.2117 227.73 26.6961C227.73 23.288 230.198 21.0226 233.577 21.0226C234.435 21.0226 235.278 21.1486 236.071 21.4868L235.943 23.0352ZM239.61 25.8285H244.914V21.2078H246.494V32.2773H244.914V27.224H239.61V32.2773H238.032V21.2078H239.61V25.8285ZM248.791 26.743C248.791 30.1026 250.738 32.4633 254.123 32.4633C257.513 32.4633 259.455 30.1019 259.455 26.743C259.455 23.4648 257.492 21.0234 254.123 21.0234C250.754 21.0226 248.791 23.4648 248.791 26.743ZM250.467 26.743C250.467 24.4945 251.674 22.402 254.125 22.4181C256.575 22.402 257.784 24.4945 257.784 26.743C257.784 28.9453 256.687 31.0686 254.125 31.0686C251.564 31.0686 250.467 28.9453 250.467 26.743ZM261.096 26.743C261.096 30.1026 263.04 32.4633 266.427 32.4633C269.814 32.4633 271.759 30.1019 271.759 26.743C271.759 23.4648 269.797 21.0234 266.427 21.0234C263.055 21.0226 261.096 23.4648 261.096 26.743ZM262.77 26.743C262.77 24.4945 263.979 22.402 266.429 22.4181C268.878 22.402 270.089 24.4945 270.089 26.743C270.089 28.9453 268.99 31.0686 266.429 31.0686C263.865 31.0686 262.77 28.9453 262.77 26.743ZM275.539 30.8826H280.172V32.2773H273.954V21.2078H275.539V30.8826ZM118.785 80.5891H120.702V75.2575H122.572C124.975 75.2575 127.277 74.214 127.277 71.2501C127.277 68.2109 125.014 67.2603 122.285 67.2603H118.785V80.5891ZM120.702 68.9301H122.323C123.507 68.9301 125.263 69.5441 125.263 71.2278C125.263 72.9883 123.774 73.5816 122.591 73.5816H120.702V68.9301ZM128.695 75.0547C128.695 78.412 130.64 80.7743 134.028 80.7743C137.416 80.7743 139.36 78.412 139.36 75.0547C139.36 71.7726 137.4 69.3351 134.028 69.3351C130.656 69.3351 128.695 71.7742 128.695 75.0547ZM130.369 75.0547C130.369 72.8047 131.579 70.7145 134.028 70.7275C136.477 70.7122 137.687 72.8047 137.687 75.0547C137.687 77.2548 136.59 79.3788 134.028 79.3788C131.466 79.3788 130.369 77.2571 130.369 75.0547ZM143.218 79.1943H147.851V80.5875H141.635V69.5195H143.218V79.1943ZM149.636 69.5218H151.219V80.5883H149.636V69.5218ZM152.836 69.5195H161.308V70.9158H157.863V80.5891H156.281V70.9158H152.836V69.5195ZM162.941 69.5218H164.524V80.5883H162.941V69.5218ZM175.009 71.3469C174.316 70.938 173.525 70.724 172.721 70.7275C170.166 70.7275 168.467 72.5687 168.467 75.0547C168.467 77.6528 170.34 79.3788 172.645 79.3788C173.439 79.3788 174.502 79.1705 175.057 78.8431L175.154 80.3793C174.313 80.7258 173.28 80.775 172.631 80.775C169.124 80.775 166.795 78.525 166.795 75.007C166.795 71.5982 169.263 69.3351 172.645 69.3351C173.502 69.3351 174.343 69.4588 175.137 69.7992L175.009 71.3469ZM175.875 80.5891H177.54L178.664 77.7973H184.089L185.214 80.5891H186.945L182.266 69.5211H180.601L175.875 80.5891ZM183.58 76.4955H179.171L181.388 71.0057L183.58 76.4955ZM190.157 79.1943H194.792V80.5875H188.576V69.5195H190.157V79.1943ZM207.351 69.2652C206.381 68.8863 205.849 68.7119 204.85 68.7119C203.775 68.7119 202.507 69.093 202.507 70.487C202.507 73.0452 208.244 72.4542 208.244 76.8429C208.244 79.6846 206.056 80.8065 203.37 80.8065C202.43 80.8065 201.52 80.5391 200.646 80.254L200.834 78.4827C201.479 78.7517 202.622 79.1298 203.602 79.1298C204.696 79.1298 206.23 78.5212 206.23 76.9566C206.23 73.9804 200.493 74.798 200.493 70.6591C200.493 68.2985 202.354 67.0382 204.771 67.0382C205.652 67.0382 206.707 67.1911 207.616 67.5039L207.351 69.2652ZM218.233 71.3469C217.541 70.939 216.751 70.7251 215.948 70.7275C213.391 70.7275 211.694 72.5687 211.694 75.0547C211.694 77.6528 213.567 79.3788 215.871 79.3788C216.665 79.3788 217.727 79.1705 218.282 78.8431L218.377 80.3793C217.534 80.7258 216.504 80.775 215.855 80.775C212.347 80.775 210.022 78.525 210.022 75.007C210.022 71.5982 212.49 69.3351 215.871 69.3351C216.726 69.3351 217.57 69.4588 218.36 69.7992L218.233 71.3469ZM220.339 69.5218H221.919V80.5883H220.339V69.5218ZM231.047 70.9158H226.428V74.1387H230.633V75.535H226.428V79.1943H231.047V80.5875H224.846V69.5195H231.047V70.9158ZM240.68 78.4205H240.712V69.5195H242.293V80.5875H240.266L235.226 71.4722H235.19V80.5875H233.61V69.5195H235.768L240.68 78.4205ZM252.761 71.3469C252.068 70.9392 251.279 70.7253 250.476 70.7275C247.918 70.7275 246.221 72.5687 246.221 75.0547C246.221 77.6528 248.092 79.3788 250.394 79.3788C251.189 79.3788 252.253 79.1705 252.807 78.8431L252.902 80.3793C252.062 80.7258 251.03 80.775 250.38 80.775C246.872 80.775 244.547 78.525 244.547 75.007C244.547 71.5982 247.015 69.3351 250.394 69.3351C251.25 69.3351 252.093 69.4588 252.889 69.7992L252.761 71.3469ZM261.129 70.9158H256.508V74.1387H260.717V75.535H256.508V79.1943H261.129V80.5875H254.929V69.5195H261.129V70.9158ZM118.758 52.2363C118.758 54.7507 120.216 56.5289 122.76 56.5289C125.3 56.5289 126.759 54.7514 126.759 52.2363C126.759 49.7788 125.287 47.9437 122.76 47.9437C120.23 47.9437 118.758 49.7788 118.758 52.2363ZM120.015 52.2363C120.015 50.5534 120.921 48.9827 122.76 48.9965C124.596 48.9827 125.502 50.5526 125.502 52.2363C125.502 53.8892 124.678 55.4784 122.76 55.4784C120.839 55.4784 120.015 53.8892 120.015 52.2363ZM133.82 49.1341H130.594V51.5555H133.677V52.6059H130.594V56.3898H129.404V48.0844H133.82V49.1341ZM150.44 44.7332H144.883V48.6407H149.944V50.3144H144.883V54.7192H150.44V56.3921H142.965V43.0595H150.44V44.7332ZM162.479 47.1499C161.786 46.7423 160.996 46.5288 160.192 46.5321C157.636 46.5321 155.94 48.371 155.94 50.8569C155.94 53.4551 157.812 55.1825 160.115 55.1825C160.907 55.1825 161.972 54.9743 162.526 54.6423L162.621 56.1815C161.779 56.5289 160.747 56.5781 160.097 56.5781C156.592 56.5781 154.266 54.328 154.266 50.8116C154.266 47.4028 156.733 45.1389 160.115 45.1389C160.972 45.1389 161.813 45.2642 162.606 45.6038L162.479 47.1499ZM165.33 50.8569C165.33 54.2151 167.272 56.5758 170.662 56.5758C174.049 56.5758 175.994 54.2151 175.994 50.8569C175.994 47.5772 174.032 45.1374 170.662 45.1374C167.292 45.1374 165.33 47.578 165.33 50.8569ZM167.003 50.8569C167.003 48.6069 168.212 46.516 170.664 46.5321C173.113 46.516 174.319 48.6069 174.319 50.8569C174.319 53.0593 173.222 55.1825 170.664 55.1825C168.1 55.1825 167.003 53.0593 167.003 50.8569ZM186.669 54.2235H186.7V45.3233H188.284V56.3898H186.255L181.217 47.276H181.185V56.3898H179.601V45.3233H181.756L186.669 54.2235ZM191.87 50.8569C191.87 54.2151 193.812 56.5758 197.202 56.5758C200.592 56.5758 202.533 54.2151 202.533 50.8569C202.533 47.5772 200.572 45.1374 197.202 45.1374C193.832 45.1374 191.87 47.578 191.87 50.8569ZM193.546 50.8569C193.546 48.6069 194.754 46.516 197.204 46.5321C199.654 46.516 200.862 48.6069 200.862 50.8569C200.862 53.0593 199.765 55.1825 197.204 55.1825C194.641 55.1825 193.546 53.0593 193.546 50.8569ZM212.264 54.5301L215.685 45.3233H218.299V56.3898H216.715V46.811H216.684L213.014 56.3898H211.458L207.79 46.811H207.756V56.3898H206.173V45.3233H208.788L212.264 54.5301ZM222.527 45.3233H224.111V56.3921H222.527V45.3233ZM235.929 47.1499C235.236 46.7419 234.446 46.5284 233.642 46.5321C231.086 46.5321 229.389 48.371 229.389 50.8569C229.389 53.4551 231.263 55.1825 233.563 55.1825C234.358 55.1825 235.421 54.9743 235.976 54.6423L236.072 56.1815C235.231 56.5289 234.199 56.5781 233.548 56.5781C230.042 56.5781 227.716 54.328 227.716 50.8116C227.716 47.4028 230.185 45.1389 233.563 45.1389C234.419 45.1389 235.261 45.2642 236.056 45.6038L235.929 47.1499ZM244.395 46.9909C243.588 46.675 243.139 46.5313 242.312 46.5313C241.419 46.5313 240.362 46.8495 240.362 48.0075C240.362 50.1277 245.135 49.6374 245.135 53.2814C245.135 55.6382 243.317 56.5758 241.081 56.5758C240.299 56.5758 239.543 56.3552 238.814 56.1139L238.974 54.6423C239.509 54.8636 240.459 55.1802 241.273 55.1802C242.185 55.1802 243.463 54.6731 243.463 53.3736C243.463 50.9015 238.687 51.5816 238.687 48.1451C238.687 46.1802 240.238 45.1335 242.248 45.1335C242.986 45.1335 243.86 45.2611 244.616 45.5339L244.395 46.9909ZM253.162 56.3898H254.415L255.258 54.2973H259.333L260.176 56.3898H261.473L257.962 48.0805H256.712L253.162 56.3898ZM258.947 53.3214H255.637L257.297 49.1986L258.947 53.3214ZM268.974 54.7799H269.001V48.0813H270.19V56.3898H268.668L264.899 49.556H264.872V56.3898H263.683V48.0813H265.305L268.974 54.7799ZM273.256 56.3898H275.705C278.437 56.3898 280.119 54.9459 280.119 52.1664C280.119 49.6105 278.161 48.0836 275.705 48.0836H273.256V56.3898ZM274.447 49.1348H275.837C277.55 49.1348 278.864 50.2737 278.864 52.2148C278.864 54.3526 277.739 55.3401 275.695 55.3401H274.447V49.1348Z" fill="#5E6278"/>
<path d="M269.02 69.475H280.118V80.5752H269.02V69.475Z" fill="#5E6278"/>
</g>
<defs>
<clipPath id="clip0_695_6616">
<rect width="280.216" height="100" fill="white"/>
</clipPath>
</defs>
</svg>
