<svg width="90" height="100" viewBox="0 0 90 100" fill="none" xmlns="http://www.w3.org/2000/svg">
<path d="M44.5126 0V10.8994C62.1796 11.1843 76.3559 25.3606 76.6408 43.0276C76.7121 49.154 75.1448 54.9955 72.2241 59.9109L85.0469 59.4123C86.9703 54.4969 88.0389 49.1541 88.0389 43.5263C88.0389 19.5191 68.5197 0 44.5126 0ZM0.986328 43.5263C0.986328 49.3678 2.12613 54.9243 4.19203 59.9822L16.7299 59.8397C14.0228 55.2093 12.4556 49.7952 12.3844 44.0249C12.0994 26.0018 26.4894 11.1843 44.5126 10.8994V0C20.5055 0 0.986328 19.5191 0.986328 43.5263Z" fill="white"/>
<path d="M85.0482 59.4124L84.692 60.2672C84.692 60.3384 84.6208 60.4097 84.6208 60.4097V60.4809C84.6208 60.4809 84.6208 60.5522 84.5495 60.5522C84.2646 61.1933 83.9796 61.8344 83.6947 62.4756C83.5522 62.7605 83.4097 63.0455 83.2673 63.2592C83.0535 63.7579 82.7686 64.1853 82.4836 64.684C82.3412 64.9689 82.1987 65.1826 82.0562 65.4676C81.2726 66.8211 80.4177 68.1034 79.5629 69.3144C79.3492 69.5994 79.1355 69.8843 78.9218 70.098C78.7793 70.3117 78.6368 70.5254 78.4231 70.7392C78.2806 70.9529 78.0669 71.1666 77.9244 71.3803C77.782 71.594 77.5682 71.8077 77.4258 72.0214C77.2833 72.2351 77.0696 72.3776 76.9271 72.5913C76.7846 72.8051 76.5709 72.9475 76.3572 73.1612C76.1435 73.375 75.9298 73.5887 75.7161 73.8024C75.5023 74.0161 75.2886 74.2298 75.0749 74.4435C74.6475 74.8709 74.2201 75.2984 73.7214 75.7258C73.5077 75.9395 73.294 76.082 73.0803 76.2957C71.7268 77.5067 70.302 78.5753 68.806 79.5726C68.5211 79.7864 68.2361 79.9288 67.9511 80.1425C67.595 80.3563 67.2388 80.57 66.8826 80.7837C66.5976 80.9262 66.3127 81.1399 66.0277 81.2823C65.4578 81.6385 64.8879 81.9235 64.318 82.2084C64.0331 82.3509 63.7481 82.4934 63.4632 82.6359C63.1782 82.7783 62.822 82.9208 62.5371 83.0633C62.2521 83.2058 61.8959 83.3482 61.5397 83.4907C61.326 83.6332 61.0411 83.7044 60.8274 83.7757C60.3999 83.9181 60.0437 84.1319 59.6163 84.2743C59.2601 84.4168 58.9752 84.488 58.619 84.6305C58.0491 84.8442 57.5504 84.9867 56.9805 85.1292C56.9093 85.1292 56.838 85.1292 56.7668 85.2004C56.6956 85.2717 56.5531 85.2717 56.4819 85.2717C56.4106 85.2717 56.3394 85.3429 56.2682 85.3429H56.1969C56.0544 85.4141 55.912 85.4141 55.7695 85.4854C55.2708 85.6278 54.8434 85.6991 54.3447 85.8416C54.2735 85.8416 54.2023 85.8416 54.0598 85.9128H53.9885C53.7036 85.984 53.3474 86.0553 53.0625 86.1265C52.7063 86.1977 52.4213 86.269 52.0651 86.3402C47.5772 85.6278 42.9467 85.6991 38.3875 86.4827C37.6039 86.3402 36.8915 86.269 36.1791 86.1265C35.6804 86.0553 35.1818 85.9128 34.6831 85.7703C34.3269 85.6991 34.042 85.6278 33.6858 85.5566C33.6858 85.5566 33.6146 85.5566 33.5433 85.5566C33.1159 85.4854 32.7597 85.3429 32.3323 85.2004C31.9761 85.0579 31.6199 84.9867 31.1925 84.8442C30.8363 84.7018 30.4801 84.6305 30.1239 84.488C29.9814 84.4168 29.7677 84.3456 29.554 84.2743C29.4828 84.2743 29.4115 84.2031 29.3403 84.2031C28.6991 83.9894 27.9868 83.7044 27.3456 83.4195C26.9182 83.277 26.562 83.0633 26.1346 82.9208C25.7784 82.7071 25.351 82.5646 24.9948 82.3509C24.5674 82.1372 24.2112 81.9235 23.7837 81.7098C23.4276 81.4961 23.1426 81.3536 22.7864 81.1399C22.7864 81.1399 22.7152 81.1399 22.7152 81.0686C22.359 80.8549 22.0028 80.6412 21.6466 80.4275C21.2904 80.2138 20.9342 80.0001 20.578 79.7151C20.2219 79.5014 19.8657 79.2164 19.5095 79.0027C18.7971 78.5041 18.156 78.0054 17.4436 77.4355C16.8024 76.8656 16.0901 76.3669 15.4489 75.797C15.164 75.5833 14.9503 75.3696 14.7365 75.0847C14.5941 74.9422 14.4516 74.7997 14.3091 74.7285C14.0954 74.5148 13.8817 74.301 13.668 74.0873C13.5967 74.0161 13.5255 73.9449 13.5255 73.9449C13.2406 73.6599 13.0268 73.4462 12.7419 73.1612C12.1007 72.5201 11.5308 71.8077 10.9609 71.0954C10.8185 70.9529 10.7472 70.8104 10.6048 70.6679C10.5335 70.5254 10.391 70.383 10.2486 70.2405C10.1061 70.098 10.0349 69.9555 9.96362 69.8131C9.82115 69.6706 9.74991 69.5281 9.60743 69.3856C9.46496 69.2432 9.39372 69.1007 9.25124 68.9582C9.18001 68.887 9.10876 68.8157 9.03752 68.6733C8.89504 68.5308 8.8238 68.3171 8.68133 68.1746C8.61009 68.0321 8.53886 67.9609 8.39638 67.8184C8.32514 67.7472 8.32516 67.6759 8.25392 67.6047C8.11144 67.391 8.04021 67.2485 7.89773 67.0348C7.68402 66.6786 7.39907 66.2512 7.18535 65.895C7.18535 65.8238 7.11411 65.8238 7.11411 65.7525C6.9004 65.3963 6.68669 65.0401 6.47298 64.684C6.40174 64.5415 6.33049 64.399 6.25925 64.2565C6.18801 64.114 6.11678 63.9716 6.04555 63.9003C5.90307 63.6866 5.76059 63.4017 5.61811 63.188C5.54688 63.1167 5.54687 62.9742 5.47563 62.903V62.8318C5.33315 62.5468 5.1907 62.2619 5.04822 61.9769C4.97698 61.8344 4.90573 61.6207 4.83449 61.4783C4.76326 61.2645 4.69202 61.0508 4.54955 60.9084C4.40707 60.6234 4.2646 60.3384 4.19336 59.9823L16.7312 59.8398C19.5095 64.6127 23.4276 68.6733 28.2005 71.5228C39.5273 78.0766 52.92 77.0793 62.822 70.098C62.8933 70.098 62.8933 70.098 62.8933 70.0268L62.9645 69.9555C63.1782 69.8131 63.4632 69.5994 63.6769 69.3856C63.7481 69.3856 63.7481 69.3144 63.8194 69.3144C64.0331 69.1719 64.1755 69.0295 64.3893 68.887C64.9592 68.4595 65.4578 67.9609 66.0277 67.4622C66.2414 67.2485 66.5264 67.0348 66.7401 66.7498C67.7374 65.7525 68.7348 64.6839 69.5896 63.5441C69.8033 63.2592 70.017 62.9742 70.2308 62.6893C70.3732 62.4756 70.5869 62.1906 70.7294 61.9769C71.1568 61.3358 71.5843 60.6234 72.0117 59.911L85.0482 59.4124Z" fill="#5E6278"/>
<path d="M16.7305 59.8397C19.8649 64.7551 22.7144 68.0321 28.1997 71.5227C23.4981 68.6732 19.5087 64.6127 16.7305 59.8397Z" fill="#B0B0B0"/>
<path d="M5.54481 62.8317V62.9029C5.54481 62.8317 5.47358 62.7604 5.40234 62.6892C5.47358 62.6892 5.47357 62.7604 5.54481 62.8317Z" fill="#B0B0B0"/>
<path d="M6.54336 64.7551C6.75708 65.1113 6.97081 65.4675 7.18452 65.8237C7.04205 65.5387 6.82832 65.2538 6.68585 64.9688V64.8976C6.54337 64.6839 6.47213 64.5414 6.32966 64.3277C6.11595 63.9715 5.90224 63.6153 5.75977 63.1879C5.90224 63.4728 6.0447 63.6865 6.18717 63.9002C6.25841 64.1852 6.40089 64.4701 6.54336 64.7551Z" fill="#B0B0B0"/>
<path d="M7.89648 67.0347C8.18144 67.4621 8.46638 67.8895 8.82257 68.3882C8.75133 68.317 8.75132 68.2457 8.68008 68.1745C8.39513 67.8183 8.18144 67.4621 7.89648 67.0347Z" fill="#B0B0B0"/>
<path d="M9.89134 69.8131C9.96258 69.9555 10.1051 70.098 10.1763 70.2405C9.96258 69.9555 9.74887 69.6706 9.53516 69.3856C9.67763 69.5281 9.74887 69.6706 9.89134 69.8131Z" fill="#B0B0B0"/>
<path d="M10.5332 70.6678C10.7469 70.9528 11.0319 71.2377 11.2456 71.5227C11.1031 71.3802 11.0319 71.2378 10.8894 71.0953C10.7469 70.9528 10.6044 70.8103 10.5332 70.6678Z" fill="#B0B0B0"/>
<path d="M38.173 86.5539C38.1017 86.5539 38.1017 86.5539 38.0305 86.5539C37.3181 86.4114 36.5345 86.3402 35.8221 86.1977C26.2762 84.2743 17.514 79.0739 11.1738 71.5227C11.6725 72.0926 12.0999 72.6625 12.5986 73.1612C12.8123 73.4461 13.0973 73.7311 13.3822 73.9448C13.4534 74.016 13.4534 74.0873 13.5247 74.0873C13.7384 74.301 13.9521 74.5147 14.1658 74.7284C14.3083 74.8709 14.4508 75.0134 14.5933 75.0846C14.807 75.2983 15.0919 75.512 15.3056 75.797C15.9468 76.3669 16.5879 76.9368 17.3003 77.4354C17.9414 78.0053 18.6538 78.504 19.3662 79.0027C19.7224 79.2876 20.0785 79.5013 20.4347 79.715C20.7909 79.9288 21.1471 80.2137 21.5033 80.4274C21.8595 80.6411 22.2157 80.8549 22.5719 81.0686C22.5719 81.0686 22.6431 81.0686 22.6431 81.1398C22.9993 81.3535 23.2842 81.496 23.6404 81.7097C24.0679 81.9234 24.4241 82.1371 24.8515 82.3508C25.2077 82.5646 25.6351 82.707 25.9913 82.9207C26.3475 83.0632 26.7749 83.2769 27.2023 83.4194C27.8435 83.7044 28.4846 83.9893 29.197 84.203C29.2682 84.203 29.3395 84.2743 29.4107 84.2743C29.5532 84.3455 29.7669 84.4167 29.9806 84.488C30.3368 84.6304 30.693 84.7017 31.0492 84.8442C31.4054 84.9866 31.7615 85.0579 32.189 85.2004C32.6164 85.3428 32.9726 85.4141 33.4 85.5565C33.4713 85.5565 33.4713 85.5565 33.5425 85.5565C33.8987 85.6278 34.1836 85.699 34.5398 85.7703C35.0385 85.9127 35.5372 85.984 36.0358 86.1264C36.677 86.3402 37.3893 86.4826 38.173 86.5539Z" fill="#B0B0B0"/>
<path d="M55.9111 85.4854C55.1987 85.6991 54.4863 85.8415 53.8452 85.984C53.2041 86.1265 52.5629 86.269 51.8505 86.3402H51.7793C52.1355 86.269 52.4205 86.1977 52.7766 86.1265C53.0616 86.0552 53.4178 85.984 53.7027 85.9128H53.774C53.8452 85.9128 53.9164 85.8415 54.0589 85.8415C54.5576 85.6991 55.0562 85.6278 55.4837 85.4854C55.6261 85.6278 55.8399 85.5566 55.9111 85.4854Z" fill="#B0B0B0"/>
<path d="M56.5504 85.3428C56.4079 85.414 56.1942 85.4852 55.9805 85.4852C56.1229 85.4852 56.1942 85.414 56.3367 85.3428C56.4791 85.3428 56.4791 85.3428 56.5504 85.3428Z" fill="#B0B0B0"/>
<path d="M58.4744 84.7729C57.9045 84.9867 57.3346 85.1291 56.8359 85.2716C57.3346 85.1291 57.9045 84.9154 58.4744 84.7729Z" fill="#B0B0B0"/>
<path d="M63.0341 70.0266L62.9629 70.0979C63.0341 70.0266 63.1054 69.9554 63.2478 69.9554C63.7465 69.5992 64.1739 69.243 64.6014 68.8868C64.0314 69.243 63.5328 69.6705 63.0341 70.0266Z" fill="#B0B0B0"/>
<path d="M85.0462 59.4835L84.69 60.2671C80.487 70.5966 72.5083 78.6465 62.3926 83.2057C72.7221 78.504 80.8431 70.0267 85.0462 59.4835Z" fill="#B0B0B0"/>
<path d="M20.2937 92.7516C19.9375 92.5379 19.6526 92.4667 19.2251 92.4667V92.3242H17.2305V92.4667C17.3729 92.4667 17.5154 92.4667 17.6579 92.5379C17.7291 92.5379 17.8004 92.6092 17.8004 92.6804C17.8716 92.8229 17.8716 92.9654 17.8716 93.1078V95.8861C17.8716 96.0286 17.8716 96.1711 17.8004 96.3135C17.8004 96.3848 17.7291 96.456 17.6579 96.456C17.5154 96.5272 17.3729 96.5273 17.2305 96.5273V96.6697H19.2964V96.5273H19.2251C19.1539 96.5273 19.0114 96.456 18.9402 96.456C18.869 96.456 18.7977 96.3848 18.7977 96.3135C18.7265 96.1711 18.7265 96.0286 18.7265 95.8861V94.6038H19.1539V94.7463C19.3676 94.7463 19.5101 94.7463 19.7238 94.6751C20.0087 94.6038 20.2225 94.4614 20.4362 94.2476C20.6499 94.0339 20.7211 93.8202 20.7211 93.5353C20.7211 93.2503 20.5787 92.9654 20.2937 92.7516ZM19.4388 94.2476C19.3676 94.3901 19.2251 94.3901 19.1539 94.4614V94.3189C19.0827 94.3901 18.9402 94.3901 18.8689 94.3901H18.7265V92.5379H18.8689C19.0114 92.5379 19.0827 92.5379 19.1539 92.5379V92.6804C19.2964 92.6804 19.3676 92.7517 19.4388 92.8229C19.5813 93.0366 19.6526 93.2503 19.6526 93.5353C19.6526 93.8202 19.5813 94.0339 19.4388 94.2476Z" fill="#B0B0B0"/>
<path d="M28.0567 95.4587C27.9142 95.3162 27.7717 95.1025 27.6292 94.8888L25.5633 91.7543V91.6118H25.4921L24.566 95.1737C24.566 95.3874 24.4948 95.6724 24.3523 95.8861C24.281 96.0286 24.1386 96.0998 23.9961 96.171V96.3135L25.3496 96.0998V95.9573H24.9222C24.7797 95.9573 24.7085 95.8861 24.7085 95.7436V95.3874L24.851 94.96L25.5633 94.8175L26.347 94.675L26.7031 95.3162C26.7744 95.4587 26.8456 95.5299 26.8456 95.5299C26.8456 95.6011 26.8456 95.6011 26.8456 95.6724C26.8456 95.7436 26.7744 95.7436 26.7744 95.8149C26.6319 95.8861 26.5607 95.9573 26.4182 95.9573H26.347V96.0286L28.3416 95.6724V95.5299C28.2704 95.5299 28.1279 95.5299 28.0567 95.4587ZM25.5633 94.6038L24.9222 94.675L25.3496 93.1078L25.5633 93.464V93.5352L26.2045 94.5326L25.5633 94.6038Z" fill="#B0B0B0"/>
<path d="M37.1758 93.7489V93.8914L35.0386 94.2476V94.0339C35.1811 94.0339 35.2524 93.9626 35.3236 93.9626C35.3236 93.9626 35.3948 93.8914 35.3948 93.8202C35.3948 93.7489 35.2524 93.6064 35.0386 93.3927L33.8989 92.3242L33.7564 92.4667L33.8989 93.6064C33.8989 93.7489 33.9701 93.8914 34.0413 94.0339C34.1126 94.1051 34.1126 94.1051 34.1838 94.1764H34.54V94.3188L32.4029 94.675V94.5325H32.5453C32.6166 94.5325 32.759 94.4613 32.8303 94.3901C32.9015 94.3188 32.9015 94.3188 32.9015 94.2476V93.8202L32.4741 91.0419C32.4741 90.8994 32.4029 90.7569 32.4029 90.6145C32.3316 90.5432 32.3316 90.5432 32.2604 90.472H31.7617V90.3295L33.8276 89.9733V90.1158C33.6851 90.1158 33.6139 90.187 33.5427 90.2583C33.4714 90.3295 33.4714 90.3295 33.4002 90.4007V90.8282L33.6139 92.1105L34.9674 90.6145C35.1811 90.4008 35.2524 90.2583 35.2524 90.1158C35.2524 90.0446 35.1811 89.9733 35.1099 89.9733H34.7537V89.8308L36.3922 89.5459V89.6884C36.2497 89.6884 36.1785 89.7596 36.036 89.8308C35.8223 89.9733 35.6798 90.187 35.5373 90.3295L34.3975 91.6118L36.1784 93.2503C36.3922 93.464 36.5346 93.6065 36.8196 93.6777C36.9621 93.7489 37.0333 93.7489 37.1758 93.7489Z" fill="#B0B0B0"/>
<path d="M43.2305 92.2529V92.3954L41.0221 92.6803V92.5378H41.1646C41.2358 92.5378 41.3783 92.4666 41.4495 92.4666C41.5208 92.3954 41.5208 92.3954 41.5208 92.3241V91.8967L41.1646 89.1184C41.1646 88.9759 41.1646 88.8335 41.0933 88.691C41.0933 88.6198 41.0221 88.6198 40.9509 88.5485H40.5234V88.406L42.7318 88.1211V88.2636H42.5893C42.5181 88.2636 42.3756 88.3348 42.3044 88.3348C42.2331 88.406 42.2331 88.406 42.2331 88.4773V88.9047L42.5893 91.683C42.5893 91.8255 42.6606 91.9679 42.6606 92.1104C42.6606 92.1816 42.7318 92.1816 42.8031 92.2529H43.2305Z" fill="#B0B0B0"/>
<path d="M50.4256 91.398C50.4256 91.7542 50.2831 92.1104 49.9981 92.3241C49.7132 92.6091 49.357 92.7515 48.9296 92.6803C48.7871 92.6803 48.6446 92.6803 48.5734 92.6091C48.4309 92.5378 48.2884 92.5378 48.146 92.4666C48.0747 92.4666 48.0035 92.3953 47.9322 92.3953C47.861 92.3953 47.7898 92.3953 47.7898 92.4666C47.7185 92.5378 47.6473 92.6091 47.6473 92.6803H47.4336V91.1843H47.5761C47.6473 91.5405 47.7898 91.9679 48.0747 92.1816C48.2884 92.3953 48.5734 92.5378 48.9296 92.5378C49.1433 92.5378 49.357 92.4666 49.4995 92.3241C49.642 92.1816 49.7132 92.0392 49.7132 91.8967C49.7132 91.8254 49.7132 91.683 49.6419 91.6117C49.5707 91.5405 49.4995 91.398 49.4282 91.3268C49.2145 91.1843 49.0721 91.1131 48.8583 90.9706C48.5734 90.8281 48.2884 90.6856 48.0035 90.4719C47.861 90.3294 47.7185 90.187 47.6473 90.0445C47.5761 89.902 47.5048 89.6883 47.5048 89.4746C47.5048 89.1184 47.6473 88.8335 47.861 88.6197C48.146 88.406 48.4309 88.2635 48.7871 88.2635C48.9296 88.2635 49.0721 88.2636 49.2145 88.3348C49.357 88.406 49.4283 88.406 49.5707 88.4773C49.642 88.5485 49.7844 88.5485 49.8557 88.5485C49.9269 88.5485 49.9269 88.5485 49.9981 88.4773C49.9269 88.5485 49.9981 88.406 50.0694 88.3348L50.1406 89.7595H49.9981C49.9269 89.4034 49.7844 89.1184 49.5707 88.9047C49.357 88.691 49.0721 88.5485 48.7871 88.5485C48.5734 88.5485 48.4309 88.6197 48.2884 88.691C48.146 88.7622 48.0747 88.9047 48.0747 89.0472C48.0747 89.1184 48.0747 89.1896 48.146 89.3321C48.2172 89.4746 48.2884 89.5458 48.4309 89.6171C48.5022 89.6883 48.7159 89.8308 49.1433 89.9733C49.4995 90.1157 49.8557 90.4007 50.1406 90.6856C50.2831 90.8994 50.4256 91.1131 50.4256 91.398Z" fill="#B0B0B0"/>
<path d="M59.4005 90.6145L59.1156 91.7543H59.0443C59.0443 91.5406 59.0443 91.3268 58.9731 91.1131C58.9018 90.9707 58.8306 90.8282 58.7594 90.7569C58.6169 90.6857 58.5456 90.6145 58.4032 90.6145L58.1182 90.5432L57.1921 93.6777C57.1209 93.8202 57.1209 93.9626 57.1209 94.1051C57.1209 94.1763 57.1921 94.2476 57.1921 94.2476C57.2634 94.3188 57.3346 94.3901 57.4771 94.3901H57.6196V94.5325L55.4824 93.8914V93.7489H55.9099C55.9811 93.7489 56.0523 93.6777 56.0523 93.6777C56.1236 93.5352 56.1948 93.464 56.1948 93.3215L57.1209 90.187L56.8359 90.1158C56.6222 90.0446 56.4085 90.0446 56.1948 90.1158C55.9811 90.2583 55.7674 90.472 55.6961 90.6857H55.5537L55.8386 89.5459L59.4005 90.6145Z" fill="#B0B0B0"/>
<path d="M65.1729 96.171C65.1017 95.9573 65.0304 95.6723 65.0304 95.4586L64.5318 91.683H64.4605L63.3207 93.0365V93.1077L62.1809 94.4613C62.0384 94.675 61.896 94.8174 61.6823 94.9599C61.5398 95.0312 61.3973 95.0312 61.2548 95.0312L61.1836 95.1736L62.5371 95.6011V95.4586C62.3946 95.3873 62.3234 95.3161 62.1809 95.2449C62.1097 95.1736 62.1097 95.0312 62.1097 94.9599C62.1097 94.8887 62.1809 94.7462 62.2522 94.675L62.5371 94.3188L63.3207 94.5325L63.9619 94.7462V95.4586C63.9619 95.5298 63.9619 95.5298 63.9619 95.6011C63.9619 95.6723 63.9619 95.7435 63.8906 95.7435H63.4632V95.886L65.4579 96.4559V96.3847C65.3154 96.3134 65.2441 96.2422 65.1729 96.171ZM63.392 94.3188V94.2475L62.7508 94.1051L63.392 93.3927V93.3215L63.7482 92.894L63.9619 94.4613L63.392 94.3188Z" fill="#B0B0B0"/>
<path d="M74.0769 92.4666V92.6091C73.9344 92.6091 73.8632 92.6803 73.7207 92.6803C73.6495 92.7516 73.5782 92.7516 73.5782 92.8228C73.507 92.9653 73.507 93.1078 73.507 93.2502V96.8121H73.4358L70.5863 93.2502V95.9573C70.5863 96.171 70.6575 96.3135 70.7287 96.4559C70.8712 96.5272 70.9424 96.5984 71.0849 96.5984H71.1562V96.7409H69.6602V96.5984C69.8026 96.5984 70.0164 96.5272 70.1588 96.4559C70.2301 96.3135 70.3013 96.171 70.3013 95.9573V92.9653L70.2301 92.8228C70.1588 92.7516 70.0876 92.6803 70.0163 92.6091C69.9451 92.5379 69.8026 92.5379 69.7314 92.5379V92.3954H71.1562V92.4666L73.222 95.1024V93.2502C73.222 93.1078 73.222 92.8941 73.1508 92.7516C73.0083 92.6091 72.8659 92.5379 72.6522 92.6091V92.4666H74.0769Z" fill="#B0B0B0"/>
<path d="M84.4757 89.7595L88.8211 84.7016C89.676 83.7043 89.7472 83.8468 88.465 83.8468L79.1328 84.0605C77.2806 79.715 70.5843 81.6384 70.8692 83.2056L70.9405 89.4746L59.5424 87.3374C57.619 86.8388 55.7668 86.4113 53.8434 86.0552C47.717 84.9154 41.733 84.7729 35.9628 86.1976H35.8915C35.3928 86.3401 34.8942 86.4826 34.3955 86.625L20.7179 89.1896L20.7891 83.2056C21.0028 80.926 14.5202 79.715 12.2406 83.6331H3.69204C1.83986 83.6331 1.12748 83.1344 2.69471 84.7729L7.04022 89.4033L2.48101 93.9625C1.26997 95.1736 0.557594 95.3161 2.55225 95.3161H12.1693L12.3831 98.5218C17.156 100.374 22.57 100.73 29.4801 98.1656C38.3848 95.4585 47.5745 94.0338 57.7615 97.3107C64.7428 99.804 71.7241 100.516 78.7054 98.593L78.9191 95.3161C89.1061 94.8174 94.2352 97.8094 84.4757 89.7595ZM12.2406 88.3348V93.7488L2.69471 94.2475L7.89508 89.4033L3.0509 84.4167L12.8105 84.2742C14.2352 81.5672 20.0767 81.1397 19.4356 83.7755C17.2985 83.4194 15.0901 83.7043 13.1667 84.7016C11.2433 85.414 10.9583 86.9812 12.2406 88.3348ZM77.8505 98.0231C71.2967 99.8753 64.5291 98.593 57.6903 96.3846C48.2869 93.6776 39.7383 94.39 31.546 96.7408C24.2798 99.0917 18.0821 99.3766 12.9529 97.9519L13.0954 88.8334C19.0082 90.7568 26.4881 89.4746 34.3243 87.4087C35.5353 87.0525 36.8176 86.8388 38.0286 86.625C38.0286 86.625 38.0999 86.625 38.1711 86.625C42.6591 85.8414 47.2895 85.7702 51.8488 86.4826H51.92C53.4872 86.6963 55.0545 87.0525 56.5505 87.4087C63.603 89.617 70.8692 91.113 77.993 88.9047L77.8505 98.0231ZM78.9903 94.3187V88.6197C79.9164 85.6277 79.2753 83.7043 72.0091 84.1317C70.5843 82.2083 75.001 81.211 77.5656 83.2056L79.204 84.7729L88.0375 84.6304L83.4783 89.617L88.5362 94.4612L78.9903 94.3187Z" fill="#B0B0B0"/>
<path d="M20.2937 92.7516C19.9375 92.5379 19.6526 92.4667 19.2251 92.4667V92.3242H17.2305V92.4667C17.3729 92.4667 17.5154 92.4667 17.6579 92.5379C17.7291 92.5379 17.8004 92.6092 17.8004 92.6804C17.8716 92.8229 17.8716 92.9654 17.8716 93.1078V95.8861C17.8716 96.0286 17.8716 96.1711 17.8004 96.3135C17.8004 96.3848 17.7291 96.456 17.6579 96.456C17.5154 96.5272 17.3729 96.5273 17.2305 96.5273V96.6697H19.2964V96.5273H19.2251C19.1539 96.5273 19.0114 96.456 18.9402 96.456C18.869 96.456 18.7977 96.3848 18.7977 96.3135C18.7265 96.1711 18.7265 96.0286 18.7265 95.8861V94.6038H19.1539V94.7463C19.3676 94.7463 19.5101 94.7463 19.7238 94.6751C20.0087 94.6038 20.2225 94.4614 20.4362 94.2476C20.6499 94.0339 20.7211 93.8202 20.7211 93.5353C20.7211 93.2503 20.5787 92.9654 20.2937 92.7516ZM19.4388 94.2476C19.3676 94.3901 19.2251 94.3901 19.1539 94.4614V94.3189C19.0827 94.3901 18.9402 94.3901 18.8689 94.3901H18.7265V92.5379H18.8689C19.0114 92.5379 19.0827 92.5379 19.1539 92.5379V92.6804C19.2964 92.6804 19.3676 92.7517 19.4388 92.8229C19.5813 93.0366 19.6526 93.2503 19.6526 93.5353C19.6526 93.8202 19.5813 94.0339 19.4388 94.2476Z" fill="#B0B0B0"/>
<path d="M28.0567 95.4587C27.9142 95.3162 27.7717 95.1025 27.6292 94.8888L25.5633 91.7543V91.6118H25.4921L24.566 95.1737C24.566 95.3874 24.4948 95.6724 24.3523 95.8861C24.281 96.0286 24.1386 96.0998 23.9961 96.171V96.3135L25.3496 96.0998V95.9573H24.9222C24.7797 95.9573 24.7085 95.8861 24.7085 95.7436V95.3874L24.851 94.96L25.5633 94.8175L26.347 94.675L26.7031 95.3162C26.7744 95.4587 26.8456 95.5299 26.8456 95.5299C26.8456 95.6011 26.8456 95.6011 26.8456 95.6724C26.8456 95.7436 26.7744 95.7436 26.7744 95.8149C26.6319 95.8861 26.5607 95.9573 26.4182 95.9573H26.347V96.0286L28.3416 95.6724V95.5299C28.2704 95.5299 28.1279 95.5299 28.0567 95.4587ZM25.5633 94.6038L24.9222 94.675L25.3496 93.1078L25.5633 93.464V93.5352L26.2045 94.5326L25.5633 94.6038Z" fill="#B0B0B0"/>
<path d="M37.1758 93.7489V93.8914L35.0386 94.2476V94.0339C35.1811 94.0339 35.2524 93.9626 35.3236 93.9626C35.3236 93.9626 35.3948 93.8914 35.3948 93.8202C35.3948 93.7489 35.2524 93.6064 35.0386 93.3927L33.8989 92.3242L33.7564 92.4667L33.8989 93.6064C33.8989 93.7489 33.9701 93.8914 34.0413 94.0339C34.1126 94.1051 34.1126 94.1051 34.1838 94.1764H34.54V94.3188L32.4029 94.675V94.5325H32.5453C32.6166 94.5325 32.759 94.4613 32.8303 94.3901C32.9015 94.3188 32.9015 94.3188 32.9015 94.2476V93.8202L32.4741 91.0419C32.4741 90.8994 32.4029 90.7569 32.4029 90.6145C32.3316 90.5432 32.3316 90.5432 32.2604 90.472H31.7617V90.3295L33.8276 89.9733V90.1158C33.6851 90.1158 33.6139 90.187 33.5427 90.2583C33.4714 90.3295 33.4714 90.3295 33.4002 90.4007V90.8282L33.6139 92.1105L34.9674 90.6145C35.1811 90.4008 35.2524 90.2583 35.2524 90.1158C35.2524 90.0446 35.1811 89.9733 35.1099 89.9733H34.7537V89.8308L36.3922 89.5459V89.6884C36.2497 89.6884 36.1785 89.7596 36.036 89.8308C35.8223 89.9733 35.6798 90.187 35.5373 90.3295L34.3975 91.6118L36.1784 93.2503C36.3922 93.464 36.5346 93.6065 36.8196 93.6777C36.9621 93.7489 37.0333 93.7489 37.1758 93.7489Z" fill="#B0B0B0"/>
<path d="M43.2305 92.2529V92.3954L41.0221 92.6803V92.5378H41.1646C41.2358 92.5378 41.3783 92.4666 41.4495 92.4666C41.5208 92.3954 41.5208 92.3954 41.5208 92.3241V91.8967L41.1646 89.1184C41.1646 88.9759 41.1646 88.8335 41.0933 88.691C41.0933 88.6198 41.0221 88.6198 40.9509 88.5485H40.5234V88.406L42.7318 88.1211V88.2636H42.5893C42.5181 88.2636 42.3756 88.3348 42.3044 88.3348C42.2331 88.406 42.2331 88.406 42.2331 88.4773V88.9047L42.5893 91.683C42.5893 91.8255 42.6606 91.9679 42.6606 92.1104C42.6606 92.1816 42.7318 92.1816 42.8031 92.2529H43.2305Z" fill="#B0B0B0"/>
<path d="M50.4256 91.398C50.4256 91.7542 50.2831 92.1104 49.9981 92.3241C49.7132 92.6091 49.357 92.7515 48.9296 92.6803C48.7871 92.6803 48.6446 92.6803 48.5734 92.6091C48.4309 92.5378 48.2884 92.5378 48.146 92.4666C48.0747 92.4666 48.0035 92.3953 47.9322 92.3953C47.861 92.3953 47.7898 92.3953 47.7898 92.4666C47.7185 92.5378 47.6473 92.6091 47.6473 92.6803H47.4336V91.1843H47.5761C47.6473 91.5405 47.7898 91.9679 48.0747 92.1816C48.2884 92.3953 48.5734 92.5378 48.9296 92.5378C49.1433 92.5378 49.357 92.4666 49.4995 92.3241C49.642 92.1816 49.7132 92.0392 49.7132 91.8967C49.7132 91.8254 49.7132 91.683 49.6419 91.6117C49.5707 91.5405 49.4995 91.398 49.4282 91.3268C49.2145 91.1843 49.0721 91.1131 48.8583 90.9706C48.5734 90.8281 48.2884 90.6856 48.0035 90.4719C47.861 90.3294 47.7185 90.187 47.6473 90.0445C47.5761 89.902 47.5048 89.6883 47.5048 89.4746C47.5048 89.1184 47.6473 88.8335 47.861 88.6197C48.146 88.406 48.4309 88.2635 48.7871 88.2635C48.9296 88.2635 49.0721 88.2636 49.2145 88.3348C49.357 88.406 49.4283 88.406 49.5707 88.4773C49.642 88.5485 49.7844 88.5485 49.8557 88.5485C49.9269 88.5485 49.9269 88.5485 49.9981 88.4773C49.9269 88.5485 49.9981 88.406 50.0694 88.3348L50.1406 89.7595H49.9981C49.9269 89.4034 49.7844 89.1184 49.5707 88.9047C49.357 88.691 49.0721 88.5485 48.7871 88.5485C48.5734 88.5485 48.4309 88.6197 48.2884 88.691C48.146 88.7622 48.0747 88.9047 48.0747 89.0472C48.0747 89.1184 48.0747 89.1896 48.146 89.3321C48.2172 89.4746 48.2884 89.5458 48.4309 89.6171C48.5022 89.6883 48.7159 89.8308 49.1433 89.9733C49.4995 90.1157 49.8557 90.4007 50.1406 90.6856C50.2831 90.8994 50.4256 91.1131 50.4256 91.398Z" fill="#B0B0B0"/>
<path d="M59.4005 90.6145L59.1156 91.7543H59.0443C59.0443 91.5406 59.0443 91.3268 58.9731 91.1131C58.9018 90.9707 58.8306 90.8282 58.7594 90.7569C58.6169 90.6857 58.5456 90.6145 58.4032 90.6145L58.1182 90.5432L57.1921 93.6777C57.1209 93.8202 57.1209 93.9626 57.1209 94.1051C57.1209 94.1763 57.1921 94.2476 57.1921 94.2476C57.2634 94.3188 57.3346 94.3901 57.4771 94.3901H57.6196V94.5325L55.4824 93.8914V93.7489H55.9099C55.9811 93.7489 56.0523 93.6777 56.0523 93.6777C56.1236 93.5352 56.1948 93.464 56.1948 93.3215L57.1209 90.187L56.8359 90.1158C56.6222 90.0446 56.4085 90.0446 56.1948 90.1158C55.9811 90.2583 55.7674 90.472 55.6961 90.6857H55.5537L55.8386 89.5459L59.4005 90.6145Z" fill="#B0B0B0"/>
<path d="M65.1729 96.171C65.1017 95.9573 65.0304 95.6723 65.0304 95.4586L64.5318 91.683H64.4605L63.3207 93.0365V93.1077L62.1809 94.4613C62.0384 94.675 61.896 94.8174 61.6823 94.9599C61.5398 95.0312 61.3973 95.0312 61.2548 95.0312L61.1836 95.1736L62.5371 95.6011V95.4586C62.3946 95.3873 62.3234 95.3161 62.1809 95.2449C62.1097 95.1736 62.1097 95.0312 62.1097 94.9599C62.1097 94.8887 62.1809 94.7462 62.2522 94.675L62.5371 94.3188L63.3207 94.5325L63.9619 94.7462V95.4586C63.9619 95.5298 63.9619 95.5298 63.9619 95.6011C63.9619 95.6723 63.9619 95.7435 63.8906 95.7435H63.4632V95.886L65.4579 96.4559V96.3847C65.3154 96.3134 65.2441 96.2422 65.1729 96.171ZM63.392 94.3188V94.2475L62.7508 94.1051L63.392 93.3927V93.3215L63.7482 92.894L63.9619 94.4613L63.392 94.3188Z" fill="#B0B0B0"/>
<path d="M74.0769 92.4666V92.6091C73.9344 92.6091 73.8632 92.6803 73.7207 92.6803C73.6495 92.7516 73.5782 92.7516 73.5782 92.8228C73.507 92.9653 73.507 93.1078 73.507 93.2502V96.8121H73.4358L70.5863 93.2502V95.9573C70.5863 96.171 70.6575 96.3135 70.7287 96.4559C70.8712 96.5272 70.9424 96.5984 71.0849 96.5984H71.1562V96.7409H69.6602V96.5984C69.8026 96.5984 70.0164 96.5272 70.1588 96.4559C70.2301 96.3135 70.3013 96.171 70.3013 95.9573V92.9653L70.2301 92.8228C70.1588 92.7516 70.0876 92.6803 70.0163 92.6091C69.9451 92.5379 69.8026 92.5379 69.7314 92.5379V92.3954H71.1562V92.4666L73.222 95.1024V93.2502C73.222 93.1078 73.222 92.8941 73.1508 92.7516C73.0083 92.6091 72.8659 92.5379 72.6522 92.6091V92.4666H74.0769Z" fill="#B0B0B0"/>
<path d="M19.1539 96.5273V96.6697H19.2964V96.5273H19.1539ZM20.2937 92.7516C19.9375 92.5379 19.6526 92.4667 19.2251 92.4667H19.1539V92.6804C19.2964 92.6804 19.3676 92.7517 19.4388 92.8229C19.5813 93.0366 19.6526 93.2503 19.6526 93.5353C19.6526 93.8202 19.5813 94.0339 19.4388 94.2476C19.3676 94.3901 19.2251 94.3901 19.1539 94.4614V94.7463C19.3676 94.7463 19.5101 94.7463 19.7238 94.6751C20.0087 94.6038 20.2225 94.4614 20.4362 94.2476C20.6499 94.0339 20.7211 93.8202 20.7211 93.5353C20.7211 93.2503 20.5787 92.9654 20.2937 92.7516ZM17.2305 92.3242V92.4667C17.3729 92.4667 17.5154 92.4667 17.6579 92.5379C17.7291 92.5379 17.8004 92.6092 17.8004 92.6804C17.8716 92.8229 17.8716 92.9654 17.8716 93.1078V95.8861C17.8716 96.0286 17.8716 96.1711 17.8004 96.3135C17.8004 96.3848 17.7291 96.456 17.6579 96.456C17.5154 96.5272 17.3729 96.5273 17.2305 96.5273V96.6697H19.2251V96.5273C19.1539 96.5273 19.0114 96.456 18.9402 96.456C18.869 96.456 18.7977 96.3848 18.7977 96.3135C18.7265 96.1711 18.7265 96.0286 18.7265 95.8861V94.6038H19.1539V94.3189C19.0827 94.3901 18.9402 94.3901 18.8689 94.3901H18.7265V92.5379H18.8689C19.0114 92.5379 19.0827 92.5379 19.1539 92.5379C19.1539 92.5379 19.2251 92.5379 19.2251 92.6092V92.3242H17.2305Z" fill="#B0B0B0"/>
<path d="M28.0567 95.4587C27.9142 95.3162 27.7717 95.1025 27.6292 94.8888L25.5633 91.7543V93.5352L26.2045 94.5326L25.5633 94.6038V94.8175L26.347 94.675L26.7031 95.3162C26.7744 95.4587 26.8456 95.5299 26.8456 95.5299C26.8456 95.6011 26.8456 95.6011 26.8456 95.6724C26.8456 95.7436 26.7744 95.7436 26.7744 95.8149C26.6319 95.8861 26.5607 95.9573 26.4182 95.9573H26.347V96.0286L28.3416 95.6724V95.5299C28.2704 95.5299 28.1279 95.5299 28.0567 95.4587ZM25.4921 91.6118L24.566 95.1737C24.566 95.3874 24.4948 95.6724 24.3523 95.8861C24.281 96.0286 24.1386 96.0998 23.9961 96.171V96.3135L25.3496 96.0998V95.9573H24.9222C24.7797 95.9573 24.7085 95.8861 24.7085 95.7436V95.3874L24.851 94.96L25.5633 94.8175V94.6038L24.9222 94.675L25.3496 93.1078L25.5633 93.464L25.4921 91.6118Z" fill="#B0B0B0"/>
<path d="M37.1758 93.7489V93.8914L35.0386 94.2476V94.0339C35.1811 94.0339 35.2524 93.9626 35.3236 93.9626C35.3236 93.9626 35.3948 93.8914 35.3948 93.8202C35.3948 93.7489 35.2524 93.6064 35.0386 93.3927L33.8989 92.3242L33.7564 92.4667L33.8989 93.6064C33.8989 93.7489 33.9701 93.8914 34.0413 94.0339C34.1126 94.1051 34.1126 94.1051 34.1838 94.1764H34.54V94.3188L32.4029 94.675V94.5325H32.5453C32.6166 94.5325 32.759 94.4613 32.8303 94.3901C32.9015 94.3188 32.9015 94.3188 32.9015 94.2476V93.8202L32.4741 91.0419C32.4741 90.8994 32.4029 90.7569 32.4029 90.6145C32.3316 90.5432 32.3316 90.5432 32.2604 90.472H31.7617V90.3295L33.8276 89.9733V90.1158C33.6851 90.1158 33.6139 90.187 33.5427 90.2583C33.4714 90.3295 33.4714 90.3295 33.4002 90.4007V90.8282L33.6139 92.1105L34.9674 90.6145C35.1811 90.4008 35.2524 90.2583 35.2524 90.1158C35.2524 90.0446 35.1811 89.9733 35.1099 89.9733H34.7537V89.8308L36.3922 89.5459V89.6884C36.2497 89.6884 36.1785 89.7596 36.036 89.8308C35.8223 89.9733 35.6798 90.187 35.5373 90.3295L34.3975 91.6118L36.1784 93.2503C36.3922 93.464 36.5346 93.6065 36.8196 93.6777C36.9621 93.7489 37.0333 93.7489 37.1758 93.7489Z" fill="#B0B0B0"/>
<path d="M43.2305 92.2529V92.3954L41.0221 92.6803V92.5378H41.1646C41.2358 92.5378 41.3783 92.4666 41.4495 92.4666C41.5208 92.3954 41.5208 92.3954 41.5208 92.3241V91.8967L41.1646 89.1184C41.1646 88.9759 41.1646 88.8335 41.0933 88.691C41.0933 88.6198 41.0221 88.6198 40.9509 88.5485H40.5234V88.406L42.7318 88.1211V88.2636H42.5893C42.5181 88.2636 42.3756 88.3348 42.3044 88.3348C42.2331 88.406 42.2331 88.406 42.2331 88.4773V88.9047L42.5893 91.683C42.5893 91.8255 42.6606 91.9679 42.6606 92.1104C42.6606 92.1816 42.7318 92.1816 42.8031 92.2529H43.2305Z" fill="#B0B0B0"/>
<path d="M50.4256 91.398C50.4256 91.7542 50.2831 92.1104 49.9981 92.3241C49.7132 92.6091 49.357 92.7515 48.9296 92.6803C48.7871 92.6803 48.6446 92.6803 48.5734 92.6091C48.4309 92.5378 48.2884 92.5378 48.146 92.4666C48.0747 92.4666 48.0035 92.3953 47.9322 92.3953C47.861 92.3953 47.7898 92.3953 47.7898 92.4666C47.7185 92.5378 47.6473 92.6091 47.6473 92.6803H47.4336V91.1843H47.5761C47.6473 91.5405 47.7898 91.9679 48.0747 92.1816C48.2884 92.3953 48.5734 92.5378 48.9296 92.5378C49.1433 92.5378 49.357 92.4666 49.4995 92.3241C49.642 92.1816 49.7132 92.0392 49.7132 91.8967C49.7132 91.8254 49.7132 91.683 49.6419 91.6117C49.5707 91.5405 49.4995 91.398 49.4282 91.3268C49.2145 91.1843 49.0721 91.1131 48.8583 90.9706C48.5734 90.8281 48.2884 90.6856 48.0035 90.4719C47.861 90.3294 47.7185 90.187 47.6473 90.0445C47.5761 89.902 47.5048 89.6883 47.5048 89.4746C47.5048 89.1184 47.6473 88.8335 47.861 88.6197C48.146 88.406 48.4309 88.2635 48.7871 88.2635C48.9296 88.2635 49.0721 88.2636 49.2145 88.3348C49.357 88.406 49.4283 88.406 49.5707 88.4773C49.642 88.5485 49.7844 88.5485 49.8557 88.5485C49.9269 88.5485 49.9269 88.5485 49.9981 88.4773C49.9269 88.5485 49.9981 88.406 50.0694 88.3348L50.1406 89.7595H49.9981C49.9269 89.4034 49.7844 89.1184 49.5707 88.9047C49.357 88.691 49.0721 88.5485 48.7871 88.5485C48.5734 88.5485 48.4309 88.6197 48.2884 88.691C48.146 88.7622 48.0747 88.9047 48.0747 89.0472C48.0747 89.1184 48.0747 89.1896 48.146 89.3321C48.2172 89.4746 48.2884 89.5458 48.4309 89.6171C48.5022 89.6883 48.7159 89.8308 49.1433 89.9733C49.4995 90.1157 49.8557 90.4007 50.1406 90.6856C50.2831 90.8994 50.4256 91.1131 50.4256 91.398Z" fill="#B0B0B0"/>
<path d="M59.4005 90.6145L59.1156 91.7543H59.0443C59.0443 91.5406 59.0443 91.3268 58.9731 91.1131C58.9018 90.9707 58.8306 90.8282 58.7594 90.7569C58.6169 90.6857 58.5456 90.6145 58.4032 90.6145L58.1182 90.5432L57.1921 93.6777C57.1209 93.8202 57.1209 93.9626 57.1209 94.1051C57.1209 94.1763 57.1921 94.2476 57.1921 94.2476C57.2634 94.3188 57.3346 94.3901 57.4771 94.3901H57.6196V94.5325L55.4824 93.8914V93.7489H55.9099C55.9811 93.7489 56.0523 93.6777 56.0523 93.6777C56.1236 93.5352 56.1948 93.464 56.1948 93.3215L57.1209 90.187L56.8359 90.1158C56.6222 90.0446 56.4085 90.0446 56.1948 90.1158C55.9811 90.2583 55.7674 90.472 55.6961 90.6857H55.5537L55.8386 89.5459L59.4005 90.6145Z" fill="#B0B0B0"/>
<path d="M65.1729 96.171C65.1017 95.9573 65.0304 95.6723 65.0304 95.4586L64.5318 91.683H64.4605L63.3207 93.0365V93.3927L63.392 93.3215L63.7482 92.894L63.9619 94.4613L63.392 94.3188H63.3207V94.5325L63.9619 94.7462V95.4586C63.9619 95.5298 63.9619 95.5298 63.9619 95.6011C63.9619 95.6723 63.9619 95.7435 63.8906 95.7435H63.4632V95.886L65.4579 96.4559V96.3847C65.3154 96.3134 65.2441 96.2422 65.1729 96.171ZM63.3207 93.1077L62.1809 94.4613C62.0384 94.675 61.896 94.8174 61.6823 94.9599C61.5398 95.0312 61.3973 95.0312 61.2548 95.0312L61.1836 95.1736L62.5371 95.6011V95.4586C62.3946 95.3873 62.3234 95.3161 62.1809 95.2449C62.1097 95.1736 62.1097 95.0312 62.1097 94.9599C62.1097 94.8887 62.1809 94.7462 62.2522 94.675L62.5371 94.3188L63.3207 94.5325L63.392 94.3188V94.2475L62.7508 94.1051L63.392 93.3927V93.0365L63.3207 93.1077Z" fill="#B0B0B0"/>
<path d="M74.0769 92.4666V92.6091C73.9344 92.6091 73.8632 92.6803 73.7207 92.6803C73.6495 92.7516 73.5782 92.7516 73.5782 92.8228C73.507 92.9653 73.507 93.1078 73.507 93.2502V96.8121H73.4358L70.5863 93.2502V95.9573C70.5863 96.171 70.6575 96.3135 70.7287 96.4559C70.8712 96.5272 70.9424 96.5984 71.0849 96.5984H71.1562V96.7409H69.6602V96.5984C69.8026 96.5984 70.0164 96.5272 70.1588 96.4559C70.2301 96.3135 70.3013 96.171 70.3013 95.9573V92.9653L70.2301 92.8228C70.1588 92.7516 70.0876 92.6803 70.0163 92.6091C69.9451 92.5379 69.8026 92.5379 69.7314 92.5379V92.3954H71.1562V92.4666L73.222 95.1024V93.2502C73.222 93.1078 73.222 92.8941 73.1508 92.7516C73.0083 92.6091 72.8659 92.5379 72.6522 92.6091V92.4666H74.0769Z" fill="#B0B0B0"/>
<path d="M56.4798 51.6473C56.3374 50.1513 56.4799 48.0854 54.5564 49.4389C54.0578 49.154 53.7728 48.5841 53.9153 47.9429C53.9865 44.8797 53.8441 45.7346 55.625 44.4523C56.0524 43.5262 55.8387 43.5262 55.1976 42.7426L55.1263 41.7453C55.1263 38.7533 53.9153 36.1887 50.7096 36.1887C50.7096 34.4078 49.926 33.9091 48.6437 35.1202C46.4353 33.8379 46.1504 32.5556 45.0818 29.991C45.0818 29.991 45.0818 29.9198 45.0106 29.9198V29.991C44.9393 30.2047 44.8681 30.4185 44.7969 30.7034C44.0845 32.9118 43.5146 33.9804 41.3062 34.9777C39.8102 33.6954 39.1691 34.3365 39.0266 36.1175C34.8948 35.9038 34.3249 39.9643 34.6099 42.7426C34.2537 43.0988 34.04 43.455 34.04 43.8112C34.04 44.4523 34.6811 44.951 35.4647 45.3072C36.3196 45.7346 36.1771 48.7266 35.3935 49.4389C33.5413 48.2279 33.3276 50.0088 33.755 51.5048C31.4754 53.9982 32.8289 55.8503 35.251 57.4176L35.7497 57.7025C36.3908 57.845 37.0319 57.7738 37.6731 57.6313L39.0266 56.7052C39.454 56.349 39.5253 56.2778 39.8102 56.7052C41.235 57.7738 42.446 56.7764 43.0159 56.2778C43.4433 57.6313 44.0845 58.4149 44.7969 58.5574C44.8681 58.5574 44.9393 58.5574 45.0106 58.5574C45.7229 58.5574 46.5778 57.845 47.0052 56.4202C48.7862 57.4888 48.9999 57.6313 50.5671 56.2065C54.2002 58.9848 57.2635 56.7764 57.1922 52.8584L56.4798 51.6473ZM53.2029 56.0641C51.2083 54.4256 50.9945 53.4995 48.9999 55.138C48.7862 55.2804 48.5012 55.2804 48.3587 55.138C47.5751 54.4968 46.7203 53.2858 46.0079 53.2858H43.8708C43.3721 53.2858 42.9447 54.2119 42.3748 54.853C41.9474 55.138 41.3775 55.138 40.95 54.9242L39.3115 53.642C39.0978 53.4283 38.8841 53.4995 38.6704 53.7132L37.5306 55.7079C36.8182 55.9216 36.1059 55.9928 35.4647 55.8503C34.8236 55.4229 34.3249 54.7818 34.04 53.9982C34.04 53.642 34.3249 53.357 34.8948 53.1433C35.1798 52.5734 35.3222 52.0035 35.3222 51.3624C36.0346 51.2199 36.3908 50.7212 36.8182 50.0801C37.8156 48.6553 37.5306 47.2306 37.6018 45.4496C37.3169 43.9536 36.9607 43.3125 36.462 43.455C36.462 42.7426 37.1744 41.7453 36.9607 41.4603C36.6045 40.9616 36.3908 40.3917 36.1771 39.8218C36.6045 38.8958 37.3881 38.1834 38.243 37.756L40.0952 38.3259C40.1664 37.8272 40.2376 37.3998 40.4514 36.9723C41.0213 36.9723 41.5912 36.9011 42.0898 36.6874C43.1584 36.0462 44.1557 35.1914 44.8681 34.1941C45.5805 35.0489 46.4353 35.7613 47.4327 36.26L49.5698 36.7586C49.5698 37.471 49.8547 38.1834 50.2109 38.7533C50.7808 38.3258 51.422 38.0409 51.7782 38.2546C52.5618 38.7533 53.2742 39.3944 53.8441 40.2493C54.2003 40.8904 53.0604 41.3891 53.2741 42.1015C53.4166 42.3864 53.8441 42.9563 53.6303 43.3125L52.633 45.2359C52.2056 46.5894 52.2768 48.0142 52.7043 49.2965L54.414 51.7185C54.414 53.0721 54.5564 53.2145 55.4825 54.2119C54.9126 55.4942 54.4139 55.7079 53.2029 56.0641Z" fill="#B0B0B0"/>
<path d="M71.0153 33.0544V33.1257C71.0153 33.0544 71.0866 33.0544 71.0153 33.0544ZM71.0153 33.0544V33.1257C71.0153 33.0544 71.0866 33.0544 71.0153 33.0544ZM71.0153 33.0544V33.1257C71.0153 33.0544 71.0866 33.0544 71.0153 33.0544ZM71.0153 33.0544V33.1257C71.0153 33.0544 71.0866 33.0544 71.0153 33.0544ZM71.0153 33.0544V33.1257C71.0153 33.0544 71.0866 33.0544 71.0153 33.0544ZM71.0153 33.0544V33.1257C71.0153 33.0544 71.0866 33.0544 71.0153 33.0544ZM71.0153 33.0544V33.1257C71.0153 33.0544 71.0866 33.0544 71.0153 33.0544ZM71.0153 33.0544V33.1257C71.0153 33.0544 71.0866 33.0544 71.0153 33.0544ZM71.0153 33.0544V33.1257C71.0153 33.0544 71.0866 33.0544 71.0153 33.0544ZM71.0153 33.0544V33.1257C71.0153 33.0544 71.0866 33.0544 71.0153 33.0544ZM74.506 41.8879V41.318C74.1498 40.2495 73.0812 40.9618 72.4401 40.7481C73.4374 38.7535 74.8622 36.0464 73.5087 33.9093C73.01 33.6243 72.4401 33.9805 72.0127 34.2655L71.6565 34.408C71.7277 33.8381 71.9414 33.0544 72.0127 32.4845V32.0571C72.0839 31.3447 72.0839 30.5611 71.9414 29.7775V29.2788C71.799 28.6377 71.514 28.0678 71.0866 27.4979C71.0153 27.4267 70.8729 27.4267 70.7304 27.4267V27.3554H70.5167C70.303 27.3554 70.1605 27.4267 69.9468 27.5691C69.3769 27.9966 69.1632 29.1364 68.6645 29.5638C68.3083 28.7802 67.9521 27.9966 67.5959 27.2129V27.1417C66.9548 25.7882 65.9575 24.6484 64.7464 23.7935C64.5327 23.7223 64.2478 23.7223 64.034 23.6511C63.8916 23.6511 63.7491 23.6511 63.6066 23.7223C63.6066 23.7223 63.6066 23.7223 63.5354 23.7223C63.3929 23.7935 63.1792 23.936 63.108 24.0072C62.9655 24.9333 63.1079 25.9307 63.5354 26.7855V26.8568C63.6778 27.2129 63.8203 27.4979 64.034 27.8541C64.1765 28.2103 64.3902 28.4952 64.5327 28.8514C64.3902 28.8514 64.1765 28.8514 64.034 28.9227C63.8203 28.9939 63.6066 29.1364 63.5354 29.3501C63.4641 29.4926 63.4642 29.7063 63.4642 29.92C63.4642 30.1337 63.4641 30.3474 63.5354 30.5611C63.6778 30.9885 63.8203 31.416 64.034 31.8434C64.2478 32.1996 64.4615 32.5558 64.7464 32.912C65.0314 33.3394 65.3876 33.7668 65.7437 34.123C64.9601 35.9752 66.0999 37.5424 66.8123 39.1096C65.7437 40.5344 66.4561 42.6715 66.5986 44.31C65.53 45.5923 65.1026 47.302 65.3876 48.9405C65.1738 49.0829 65.0314 49.2254 64.8177 49.3679V49.4391C64.5327 49.7241 64.319 50.009 64.1053 50.3652C63.8916 50.7214 63.7491 51.0776 63.6066 51.505C63.3929 52.2886 63.0367 53.1435 62.6093 53.8559C62.0394 53.9983 61.612 54.2833 61.2558 54.6395C60.6146 55.3519 60.2584 56.3492 59.6173 57.0616C59.1899 57.6315 58.4775 57.9877 57.7651 57.9164C57.4089 58.1301 57.124 58.3438 56.7678 58.6288C55.9129 59.3412 55.2006 60.196 54.6306 61.1221C54.0607 62.0482 53.7758 63.0455 53.7758 64.0429L53.6333 64.2566C53.0634 65.0402 51.9236 65.1114 50.9263 65.3964C50.7838 65.3964 50.6413 65.4676 50.4989 65.5389C50.0714 65.5389 49.5728 65.6101 49.2166 65.7526C48.9316 65.8238 48.6467 65.895 48.433 65.895C48.148 65.895 47.9343 65.8238 47.6494 65.6813C47.8631 65.4676 48.148 65.2539 48.433 64.969C48.7179 64.684 49.0029 64.3991 49.2166 64.1141V64.1853C49.5015 63.9004 49.7865 63.473 49.8577 63.0455C49.8577 62.7606 50.855 62.5469 50.7126 61.2646C50.7126 61.0509 50.7838 60.8372 50.9263 60.6947V60.6234C51.2825 60.196 51.7811 59.8398 51.425 59.1275C51.3537 58.8425 51.14 58.6288 50.9263 58.4151C50.7126 58.2014 50.3564 58.0589 50.0714 58.0589C49.929 58.0589 49.7865 58.0589 49.5728 58.1301H49.1454C48.7892 58.2726 48.5042 58.5576 48.3617 58.985C48.2193 59.1987 48.0768 59.4837 47.9343 59.6974L47.7206 59.4836C47.6494 59.0562 47.2932 58.7 46.8657 58.6288C46.652 58.6288 46.4383 58.6288 46.2246 58.7713C45.2985 59.7686 45.5122 61.3358 45.6547 62.5469C45.7259 63.188 46.5808 63.9004 45.7259 64.399C45.2273 65.4676 44.6574 64.3278 44.1587 63.9004C44.7286 62.2619 45.0136 60.1248 43.945 58.6288H43.5176C43.0189 58.7 42.5202 58.9137 42.2353 59.3412C42.164 59.2699 42.1641 59.1275 42.0928 59.0562C41.9503 58.7713 41.7366 58.4863 41.5229 58.3438C41.4517 58.2726 41.3092 58.2014 41.238 58.2014H40.6681C40.3119 58.1301 39.742 58.2014 39.457 58.4863L39.3858 58.5576C38.9583 59.0562 38.8159 59.7686 39.0296 60.4097C39.1721 60.481 39.3145 60.6235 39.457 60.7659C39.742 61.1221 39.8132 61.6208 39.8844 62.0482C39.9557 62.4756 40.0982 62.9031 40.5968 63.1168V63.188C40.6681 63.188 40.7393 63.2593 40.8105 63.2593C40.8818 63.7579 41.0955 64.2566 41.5229 64.5415L42.0928 65.1114C42.3065 65.3251 42.5202 65.6813 42.5915 65.9663L42.3778 66.18L42.0928 66.1088L41.5229 66.0375C41.238 65.9663 40.8105 65.895 40.5256 65.8238C40.1694 65.7526 39.8132 65.6813 39.457 65.6101C39.0296 65.5389 38.6022 65.3964 38.1747 65.2539C37.7473 65.1114 37.3199 64.969 36.8925 64.8265L36.3938 64.6128C36.2513 62.7606 35.3965 60.9796 34.0429 59.6261C33.758 59.3412 33.5443 59.0562 33.2593 58.8425C32.8319 58.4863 32.4045 58.1301 31.9771 57.8452C31.4072 57.8452 30.9085 57.6315 30.4811 57.1328C29.9112 56.4204 29.6262 55.4231 28.9138 54.7107V54.6395C28.7714 54.497 28.5576 54.2833 28.4152 54.2121C26.7055 53.5709 26.7767 51.6475 25.9218 50.2227C25.7794 49.9378 25.5657 49.7241 25.352 49.5104C25.2095 49.3679 24.9958 49.2254 24.782 49.0829L24.7108 49.0117C24.9245 47.7294 24.7108 46.3759 24.2121 45.1649C23.9984 44.8087 23.7847 44.4525 23.4998 44.1675C23.9984 42.6003 24.1409 40.3919 23.3573 38.8959C23.7135 38.326 23.9984 37.6849 24.2121 37.0438C24.4259 36.4739 24.4971 35.8327 24.4971 35.1916C24.4971 34.7641 24.4258 34.408 24.3546 33.9805C24.4971 33.8381 24.6396 33.6243 24.782 33.4819C24.9958 33.2682 25.2095 32.9832 25.352 32.6983V32.7695C25.5657 32.4845 25.7794 32.1284 25.9218 31.8434V31.7722C26.278 31.131 26.4917 30.4186 26.4917 29.635C26.4917 29.2076 26.2068 29.0651 25.9218 28.9939C25.7081 28.9227 25.5657 28.7802 25.4944 28.6377C25.6369 28.424 25.7794 28.139 25.9218 27.9253C26.563 26.7855 26.9192 25.5032 26.8479 24.1497C26.6342 23.4373 26.278 23.2236 25.9218 23.2236C25.7081 23.2236 25.4944 23.2236 25.2807 23.3661C25.067 23.4373 24.8533 23.5798 24.7108 23.7223C24.4971 23.8648 24.2834 24.0785 24.0697 24.2922C23.6422 24.7196 23.286 25.1471 22.9299 25.6457C22.7874 25.9307 22.5737 26.1444 22.4312 26.4293C22.2887 26.7143 22.075 26.9992 21.9325 27.2129V27.2842C21.5051 28.0678 21.2201 28.9227 21.1489 29.7775C20.864 29.1364 20.579 28.4952 20.1516 27.9253V27.8541C20.0091 27.6404 19.7954 27.4267 19.5104 27.2842C19.368 27.2129 19.1543 27.1417 18.9406 27.2129C18.5131 27.3554 18.2282 27.7828 18.0145 28.4952C17.8007 29.2788 17.6583 30.0625 17.6583 30.9173C17.6583 31.7722 17.8007 32.5558 18.0145 33.3394C18.1569 33.6956 18.2994 34.123 18.4419 34.4792C18.2994 34.3367 18.1569 34.2655 18.0145 34.1942C17.4445 33.8381 17.0171 33.6243 16.6609 33.6243C14.8088 33.6243 15.6636 37.9698 17.5158 40.6056C13.0991 39.2521 15.1649 43.8113 18.0145 46.8746L18.2282 47.0883L18.0145 47.017C17.7295 46.9458 17.4445 46.8746 17.2308 46.8746C15.4499 46.8746 15.0937 48.8692 18.0145 51.505C18.2994 51.79 18.5844 52.0037 18.9406 52.2886L19.5104 52.7161L20.1516 53.1435L20.3653 53.286H20.1516C19.9379 53.286 19.7242 53.286 19.5104 53.3572L18.9406 53.4997C17.9432 53.8559 18.0857 54.7107 18.9406 55.708C19.083 55.9218 19.2967 56.0642 19.5104 56.2779C19.7242 56.4204 19.9379 56.6341 20.1516 56.8478C20.7215 57.2753 21.3626 57.7027 21.9325 58.0589L22.4312 58.2726C22.5737 58.3438 22.7874 58.4151 22.9299 58.4863C23.2148 58.6288 23.4285 58.7 23.7135 58.7713C23.4285 58.8425 22.9299 58.9137 22.9299 58.9137C22.7161 58.985 22.4312 59.1987 22.4312 59.1987C21.9325 59.6261 22.0038 60.1248 22.4312 60.6947C22.4312 60.6947 22.7874 61.1221 22.9299 61.2646C23.286 61.5495 23.6422 61.7633 24.0697 61.977C24.2834 62.0482 24.4971 62.1907 24.7108 62.2619C24.9245 62.3332 25.067 62.4044 25.2807 62.4756L25.8506 62.6893C26.7055 62.9743 27.774 62.7606 28.4864 63.3305C27.9165 63.6154 27.2041 63.9716 27.3466 64.684C27.4891 65.3964 28.3439 65.6101 28.8426 66.1088V66.18C28.2727 66.3225 27.7028 66.6074 27.2041 66.9636C26.7767 67.676 26.6342 68.4596 26.8479 69.2432C27.2041 70.0268 27.9877 70.0268 28.8426 70.0268H29.27C30.4811 69.5282 28.8426 67.676 28.8426 67.676C28.7001 67.676 28.5576 67.7472 28.4864 67.8185C27.9877 68.1034 27.9877 68.7446 27.7028 68.9583C26.8479 68.6021 27.8453 67.1061 28.9138 67.0348C29.1276 67.0348 29.3413 67.0349 29.555 67.1773C29.8399 67.4623 30.1249 67.7472 30.4811 67.9609V68.0322C31.3359 68.7446 32.3332 69.3145 33.3306 69.7419C33.6155 69.8844 33.8292 69.9556 34.1142 70.0981C35.0403 70.4543 35.9664 70.668 36.8925 70.8817C37.3199 70.9529 37.7473 71.0242 38.1747 71.0242H38.3172C38.8159 71.6653 38.7446 72.5914 39.457 73.0901C39.8132 73.1613 40.1694 73.2325 40.5256 73.2325C40.8105 73.2325 41.238 73.1613 41.5229 73.0188C41.7366 72.8763 41.9503 72.8051 42.0928 72.5914C42.1641 72.5202 42.2353 72.4489 42.2353 72.3064C42.5915 71.7365 42.5915 70.9529 42.3065 70.3118C42.734 70.0268 43.0901 69.7419 43.4463 69.3857C44.0875 68.7446 44.6574 68.0322 45.156 67.2486C45.5835 68.0322 46.1534 68.6733 46.8657 69.3145V69.3857C47.2219 69.7419 47.5781 70.0268 48.0055 70.3118C47.7206 71.0954 47.8631 72.0215 48.3617 72.6626V72.7339L48.5042 72.8763C48.7179 73.0188 48.9316 73.1613 49.2166 73.2325C49.4303 73.375 49.7865 73.4462 50.0714 73.4462C50.2852 73.4462 50.4989 73.4462 50.6414 73.3038C50.7126 73.3038 50.8551 73.2325 50.9263 73.1613C50.9263 73.1613 50.9263 73.1613 50.9975 73.0901C50.9975 73.0901 50.9975 73.0901 51.0688 73.0901C51.3537 72.8763 51.4962 72.5202 51.5674 72.2352C51.7099 71.879 51.7812 71.5228 52.0661 71.2379C52.636 71.1666 53.1347 71.0954 53.6333 71.0242C54.7019 70.8817 55.7705 70.5967 56.6966 70.2405H56.7678L57.0528 70.0981C57.9788 69.6706 58.8337 69.0295 59.5461 68.3171C60.0447 67.8897 60.5434 67.6047 61.1133 67.4623V67.391C61.327 67.3198 61.612 67.3198 61.8257 67.3198C62.3243 67.5335 63.1079 68.1034 62.823 68.887C62.0394 69.5994 62.6093 68.1034 61.8969 67.9609C61.6832 67.8185 61.327 67.8185 61.1133 67.8897C60.8283 67.9609 60.5434 68.1746 60.4009 68.4596C60.3297 69.1007 60.3297 69.8844 61.042 70.1693H61.1133C61.3982 70.2405 61.7544 70.2405 62.1106 70.2405C62.3956 70.2405 62.6805 70.2405 62.8942 70.0981C62.9655 70.0981 62.9655 70.0981 62.9655 70.0268L63.0367 69.9556C63.108 69.8844 63.1792 69.7419 63.2504 69.5994C63.3217 69.3857 63.3217 69.172 63.3217 68.9583V68.2459C63.3217 67.8185 63.108 67.391 62.7518 67.1061C62.1819 66.7499 61.5407 66.5362 60.8996 66.6074H60.4722C60.0447 66.5362 59.6885 67.1061 59.3323 67.391C59.1899 67.4623 59.1186 67.5335 59.0474 67.5335C58.9049 67.5335 58.7624 67.391 58.5487 67.1061C58.7624 66.8211 59.0474 66.6787 59.3323 66.5362C59.831 66.3937 60.3297 66.3225 60.8283 66.2512L60.9708 66.18C61.5407 65.895 62.3956 65.4676 62.3956 64.7552C62.3956 64.684 62.3956 64.5415 62.3243 64.399C62.2531 63.6867 61.5407 63.8291 61.1845 63.3305C61.8969 63.188 62.6093 63.0455 63.3217 62.9031L63.8203 62.7606C64.0341 62.6893 64.319 62.6181 64.5327 62.5469H64.6039C65.6725 62.1194 66.6698 61.4783 67.3822 60.5522C67.3822 60.481 67.3822 60.3385 67.4534 60.2673V60.196C67.4534 59.3412 66.3849 59.3412 66.0287 58.7713C66.4561 58.6288 66.9548 58.4151 67.4534 58.2014C68.3083 57.8452 69.0919 57.3465 69.8043 56.7766V56.7054L70.303 56.2067C70.3742 56.1355 70.4454 55.993 70.5167 55.9218V55.993C70.6592 55.7793 70.7304 55.6368 70.8729 55.4231C71.0153 55.1381 71.0866 54.8532 71.1578 54.497C71.0866 54.3545 71.0153 54.2121 70.8729 54.0696C70.8016 53.9983 70.6592 53.9271 70.5167 53.8559V53.7846L70.3742 53.7134C70.2317 53.6421 70.018 53.6422 69.8043 53.5709L69.4481 53.4997L69.8043 53.286C69.9468 53.1435 70.1605 53.001 70.3742 52.8585L70.5879 52.7161V52.7873C70.7304 52.7161 70.8016 52.5736 70.9441 52.5023C71.2291 52.2174 71.514 51.9324 71.799 51.6475C73.8648 49.5104 75.1471 46.8033 71.799 47.2308V47.302H71.6565L71.799 47.1595C73.2949 45.5923 74.4348 43.9538 74.506 41.8879ZM49.0741 59.5549C49.4303 59.1987 50.2139 58.985 50.4989 59.6974C50.5701 60.0536 50.4989 60.4097 50.1427 60.6234C49.8577 60.3385 49.3591 60.481 49.0741 60.196V60.1248C49.0029 60.0535 48.9316 59.9823 48.9316 59.8398C48.9316 59.6974 49.0029 59.6261 49.0741 59.5549ZM48.7179 61.4071C48.8604 61.4783 49.0029 61.4783 49.1454 61.4783V61.5495C49.4303 61.5495 49.7865 61.4783 49.8577 61.9057C49.7865 62.1907 49.4303 62.4044 49.1454 62.3332V62.2619C49.0741 62.2619 49.0029 62.1907 49.0029 62.1907C48.5042 62.1907 48.5042 61.6208 48.7179 61.4071ZM48.2905 63.1168C48.433 63.1168 48.5042 63.188 48.5754 63.2593C48.6467 63.3305 48.7892 63.4017 48.6467 63.473C48.5042 63.5442 48.433 63.7579 48.2193 63.7579H48.148L47.7918 63.4017C48.0056 63.2592 48.148 63.188 48.2905 63.1168ZM39.9557 60.481C39.5283 60.2673 39.2433 59.6974 39.742 59.3412C39.8844 59.1987 40.2406 59.1275 40.4543 59.1275C40.7393 59.1275 41.0242 59.2699 41.238 59.5549C41.4517 60.196 40.953 60.196 40.5256 60.2673H40.4543C40.2406 60.3385 40.0269 60.4097 39.9557 60.481ZM41.3092 62.1194C41.1667 62.1907 41.0243 62.2619 40.953 62.3332C40.6681 62.4044 40.4543 62.1194 40.3831 61.9057V61.7633C40.5968 61.4783 40.953 61.2646 41.3092 61.3358C41.3804 61.3358 41.5229 61.4071 41.5942 61.4783C41.7366 61.8345 41.5229 61.977 41.3092 62.1194ZM41.8791 63.6154L41.7366 63.7579L41.5229 63.5442V63.473C41.5229 63.2592 41.6654 63.0455 41.9503 63.0455C42.0928 63.0455 42.3065 63.1168 42.3778 63.2593L41.8791 63.6154ZM31.5496 59.0562C32.0483 59.3412 32.547 59.7686 32.9744 60.196C33.2593 60.481 33.5443 60.8372 33.758 61.1933C34.2567 61.9057 34.6841 62.6893 34.969 63.5442C35.1828 64.2566 35.1115 64.1853 34.4704 63.8291C34.2567 63.6867 33.9717 63.5442 33.758 63.4017C33.473 63.188 33.1881 62.9031 32.9031 62.6893C32.4757 62.2619 32.0483 61.8345 31.6921 61.4783C31.2647 60.8372 30.9797 60.196 30.8372 59.4124C30.8372 58.4863 30.9797 58.7 31.5496 59.0562ZM27.2041 54.8532C27.774 55.2094 28.2727 55.708 28.6289 56.2779V56.3492C29.27 57.4178 29.7687 58.6288 30.0536 59.9111C30.1249 60.196 30.1961 60.4097 30.1961 60.6234V60.8372C30.1249 61.0509 29.9824 60.9796 29.4837 60.481C29.1988 60.196 28.9138 59.9111 28.7001 59.6261C27.774 58.4863 27.0617 57.2753 27.0617 55.9218C27.0617 55.5656 27.1329 55.2094 27.2041 54.8532ZM24.4258 50.4365L24.4971 50.294C24.7108 50.5077 24.8533 50.7926 25.067 51.0064C25.2807 51.3625 25.4944 51.7187 25.6369 52.0749C25.9219 52.7873 26.0643 53.4997 26.0643 54.2833C26.0643 54.7107 25.9931 55.0669 25.9218 55.4943C25.9931 56.6341 25.9219 57.0616 25.6369 56.6341C25.4232 56.2779 25.2095 55.993 25.067 55.6368L24.9958 55.5656C24.7821 55.1381 24.6396 54.7107 24.4258 54.2833C23.8559 53.0722 23.8559 51.6475 24.4258 50.4365ZM22.7161 52.2174L22.6449 52.0749C22.4312 51.7187 22.2887 51.3625 22.1463 51.0064C21.7901 49.7953 21.7188 48.5843 21.7901 47.302L22.1463 46.5896L22.6449 45.6635L22.7874 45.3073C24.1409 47.5869 23.286 49.8665 22.7161 52.2174ZM21.6476 45.1649C21.5051 45.3786 21.3626 45.521 21.1489 45.6635C20.9352 46.0197 21.1489 46.5896 20.579 46.6609C20.0091 45.1649 20.7927 43.6689 20.7927 42.1729C21.0064 41.6742 21.2914 41.2468 21.5763 40.8194V40.7481C21.7188 40.6056 21.8613 40.3919 22.075 40.2495C22.2175 40.1782 22.36 40.1782 22.4312 40.1782C22.5024 40.1782 22.5737 40.1782 22.6449 40.2495C22.7874 40.3919 22.8586 40.7481 22.7161 41.4605C22.7161 41.603 22.6449 41.7454 22.6449 41.9592V42.0304C22.5737 42.814 22.36 43.5976 22.1463 44.31C22.0038 44.595 21.8613 44.8799 21.6476 45.1649ZM22.1463 29.0651C22.2887 28.6377 22.4312 28.139 22.6449 27.6404C22.9299 26.928 23.286 26.3581 23.7847 25.7882C23.9984 25.5745 24.2121 25.3608 24.4258 25.147C24.6396 25.0046 24.7821 24.8621 24.9958 24.7196C25.1382 24.5771 25.4232 24.4347 25.6369 24.3634L25.8506 24.8621C25.7794 25.147 25.7081 25.432 25.6369 25.717V25.7882C25.4944 26.2869 25.2807 26.7855 25.067 27.2842C24.9245 27.6404 24.7108 27.9253 24.4971 28.2815C24.2834 28.5665 24.0697 28.9226 23.856 29.1364C23.4998 29.4926 23.1436 29.8487 22.7161 30.1337C22.5737 30.2762 22.36 30.3474 22.2175 30.4186C22.075 30.4899 22.0038 30.5611 21.8613 30.6324C21.8613 30.1337 22.0038 29.635 22.1463 29.0651ZM21.7188 33.0544C21.8613 32.7695 22.0038 32.5558 22.2175 32.3421C22.36 32.1283 22.5737 31.9146 22.7161 31.7009C23.0723 31.2735 23.4285 30.9173 23.856 30.5611C24.0697 30.4186 24.3546 30.2049 24.5683 30.0625L24.782 29.92H25.067V29.9912H25.2807C25.2807 30.3474 25.2095 30.7036 25.067 31.0598V30.9885C24.9245 31.416 24.7108 31.8434 24.4971 32.1996C24.3546 32.4845 24.1409 32.7695 23.856 32.9832C23.4998 33.3394 23.1436 33.6243 22.7161 33.8381L22.4312 33.9805L22.2175 34.1942C22.075 34.3367 21.9325 34.5504 21.7188 34.6929V34.7641C21.5051 35.1203 21.0777 35.2628 20.6503 35.1916C20.9352 34.408 21.2914 33.6956 21.7188 33.0544ZM21.6476 36.3314V36.2601C21.7901 36.1177 21.9325 35.904 22.1463 35.7615C22.2887 35.619 22.5024 35.4765 22.6449 35.4053C22.8586 35.2628 23.0723 35.1203 23.286 35.0491C23.286 35.9752 23.0723 36.9725 22.6449 37.8274C22.5024 38.1123 22.36 38.3973 22.1463 38.6822C22.0038 38.8247 21.8613 39.0384 21.6476 39.1809V39.2521C21.5051 39.3946 21.2914 39.5371 21.0777 39.6796C20.864 40.2495 20.5078 40.7481 20.0091 41.1043C20.0091 39.3946 20.579 37.6849 21.6476 36.3314ZM18.6556 28.9939C18.7268 28.7802 18.7981 28.4952 18.9406 28.2815C19.083 28.3527 19.1543 28.424 19.2255 28.5665V28.4952C19.5817 28.9227 19.7954 29.4926 19.8666 30.0625V30.1337C19.9379 30.4186 20.0091 30.7036 20.0803 30.9885C19.9379 31.9859 20.3653 33.3394 19.8666 34.4792C19.7954 34.6217 19.7242 34.7641 19.6529 34.9066C19.5105 34.6929 19.368 34.4792 19.2255 34.2655C19.0118 33.8381 18.7981 33.4106 18.6556 32.912V32.9832C18.2282 31.6297 18.2282 30.2762 18.6556 28.9939ZM16.5185 35.9752C16.5185 35.5478 16.5897 35.1203 16.6609 34.6217C17.0884 34.6929 17.5158 34.9779 17.7295 35.4053C17.9432 35.7615 18.0857 36.1177 18.2994 36.4026C18.4419 36.83 18.5844 37.2575 18.7268 37.6137V37.5424C19.0118 38.611 19.083 39.7508 18.8693 40.8194L18.7268 40.6056V40.6769C18.3706 40.2495 18.0857 39.822 17.8007 39.3946C16.9459 38.4685 16.5185 37.2575 16.5185 35.9752ZM17.7295 45.5923C16.6609 44.4525 16.0198 43.0277 15.8773 41.4605C16.2335 40.8906 16.6609 41.6742 17.0171 41.8167C17.2308 42.0304 17.5158 42.3153 17.7295 42.6003C18.0857 43.0277 18.3706 43.5264 18.6556 44.0251C18.8693 44.4525 19.083 44.9511 19.2255 45.4498V45.521C19.368 45.9485 19.4392 46.4471 19.5104 46.8746L19.2255 47.0883V47.017L19.1543 47.0883C19.0118 46.9458 18.7981 46.8033 18.6556 46.5896C18.2994 46.3047 18.0145 45.9485 17.7295 45.5923ZM19.8666 52.0037C19.6529 51.8612 19.4392 51.6475 19.2255 51.505C19.0118 51.3625 18.7981 51.1488 18.6556 51.0064C18.2994 50.6502 18.0145 50.294 17.7295 49.9378C17.3021 49.3679 16.9459 48.798 16.6609 48.2281C16.8747 47.7294 17.3733 47.8719 17.7295 48.0856L18.0145 48.2281L18.6556 48.6555C18.8693 48.798 19.0118 48.9405 19.2255 49.0829C19.4392 49.2966 19.6529 49.5104 19.8666 49.7241C20.579 50.5077 21.2202 51.4338 21.5763 52.5023C21.0064 52.5023 20.3653 52.2886 19.8666 52.0037ZM22.6449 57.4178C22.5024 57.3465 22.2887 57.2753 22.1463 57.1328L21.6476 56.8478C21.0064 56.4204 20.3653 55.9218 19.8666 55.4231V55.4943L19.368 55.0669C19.2967 54.9957 19.2255 54.9244 19.2255 54.8532C18.8693 54.497 18.9406 54.2121 19.2255 54.2121C19.2255 54.2121 19.5817 54.1408 19.8666 54.2121C19.8666 54.2121 19.8666 54.2121 19.9379 54.2121C20.5078 54.3545 21.2202 54.7107 21.7188 54.9244V54.8532C21.8613 54.9244 22.0038 54.9957 22.2175 55.0669C22.36 55.1381 22.5737 55.2806 22.7161 55.3519C23.1436 55.5656 23.4998 55.9218 23.856 56.2067C24.0697 56.4204 24.2834 56.6341 24.4971 56.8478L24.7108 57.0616C24.9957 57.489 25.067 57.489 24.4971 57.5602H23.856V57.6315C23.4285 57.7027 23.0011 57.5602 22.6449 57.4178ZM28.1302 62.1907C27.2754 62.1907 26.4205 62.0482 25.5657 61.7633C25.5657 61.7633 25.2095 61.5495 24.9958 61.4783C24.9958 61.4783 24.5683 61.2646 24.4258 61.1933C24.2121 61.0509 23.9984 60.9084 23.7847 60.7659C23.7847 60.7659 23.2148 60.2673 22.9299 59.9823C23.2148 59.9111 23.4998 59.8398 23.7847 59.7686C23.7847 59.7686 24.2121 59.6974 24.4258 59.6974C24.6396 59.6974 24.9958 59.7686 24.9958 59.7686C25.2095 59.7686 25.3519 59.8398 25.5657 59.9111C26.563 60.196 27.4891 60.6235 28.3439 61.1221L28.6289 61.3358L29.4125 62.0482C29.1275 62.1194 28.9138 62.1194 28.6289 62.1907C28.4152 62.1907 28.2727 62.1907 28.1302 62.1907ZM30.1961 65.5389C29.6262 65.3964 29.1275 65.2539 28.6289 64.969L28.4152 64.8265C27.9877 64.5415 27.774 64.4703 28.3439 64.2566L28.6289 64.1141C29.1275 63.9716 29.6262 63.9004 30.1961 63.8291C30.3386 63.8291 30.5523 63.8291 30.6948 63.8291C31.4784 63.8291 32.262 63.9716 33.0456 64.1853C33.3306 64.2566 33.5443 64.399 33.8292 64.5415L34.0429 64.684C34.6841 65.1114 34.4704 65.1114 33.8292 65.3251C33.5443 65.3964 33.3306 65.4676 33.0456 65.5389C32.547 65.6101 32.0483 65.6813 31.6209 65.6813C31.1222 65.6813 30.6948 65.6101 30.1961 65.5389ZM33.8292 68.9583C33.5443 68.887 33.2593 68.8158 33.0456 68.6733C32.6182 68.4596 32.262 68.1034 32.0483 67.676L32.1195 67.3198C32.4045 67.391 32.6894 67.4623 32.9744 67.6047C33.2593 67.7472 33.5443 67.8897 33.758 68.1034C34.1142 68.3884 34.3991 68.7445 34.6129 69.172C34.3279 69.1007 34.043 69.0295 33.8292 68.9583ZM37.8898 69.8844C37.0349 70.1693 36.9637 69.172 36.5363 69.0295C36.3226 69.0295 36.1088 69.0295 35.9664 69.172L35.1828 68.1747C35.6814 68.1034 36.1801 68.1746 36.6075 68.4596L36.8212 68.6021L37.8898 69.8844ZM40.3119 69.2432C39.9557 69.172 39.5995 69.0295 39.2433 68.8158V68.887C38.7446 68.6021 38.3172 68.1746 37.961 67.7472L37.8898 67.676L37.961 67.6047C38.1035 67.5335 38.1747 67.5335 38.3172 67.5335C38.6734 67.5335 38.9584 67.676 39.2433 67.8185L39.457 67.9609C39.8132 68.1746 40.0982 68.4596 40.3119 68.8158C40.3831 68.9583 40.5256 69.1007 40.5968 69.2432H40.3119ZM41.3092 71.879C41.238 72.0215 41.0243 72.164 40.953 72.164L41.0955 70.7392H41.3092C41.4517 70.8105 41.4517 70.8817 41.5942 70.9529C41.5942 71.3091 41.5229 71.5941 41.3092 71.879ZM43.3039 68.1034C42.9477 68.6021 42.449 68.9583 41.8791 69.2432H41.8079C41.6654 68.9583 41.5229 68.7446 41.3092 68.5308V68.4596C41.0243 68.1034 40.5968 67.7472 40.3119 67.4623C39.9557 67.1773 39.5995 66.9636 39.1721 66.7499C38.8871 66.6074 38.5309 66.4649 38.1747 66.4649H37.8898C37.3199 66.5362 36.9637 67.0348 36.6075 67.3198C36.465 67.391 36.3938 67.4623 36.1801 67.4623C35.9664 67.4623 35.7527 67.391 35.4677 67.1061C34.8978 67.3198 34.3279 67.3198 33.8292 66.9636C33.6155 66.8924 33.4018 66.7499 33.1881 66.6074L33.8292 66.3225L35.8239 65.4676C36.1088 65.6101 36.3938 65.7526 36.6075 65.8238C37.0349 65.9663 37.4624 66.1088 37.8898 66.2512C38.3172 66.3937 38.7446 66.4649 39.1721 66.5362C39.5283 66.6074 39.8844 66.6787 40.1694 66.6787L41.238 66.8211L41.8079 66.8924L43.3039 67.0348L43.7313 67.1061C43.7313 67.5335 43.5888 67.8897 43.3039 68.1034ZM71.8702 35.9039C71.8702 35.9039 71.8702 35.8327 71.9414 35.8327C72.0127 35.7615 72.0127 35.619 72.0839 35.5478C72.7963 34.408 73.0812 34.6217 73.0812 36.0464C73.01 37.0438 72.7963 37.9698 72.3689 38.8247C72.2264 39.1809 72.0127 39.4658 71.799 39.822C71.5852 40.2495 71.3003 40.6056 70.9441 40.9618V40.8906C70.8729 40.9618 70.7304 41.0331 70.5879 41.1043V40.8906C70.5167 40.3919 70.5167 39.8933 70.5879 39.3234C70.6592 38.8247 70.7304 38.2548 70.9441 37.7561V37.6137C71.2291 37.0438 71.5852 36.4739 71.8702 35.9039ZM69.8043 29.4926L69.9468 29.2788C70.0892 28.9939 70.303 28.7089 70.5167 28.4952V28.5665C70.5879 28.4952 70.6592 28.4952 70.7304 28.424C70.8729 28.424 70.9441 28.4952 71.0866 28.7802C71.1578 29.0651 71.2291 29.2788 71.3003 29.5638C71.514 30.7036 71.4428 31.8434 71.0866 32.9832V33.1257C71.0153 33.3394 70.8729 33.5531 70.8016 33.7668C70.7304 33.9093 70.6592 34.0518 70.5167 34.1942C70.5167 34.1942 70.5167 34.1942 70.5167 34.2655C70.3742 34.4792 70.2317 34.6929 70.018 34.9066L69.9468 34.7641C69.0919 33.3394 69.3769 31.0598 69.8043 29.4926ZM64.034 25.717C63.9628 25.3608 63.8916 25.0758 63.8916 24.7909C63.9628 24.7196 63.9628 24.6484 64.034 24.6484C64.1053 24.6484 64.1053 24.5772 64.1765 24.5772C64.3902 24.5772 64.5327 24.7196 64.7464 24.8621C64.8889 24.9333 64.9601 25.0758 65.1026 25.147C66.2424 26.3581 67.0973 27.8541 67.5959 29.4926V29.635C67.7384 29.9912 67.8096 30.3474 67.8809 30.7036C67.8096 30.7748 67.6672 30.7748 67.5959 30.7748V30.7036C67.311 30.6324 67.026 30.2762 66.7411 30.1337C65.9575 29.4213 65.3163 28.5665 64.8177 27.6404V27.4979C64.3902 26.928 64.1765 26.3581 64.034 25.717ZM64.6752 31.416C64.4615 30.9885 64.319 30.5611 64.2477 30.0625C64.3902 30.0625 64.5327 30.1337 64.6039 30.1337C65.2451 30.3474 65.815 30.7036 66.3137 31.2023C66.7411 31.7009 67.0973 32.1996 67.5247 32.6983V32.7695C68.1658 33.5531 68.5933 34.408 68.807 35.4053C68.3796 35.1203 67.9521 34.8354 67.5247 34.5504V34.4792C66.3849 33.6243 65.3876 32.627 64.6752 31.416ZM66.3849 35.0491C66.8123 35.2628 67.2397 35.5478 67.5959 35.9039V35.9752C69.0207 37.2575 69.7331 39.2521 69.5194 41.1755C68.9495 40.3207 68.2371 39.6083 67.5959 38.7535V38.6822C66.6698 37.6849 66.2424 36.4026 66.3849 35.0491ZM68.9494 46.8033C68.3795 46.0197 67.8809 45.1649 67.5247 44.2388C67.1685 43.3839 66.9548 42.4578 66.9548 41.603C66.9548 41.1043 67.026 40.6769 67.2397 40.3207C67.311 40.3919 67.4535 40.5344 67.5247 40.6056C69.0919 42.2441 69.6618 44.595 68.9494 46.8033ZM66.2424 46.6609C66.5986 45.2361 67.0973 45.4498 67.5247 46.8033L67.5959 46.9458C68.0234 48.2281 68.0234 49.5816 67.5247 50.7926C67.3822 51.2913 67.1685 51.79 66.8836 52.2174C66.3137 51.5763 66.5986 50.294 65.9575 49.5104C65.9575 48.5843 66.0287 47.5869 66.2424 46.6609ZM64.034 52.5736C64.1053 52.2174 64.2478 51.79 64.4615 51.4338C64.5327 51.2913 64.6039 51.0776 64.7464 50.9351C64.8889 50.7214 65.0314 50.5789 65.1026 50.5789C65.3163 50.5789 65.4588 50.9351 65.6725 51.6475C66.0287 52.9298 65.4588 54.497 64.7464 55.7793C64.5327 56.1355 64.319 56.4917 64.034 56.8478L63.8916 56.9903H63.7491C63.6066 55.6368 63.6779 54.0696 64.034 52.5736ZM61.1133 56.2779L61.2558 56.0642C62.3243 54.782 62.823 54.5682 62.538 56.4917C62.3243 57.6315 61.8257 58.6288 61.1133 59.5549C60.6859 60.1248 60.116 60.6947 59.5461 61.1933C59.831 59.4836 60.116 57.6315 61.1133 56.2779ZM54.7731 62.9743C55.2006 61.9057 55.8417 60.9084 56.6966 60.1248V60.0536C57.0528 59.7686 57.3377 59.4836 57.6939 59.2699C58.5487 58.7 58.9762 58.6288 58.5487 59.8398C58.1925 60.9084 57.4802 61.8345 56.6253 62.5469C56.1979 62.9743 55.6992 63.3305 55.1293 63.6154C54.2032 64.3278 54.4169 63.9004 54.7731 62.9743ZM46.652 59.7686L46.7233 59.9111C47.2932 60.481 47.2219 61.5495 47.0795 62.4044L46.7233 63.0455L46.652 63.188L46.2958 62.8318C46.2246 61.8345 45.8684 60.481 46.652 59.7686ZM45.9397 65.6813C46.1534 65.3251 46.4383 65.1114 46.7233 64.8977C46.937 64.7552 47.2219 64.684 47.5069 64.684C47.3644 65.0402 47.0795 65.2539 46.7233 65.4676C46.5096 65.5389 46.2246 65.6101 45.9397 65.6813ZM49.1454 72.2352C48.9316 72.0927 48.7179 71.879 48.6467 71.5941L48.7179 70.7392C48.9316 70.7392 49.0029 70.8817 49.0741 70.9529V71.0242C49.2166 71.3803 48.8604 71.9502 49.5728 72.2352C49.4303 72.3064 49.2878 72.3064 49.1454 72.2352ZM50.8551 69.0295C50.4989 69.3145 49.929 69.4569 49.4303 69.5282C49.644 68.887 50.1427 68.3171 50.7838 68.0322C50.9975 67.8897 51.2112 67.7472 51.425 67.676C51.6387 67.7472 51.9236 67.6047 52.0661 67.8185C51.7812 68.2459 51.3537 68.6733 50.8551 69.0295ZM53.4909 69.6706C53.1347 69.8844 52.7072 70.0268 52.2086 70.0981C51.9949 69.4569 52.921 68.9583 53.3484 68.5308L53.4909 68.4596C53.8471 68.2459 54.3457 68.1747 54.7731 68.1747C54.4882 68.8158 54.0608 69.3145 53.4909 69.6706ZM53.5621 67.3198L53.3484 67.5335C53.1347 67.1773 52.921 66.6787 52.4223 66.6074C51.9236 66.6074 51.425 66.6787 50.9263 66.8211C50.9263 66.8211 50.9263 66.8211 50.8551 66.8211C50.2139 67.1061 49.5728 67.5335 49.1454 68.0322V68.1034C48.8604 68.5308 48.5042 68.8158 48.2905 69.172L48.2193 69.3145C47.6494 68.9583 47.1507 68.5308 46.7945 68.0322V67.9609C46.5808 67.7472 46.4383 67.4623 46.3671 67.1773H46.7945C47.3644 67.1773 47.8631 67.1061 48.3617 67.0348L49.1454 66.8924C49.7153 66.8211 50.2852 66.6787 50.8551 66.4649C51.7811 66.18 52.636 65.895 53.5621 65.6101V65.5389L53.8471 65.4676C54.7731 65.9663 55.6992 66.3225 56.7678 66.4649V66.5362H56.9103C56.9103 66.6074 56.7678 66.6787 56.6966 66.7499C56.4116 67.0348 55.9129 67.1773 55.5568 67.4623C54.9869 66.7499 54.2032 67.391 53.5621 67.3198ZM56.6253 69.0295C56.1979 69.2432 55.7705 69.3145 55.343 69.3857C55.628 68.8158 56.0554 68.3884 56.6253 67.9609C56.9815 67.676 57.5514 67.5335 58.0501 67.6047C57.6939 68.2459 57.1952 68.7446 56.6253 69.0295ZM61.1845 65.2539C61.0421 65.3251 60.6859 65.4676 60.4722 65.5389C60.116 65.6813 59.831 65.7526 59.4748 65.8238V65.895C58.5487 66.0375 57.5514 65.9663 56.6966 65.7526V65.6813C56.1267 65.5389 55.628 65.3964 55.1293 65.1114C55.628 64.8265 56.1267 64.5415 56.6253 64.399C57.4089 64.1853 58.1213 64.0429 58.9762 64.0429C59.1186 64.0429 59.3324 64.0429 59.4748 64.0429C59.9023 64.0429 60.4009 64.1141 60.8283 64.2566L61.1133 64.3278C61.8969 64.6128 61.7544 64.9689 61.1845 65.2539ZM65.6013 61.1221C65.3163 61.3358 65.0314 61.4783 64.7464 61.6208C64.5327 61.7633 64.2478 61.8345 64.034 61.9057C63.8916 61.977 63.7491 61.977 63.5354 62.0482C62.7518 62.2619 61.8969 62.3332 61.1133 62.2619C60.8283 62.2619 60.6146 62.1907 60.3297 62.1907C60.5434 61.977 60.8283 61.692 61.042 61.4783C61.7544 60.9084 62.6093 60.4097 63.5354 60.1248C63.6778 60.0535 63.8203 59.9823 63.9628 59.9823C64.1765 59.9823 64.3902 59.9111 64.6039 59.9111H65.3163C67.026 59.9111 66.8123 60.2673 65.6013 61.1221ZM69.9468 54.3545C70.1605 54.2833 70.3742 54.3545 70.4454 54.4258V54.497C70.4454 54.5682 70.4454 54.5682 70.4454 54.6395C70.303 54.9957 70.1605 55.2806 69.8755 55.4943V55.5656C69.2344 56.2779 68.4508 56.8478 67.5959 57.204C66.8836 57.6315 66.1712 57.8452 65.3876 57.8452C65.1738 57.8452 64.9601 57.8452 64.7464 57.7739C65.53 56.7766 66.5274 55.9218 67.5959 55.2806C68.2371 54.9244 68.8782 54.6395 69.5194 54.497C69.6618 54.4258 69.8043 54.3545 69.9468 54.3545ZM71.8702 48.4418C72.8675 48.0144 73.2237 48.5843 72.2976 49.8666C72.1552 50.009 72.0127 50.1515 71.8702 50.3652V50.294C71.5852 50.5789 71.3003 50.8639 71.0153 51.1488V51.2201L70.6591 51.505V51.4338L70.4454 51.5763C70.303 51.7187 70.0893 51.8612 69.8755 51.9324C69.3056 52.3599 68.6645 52.6448 68.0234 52.8585C68.3796 51.7187 69.0207 50.7214 69.8755 49.8666C70.018 49.6528 70.2317 49.5104 70.4454 49.3679L70.6591 49.2254L71.0153 48.9405V49.0117L71.3003 48.798C71.514 48.5843 71.6565 48.513 71.8702 48.4418ZM71.0153 46.5896L70.6591 46.7321C70.5879 46.8033 70.5167 46.8746 70.3742 46.8746L70.018 47.0883C70.018 46.4471 70.1605 45.8772 70.3742 45.3073C70.4454 45.0936 70.5167 44.8799 70.5879 44.7374C70.6592 44.5237 70.8016 44.2388 70.9441 44.0251V44.0963C71.1578 43.6689 71.4428 43.2414 71.799 42.8853C72.0127 42.6003 72.2976 42.3153 72.6538 42.1016C73.9361 41.0331 73.8648 41.8167 73.5087 43.1702C73.1525 44.1675 72.5826 45.0936 71.8702 45.8772C71.5852 46.0909 71.3003 46.3759 71.0153 46.5896ZM71.0153 33.0544V33.1257C71.0153 33.0544 71.0866 33.0544 71.0153 33.0544ZM71.0153 33.0544V33.1257C71.0153 33.0544 71.0866 33.0544 71.0153 33.0544ZM71.0153 33.0544V33.1257C71.0153 33.0544 71.0866 33.0544 71.0153 33.0544ZM71.0153 33.0544V33.1257C71.0153 33.0544 71.0866 33.0544 71.0153 33.0544ZM71.0153 33.0544V33.1257C71.0153 33.0544 71.0866 33.0544 71.0153 33.0544ZM71.0153 33.0544V33.1257C71.0153 33.0544 71.0866 33.0544 71.0153 33.0544ZM71.0153 33.0544V33.1257C71.0153 33.0544 71.0866 33.0544 71.0153 33.0544ZM71.0153 33.0544V33.1257C71.0153 33.0544 71.0866 33.0544 71.0153 33.0544ZM71.0153 33.0544V33.1257C71.0153 33.0544 71.0866 33.0544 71.0153 33.0544Z" fill="#B0B0B0"/>
<path d="M50.9942 46.2334L49.8544 47.3732C49.7119 47.4444 49.6406 47.5157 49.5694 47.6581C49.4269 47.9431 49.4982 48.2993 49.7831 48.4418C48.2159 50.3652 46.7199 51.3625 45.9363 49.4391C46.7911 48.6555 46.8624 47.6582 45.7225 46.3046L45.6513 42.1728C46.0788 41.5317 46.3637 40.6056 46.7911 40.6056C49.4269 40.4631 48.2871 38.5397 46.5062 39.5371L45.9363 38.7534C46.15 38.4685 46.2925 38.1835 46.2925 37.8273C46.2925 37.0437 45.6513 36.4026 44.8677 36.4026C44.5115 36.4026 44.1553 36.4738 43.9416 36.7588L43.8704 36.83C43.3717 37.3999 43.4429 38.2548 43.9416 38.8247C44.0841 38.9671 44.2266 39.0384 44.4403 39.1096L44.369 39.3946L44.2978 39.8932L43.9416 40.0357L43.158 40.2494C41.7333 40.4631 41.5908 40.8193 42.2319 41.318L44.0128 41.2468H44.2978V42.0304L43.9416 42.3153L43.3717 42.7427C42.1607 44.0963 42.3031 45.4498 43.9416 46.8033V48.8692C42.873 47.5157 41.4483 48.0143 42.0894 48.798C46.2925 50.5789 41.3771 50.8639 40.451 48.1568L40.8071 47.7294L39.5249 46.6608L38.8837 46.7321L38.8125 48.7267H39.3824L40.2373 50.1515L43.8704 52.0749L44.0841 52.1461L44.8677 53.0722L46.15 51.9324C47.9309 51.505 49.4982 50.3652 50.4955 48.798L51.1366 48.7267L50.9942 46.2334ZM44.1553 45.521C44.0841 45.4498 44.0128 45.4498 44.0128 45.3785V45.3073C43.6567 44.8799 43.6567 44.31 44.0128 43.8826C44.0841 43.8113 44.1553 43.6688 44.2978 43.5976L44.1553 45.521Z" fill="#B0B0B0"/>
<path d="M41.8051 3.06311L39.8104 3.27683L40.3091 7.12366C40.3804 7.40861 40.3091 7.69357 40.0954 7.97852C39.8817 8.19223 39.5967 8.3347 39.3118 8.3347C39.0268 8.40594 38.7419 8.33471 38.4569 8.12099C38.2432 7.90728 38.1007 7.62233 38.1007 7.33738L37.6021 3.49054L35.6074 3.70425L36.1061 7.47985C36.1773 7.83604 36.2486 8.19223 36.391 8.54842C36.5335 8.83337 36.676 9.04708 36.8897 9.2608C37.1034 9.47451 37.3884 9.61698 37.6021 9.75946C37.887 9.8307 38.2432 9.90194 38.5282 9.90194C38.8844 9.90194 39.2406 9.90193 39.5967 9.8307C40.0954 9.75946 40.5228 9.61698 40.9503 9.47451C41.2352 9.33203 41.4489 9.11832 41.6626 8.83337C41.8763 8.54842 42.0188 8.26347 42.0901 7.90728C42.1613 7.55109 42.1613 7.1949 42.1613 6.83871L41.8051 3.06311Z" fill="#5E6278"/>
<path d="M29.0539 6.76751L28.484 6.34009L26.5605 7.19494V7.76484L26.9167 13.9625L28.7689 13.1789L28.6264 12.1103L28.9826 11.9679L30.7636 11.1843L31.4759 12.0391L33.3994 11.1843L29.0539 6.76751ZM28.9114 10.4719L28.4127 10.6856L28.1278 8.26351L29.695 10.1157L28.9114 10.4719Z" fill="#5E6278"/>
<path d="M22.9969 9.11848V9.04724L21.4297 10.1158L22.9969 12.5379V12.4667L24.8491 15.4586L26.4876 14.4613V14.3901L23.1394 9.04724L22.9969 9.11848Z" fill="#5E6278"/>
<path d="M11.4577 32.4843C11.3864 32.2706 11.2439 31.9856 11.0302 31.7719C10.8165 31.5582 10.6028 31.4157 10.3891 31.3445H10.1754C9.81918 31.202 9.463 31.2733 9.10681 31.3445C8.75062 31.5582 8.5369 31.8432 8.39443 32.1281C8.39443 31.8432 8.3232 31.5582 8.18072 31.3445C7.96701 31.0596 7.68205 30.8458 7.32586 30.7746C7.18339 30.7034 6.96968 30.7034 6.75597 30.7034C6.47102 30.7034 6.25731 30.7746 6.04359 30.9171C5.61617 31.202 5.33121 31.6295 5.18873 32.1281L4.19141 35.69L6.61349 36.4024L9.10681 37.0435L10.3891 37.3997L11.3152 34.1228C11.3152 33.9803 11.3864 33.6954 11.4577 33.2679C11.5289 32.983 11.5289 32.7693 11.4577 32.4843ZM7.3971 33.6241L7.1834 34.479L6.68473 34.4077L5.97235 34.194L6.2573 33.3392C6.32853 33.1255 6.39977 32.9117 6.61349 32.7693C6.68472 32.7693 6.75597 32.698 6.75597 32.698H6.96967C7.11215 32.7693 7.25463 32.8405 7.3971 32.983C7.46834 33.1967 7.46834 33.4104 7.3971 33.6241ZM9.89043 34.194L9.60548 35.1913L9.03556 35.0489L8.32319 34.8352L8.60816 33.8378C8.67939 33.5529 8.82187 33.3392 8.96434 33.1967C9.03558 33.1967 9.03557 33.1255 9.10681 33.1255H9.463C9.67671 33.1967 9.81919 33.2679 9.89043 33.4816C9.96166 33.7666 9.96166 33.9803 9.89043 34.194Z" fill="#5E6278"/>
<path d="M48.1442 6.69633L45.9359 2.99196L44.0837 2.84949L43.6562 9.26088L45.5797 9.33212L45.7934 5.84147L47.9305 9.54584L49.7827 9.68831L50.2814 3.27692L48.4292 3.13444L48.1442 6.69633Z" fill="#5E6278"/>
<path d="M10.3171 25.0044L9.17733 24.9331L8.25125 24.7906L7.25391 26.7141L9.17733 28.78L10.3884 30.1335L11.8131 31.7007L12.7392 29.9198L11.9556 29.1362L12.9529 27.1415L14.0215 27.3552L14.9476 25.503L10.3171 25.0044ZM10.9583 28.2101L10.3884 27.7114L9.17733 26.5716L11.5994 26.999L10.9583 28.2101Z" fill="#5E6278"/>
<path d="M17.2292 19.163L13.9523 16.5272L12.67 18.0232L14.451 19.448L13.0975 21.1577L11.3165 19.7329L10.3904 20.8727L10.1055 21.3001L10.3904 21.5139L15.0921 25.2895L16.3744 23.7222L14.3085 22.155L15.662 20.4453L17.2292 21.7276L17.7279 22.0838L18.8677 20.659L18.939 20.5165L18.8677 20.4453L17.2292 19.163Z" fill="#5E6278"/>
<path d="M22.9986 14.9599L22.6424 14.8174C22.4999 14.7462 22.3574 14.7462 22.1437 14.6749C22.0012 14.6749 21.8588 14.6037 21.7163 14.6037C21.5026 14.6037 21.3601 14.6749 21.1464 14.7462C21.2889 14.5325 21.4313 14.3187 21.5026 14.105C21.7875 13.1077 21.2176 12.0391 20.2915 11.7542C19.9354 11.683 19.6504 11.683 19.2942 11.8254C19.1517 11.8967 19.0093 11.9679 18.938 12.0391C18.6531 12.1816 18.4394 12.3953 18.1544 12.609L15.5898 14.7462L17.2995 16.7408L18.938 18.6643L19.7216 19.6616L21.2889 18.3793L19.5792 16.3846L19.7216 16.2422C19.8641 16.0997 20.0066 16.0285 20.2203 16.0285C20.434 16.0285 20.6477 16.0997 20.7902 16.1709L22.8561 16.9545L22.9986 16.8121V16.7408L24.5658 15.4586L22.9986 14.9599ZM19.7216 14.4612C19.6504 14.6037 19.5079 14.7462 19.3654 14.8886L18.8668 15.3161L18.7243 15.3873L17.8695 14.39L18.5106 13.8201C18.5818 13.7488 18.7243 13.6776 18.7955 13.6064C18.938 13.5351 19.0093 13.4639 19.1517 13.4639C19.5079 13.4639 19.7216 13.7488 19.7216 14.105C19.8641 14.2475 19.7929 14.39 19.7216 14.4612Z" fill="#5E6278"/>
<path d="M62.1085 6.76749L61.2537 6.48254L61.1112 6.4113L60.1851 6.05511L57.1931 9.83071L57.5493 4.98655L55.5547 4.27417V11.113L57.5493 11.8966L61.1112 7.9073L62.1085 6.76749Z" fill="#5E6278"/>
<path d="M80.5597 24.0784L79.4912 22.3687L78.3514 23.081L75.9293 24.5058V24.577L74.0059 25.7168L75.0032 27.4265L75.9293 26.8566L78.3514 25.4319L80.5597 24.0784Z" fill="#5E6278"/>
<path d="M50.7812 9.9732L52.7759 10.4006L54.2007 4.20294L52.2772 3.77551L50.7812 9.9732Z" fill="#5E6278"/>
<path d="M75.3581 23.5796C75.5718 23.3659 75.7856 23.1522 75.928 22.8673V22.796V22.7248C76.0705 22.3686 76.0705 22.0124 75.9993 21.6562C75.9993 21.585 75.928 21.5137 75.928 21.4425C75.7143 20.8726 75.5006 20.3739 75.2869 19.8753C75.1444 19.6616 75.0732 19.4479 75.0732 19.1629C75.0732 19.0917 75.1444 18.9492 75.2157 18.878C75.3581 18.8067 75.5006 18.7355 75.6431 18.8067C75.7856 18.8779 75.928 18.9492 76.0705 19.0917V19.1629C76.4267 19.5191 76.4267 20.0178 76.1418 20.3739C76.1418 20.3739 76.1417 20.3739 76.0705 20.4452L77.3528 21.7987C77.7802 21.4425 77.9939 20.8726 77.9939 20.3027C77.9227 19.6616 77.6377 19.0204 77.1391 18.5218C76.8541 18.0943 76.4979 17.8094 76.0705 17.5244L75.928 17.4532C75.5719 17.2395 75.2157 17.1682 74.8595 17.2395C74.5033 17.2395 74.2183 17.382 73.9334 17.5957C73.5772 17.8806 73.3635 18.308 73.2922 18.8067C73.2922 19.5191 73.5059 20.1602 73.8621 20.7301C74.0758 21.0151 74.1471 21.3713 74.2183 21.7275C74.2183 21.8699 74.1471 22.0837 74.0046 22.1549C73.8621 22.2974 73.6484 22.2974 73.5059 22.2974C73.2922 22.2261 73.0785 22.0836 72.9361 21.9412C72.7223 21.7275 72.5799 21.3713 72.7223 21.0151C72.7936 20.8014 72.9361 20.5877 73.0785 20.3739L72.2237 19.4479L71.7962 19.0204C71.3688 19.4479 71.0126 20.0178 70.9414 20.5877C70.9414 21.3713 71.2976 22.1549 71.8675 22.7248L72.2237 23.081C72.5086 23.3659 72.7936 23.5796 73.0785 23.7221C73.4347 23.9358 73.8621 24.0071 74.2896 23.9358C74.6458 24.0071 75.0019 23.8646 75.3581 23.5796Z" fill="#5E6278"/>
<path d="M78.35 31.1309L81.4132 29.8486L82.1969 31.772L83.6929 31.1309L81.4132 25.5743L79.9172 26.1442L80.7009 28.0677L78.35 28.9938V28.9225L76.2129 29.8486L76.9253 31.7008L78.35 31.0597V31.1309Z" fill="#5E6278"/>
<path d="M85.0469 36.6162L82.6248 35.9038L84.477 34.1229L83.9071 31.9857L80.9151 35.2627L78.3505 35.9038H78.2793L78.3505 36.26L78.7067 37.8985L81.3425 37.1861L85.6168 38.7533L85.0469 36.6162Z" fill="#5E6278"/>
<path d="M73.0785 14.4612C72.7936 14.1051 72.5086 13.7489 72.0812 13.4639L70.4427 12.0392L69.5879 11.3268L66.7384 14.7462L65.5273 16.2422L66.7384 17.2395V17.3108L67.0233 17.5245L68.733 15.5298L68.8755 15.6723C69.018 15.8148 69.0892 15.9572 69.1605 16.0997V16.7409L68.733 18.878L70.4427 20.3027L70.5852 19.7328V19.5904L70.8702 18.2368C70.8702 18.0944 70.9414 17.8807 70.9414 17.7382V17.3108C70.8702 17.097 70.7989 17.0258 70.7989 16.8833C70.8702 16.9546 71.0127 16.9546 71.2976 17.0258C71.5826 17.097 71.8675 17.0258 72.1524 16.9546C72.4374 16.8121 72.7224 16.6696 72.9361 16.3847C73.1498 16.0997 73.3635 15.7435 73.3635 15.3873C73.3635 15.0311 73.221 14.7462 73.0785 14.4612ZM71.1551 15.2449C71.0839 15.3161 70.9414 15.4586 70.7989 15.4586C70.6565 15.4586 70.514 15.4586 70.4427 15.3873H70.3715C70.229 15.3161 70.1578 15.2449 70.0153 15.1736L69.3742 14.6037L70.229 13.6064L70.3715 13.7489L70.8702 14.1763C71.0839 14.3188 71.2264 14.5325 71.2976 14.7462C71.2976 14.9599 71.2976 15.1024 71.1551 15.2449Z" fill="#5E6278"/>
<path d="M62.4631 12.7516L63.1043 11.683L65.8825 13.179L66.5237 12.0392L63.8166 10.5432L64.3153 9.61711L66.6661 10.8994L67.236 11.2556L67.8772 10.1158L66.6661 9.4034L63.1755 7.47998L61.1096 11.1131V11.1843L61.0383 11.2556L60.041 13.1078L61.0383 13.6064V13.6777L64.814 15.6723L65.5263 14.39L62.4631 12.7516Z" fill="#5E6278"/>
<path d="M45.154 12.7516H44.7266C44.7978 12.6091 44.9403 12.4666 45.0115 12.2529H45.154C45.154 12.4666 45.154 12.6091 45.154 12.7516Z" fill="#B0B0B0"/>
<path d="M46.792 19.7329C46.792 19.6616 46.792 19.5904 46.792 19.5192C46.792 19.4479 46.792 19.3767 46.792 19.3055C46.792 19.163 46.7208 19.0205 46.7208 18.8068C46.7208 18.7356 46.6496 18.6643 46.6496 18.5931L46.5071 18.3794C46.5071 18.3081 46.4358 18.2369 46.4358 18.2369L46.3646 18.0944C46.3646 18.0232 46.2934 17.9519 46.2934 17.8807C46.2221 17.7382 46.2221 17.5958 46.1509 17.4533C46.0797 17.3108 46.0084 17.1683 46.0084 16.9546C45.9372 16.8121 45.9372 16.6697 45.8659 16.4559C45.7947 16.3135 45.7947 16.171 45.7235 16.0285L45.6522 15.7436C45.6522 15.6723 45.581 15.6011 45.581 15.5299L45.5098 15.0312L45.4385 14.8175L45.3673 14.3188C45.3673 14.1763 45.2961 14.0339 45.2961 13.8201C45.2248 13.6777 45.2248 13.5352 45.2248 13.3215V13.1078C45.2248 12.9653 45.2248 12.8228 45.2248 12.6091H45.1536V12.3954C45.1536 12.2529 45.1536 12.1104 45.1536 11.8967C45.0823 12.0392 44.9399 12.1817 44.8686 12.3954C44.7974 12.5379 44.7262 12.6803 44.5837 12.8941C44.5124 12.9653 44.5124 13.0365 44.4412 13.1078L44.37 13.2502C44.37 13.2502 44.3699 13.3215 44.2987 13.3215L44.1562 13.5352C44.085 13.6777 44.0138 13.8201 43.9425 14.0339C43.9425 14.1051 43.8713 14.1763 43.8713 14.2476C43.8713 14.3188 43.8001 14.39 43.8001 14.4613C43.7288 14.6038 43.6576 14.7462 43.6576 14.96C43.6576 15.0312 43.5863 15.1024 43.5863 15.1737C43.5863 15.2449 43.5151 15.3161 43.5151 15.3874C43.5151 15.4586 43.4439 15.5299 43.4439 15.6011C43.3726 15.7436 43.3726 15.886 43.3014 16.0285L43.1589 16.5272C43.1589 16.6697 43.0877 16.7409 43.0877 16.8834C43.0877 17.0258 43.0164 17.0971 43.0164 17.2396C43.0164 17.382 42.9452 17.4533 42.9452 17.5957C42.9452 17.667 42.9452 17.7382 42.874 17.8807C42.874 18.0232 42.8027 18.0944 42.8027 18.2369V18.4506V18.6643C42.8027 18.7356 42.8027 18.8068 42.8027 18.9493C42.8027 19.0205 42.8027 19.0205 42.8027 19.0917V19.163C42.8027 19.2342 42.8027 19.3055 42.8027 19.3055V19.3767C42.8027 19.3767 42.8027 19.3767 42.8027 19.4479C42.8027 19.5192 42.8027 19.5904 42.8027 19.6616C42.8027 19.7329 42.8027 19.8041 42.8027 19.8754C42.8027 19.8754 42.8027 19.8754 42.8027 19.9466C42.8027 20.0178 42.8027 20.0891 42.874 20.1603C42.874 20.2315 42.9452 20.3028 42.9452 20.374C42.9452 20.4453 43.0164 20.4453 43.0164 20.5165C43.0164 20.5877 43.0164 20.5877 43.0877 20.659L43.1589 20.7302C43.1589 20.8014 43.2301 20.8014 43.2301 20.8727C43.3014 20.9439 43.3014 21.0152 43.3726 21.0864C43.5151 21.3001 43.6576 21.4426 43.8713 21.5138C44.2987 21.7275 44.7261 21.7988 45.1536 21.6563C45.3673 21.5851 45.6522 21.4426 45.8659 21.3001C45.9372 21.2289 46.0084 21.1576 46.0797 21.0864C46.1509 21.0152 46.1509 20.9439 46.2221 20.8727C46.2221 20.8014 46.2934 20.8014 46.2934 20.7302L46.3646 20.659C46.4359 20.5877 46.4358 20.5165 46.4358 20.4453C46.4358 20.374 46.4358 20.374 46.5071 20.3028V20.2315V20.1603C46.5071 20.0891 46.5071 20.0891 46.5783 20.0178C46.792 19.9466 46.792 19.8754 46.792 19.7329C46.792 19.8041 46.792 19.8041 46.792 19.7329Z" fill="#B0B0B0"/>
<path d="M45.1542 12.2529H45.0117L45.1542 12.0392V12.2529Z" fill="#B0B0B0"/>
<path d="M40.3081 26.9991C40.3081 27.2128 40.3081 27.3553 40.2368 27.569C40.1656 27.7114 40.0943 27.8539 40.0231 27.9964V28.0676L39.9519 27.9964C39.9519 27.8539 39.9519 27.7114 39.9519 27.569C39.9519 27.1415 39.8806 26.3579 39.7382 25.0757C39.7382 24.9332 39.6669 24.6482 39.5957 24.1496C39.6669 23.9358 39.8094 23.7221 39.8806 23.5084C40.0231 24.4345 40.0944 25.2181 40.1656 25.9305C40.2368 26.4292 40.3081 26.7854 40.3081 26.9991Z" fill="#B0B0B0"/>
<path d="M38.8844 27.4978H36.9609V26.9279H38.5282L38.1007 24.0071L37.9583 23.9359C37.9583 23.651 38.0295 23.366 38.1007 23.0811L38.172 23.1523C38.172 23.2948 38.2432 23.4372 38.3857 23.4372L38.7419 23.5797C38.7419 23.7934 38.7419 24.0071 38.6706 24.2209L38.5282 24.1496L38.9556 26.8567L38.8844 27.4978Z" fill="#B0B0B0"/>
<path d="M37.1736 27.4978H36.7462C36.6037 27.4978 36.39 27.4265 36.2475 27.3553C36.1051 27.2841 35.9626 27.1416 35.8913 26.9991C35.5352 27.2841 35.0365 27.4978 34.5378 27.4265H34.1816V26.8566H34.6091C34.9653 26.8566 35.3927 26.7854 35.6776 26.5717L35.5352 26.358C35.4639 26.2867 35.3927 26.2867 35.3214 26.2155C35.2502 26.2155 35.179 26.2867 35.1077 26.358H35.0365V26.1443C35.0365 25.9305 35.1077 25.7168 35.2502 25.5744C35.4639 25.5031 35.6776 25.4319 35.8201 25.4319C36.0338 25.4319 36.2475 25.4319 36.39 25.5031C36.6037 25.5744 36.7462 25.7168 36.7462 25.9305C36.7462 26.073 36.675 26.1443 36.6037 26.2155C36.5325 26.358 36.39 26.4292 36.2475 26.5717C36.3188 26.6429 36.39 26.7142 36.4612 26.7142C36.5325 26.7854 36.6037 26.7854 36.7462 26.7854H37.1736V27.4978Z" fill="#B0B0B0"/>
<path d="M34.3254 27.4978H31.832V26.9279H33.2568L32.8294 24.0071L32.6157 23.9359C32.6157 23.651 32.6869 23.366 32.7581 23.0811L32.8294 23.1523C32.8294 23.2948 32.9006 23.4372 33.0431 23.4372L33.3993 23.5797C33.3993 23.7934 33.3993 24.0071 33.328 24.2209L33.1856 24.1496L33.613 26.9279H34.3254V27.4978Z" fill="#B0B0B0"/>
<path d="M31.0486 26.5004C31.191 26.6429 31.2623 26.7142 31.4048 26.7854C31.6185 26.8566 31.7609 26.8566 31.9746 26.8566V27.4265H30.9773C30.6924 27.4265 30.4074 27.4265 30.1225 27.4978C29.695 27.569 29.4813 27.7115 29.4813 27.9252C29.4813 28.0677 29.4813 28.2814 29.5526 28.4239L29.695 28.9938C29.7663 29.1362 29.7663 29.35 29.7663 29.4924C29.7663 29.6349 29.7663 29.8486 29.695 29.9911L29.5526 29.4212C29.4813 29.2075 29.4101 28.9225 29.3388 28.5663C29.2676 28.3526 29.2676 28.2102 29.1964 27.9964C29.1251 27.4978 29.4101 27.0703 29.9088 26.9279C30.1937 26.8566 30.4787 26.7854 30.8348 26.7854C30.7636 26.7142 30.6924 26.6429 30.5499 26.5004C30.4787 26.4292 30.3362 26.358 30.1937 26.358C30.0512 26.358 29.8375 26.5004 29.7663 26.6429L29.6238 26.5717C29.7663 26.1443 30.0512 25.9305 30.3362 25.9305C30.4787 25.9305 30.6211 26.0018 30.7636 26.073C30.8348 26.2867 30.9061 26.358 31.0486 26.5004Z" fill="#B0B0B0"/>
<path d="M47.7898 27.9253L48.0035 28.139V27.9965C48.0747 27.854 48.146 27.7116 48.2172 27.5691C48.2884 27.3554 48.3597 27.2129 48.3597 26.9992C48.3597 26.7855 48.3597 26.4293 48.2884 25.9306C48.2172 25.2182 48.146 24.4346 48.0035 23.5085H47.7898C47.6473 23.7223 47.5761 24.0072 47.4336 24.1497L47.5048 24.5059C47.5761 24.7908 47.5761 25.0045 47.5761 25.0758C47.7185 26.3581 47.7898 27.1417 47.7898 27.5691C47.861 27.6403 47.861 27.7828 47.7898 27.9253Z" fill="#B0B0B0"/>
<path d="M60.9684 23.4373H60.7546C60.6122 23.7222 60.5409 23.9359 60.3984 24.0784C60.4697 24.4346 60.4697 24.6483 60.4697 24.862V25.0045C60.6122 26.2868 60.6834 27.0704 60.6834 27.4978C60.6834 27.569 60.6834 27.7115 60.6834 27.854V27.9252L60.8971 28.0677L60.9684 27.9252C61.0396 27.7828 61.1108 27.6403 61.1821 27.4978C61.2533 27.2841 61.3245 27.1416 61.3245 26.9279C61.3245 26.7142 61.3245 26.358 61.2533 25.8593C61.1821 25.147 61.1108 24.2921 60.9684 23.4373Z" fill="#B0B0B0"/>
<path d="M58.9031 25.5032C58.5469 25.5032 58.2619 25.5745 57.977 25.7882L57.4071 26.1444V26.0019C57.4783 25.7882 57.4783 25.6457 57.4783 25.432C57.4783 24.9333 57.4071 24.4347 57.2646 24.0072H57.3358V23.936C57.3358 23.8648 57.4071 23.7935 57.4071 23.651C57.4783 23.5086 57.4783 23.3661 57.4783 23.2236V23.1524H57.4071C57.1934 23.1524 56.9084 23.0811 56.8372 22.8674V22.9387L56.6947 23.0099C56.6947 23.0099 56.6947 23.0811 56.7659 23.0811C56.6947 23.2949 56.6235 23.5798 56.6235 23.7935H56.6947L56.6235 23.8648L56.7659 23.936C56.8372 24.1497 56.9084 24.2922 56.9084 24.4347C56.9797 24.8621 57.0509 25.0758 57.0509 25.2183C57.1221 25.5032 57.1221 25.7169 57.1221 26.0019C57.1221 26.2156 57.0509 26.4293 56.9797 26.5718L56.481 26.8567H55.27L54.9138 24.3634H54.985V24.2209C55.0562 24.0072 55.1275 23.7223 55.0562 23.5086V23.4373H54.985L54.6288 23.2949C54.4863 23.2236 54.4863 23.1524 54.4863 23.0811V23.0099L54.2726 22.8674L54.2014 23.0099C54.0589 23.2949 54.0589 23.5798 54.0589 23.936V24.0072L54.2726 24.0785L54.6288 26.8567H52.7054C52.7054 26.3581 52.6342 25.8594 52.4204 25.432C52.3492 25.3608 52.278 25.2895 52.2067 25.147L52.1355 25.2183L52.0643 25.147L51.7793 25.7169H51.8505L51.7793 25.7882C52.0642 26.0019 52.1355 26.3581 52.1355 26.7143H50.4258C50.4258 26.5006 50.3546 26.3581 50.2833 26.2156C50.1408 25.9307 49.9984 25.7169 49.7846 25.7169C49.7134 25.7169 49.6422 25.7169 49.5709 25.7882C49.4997 25.8594 49.4285 25.9307 49.4285 26.0731L49.286 26.3581L49.2147 26.5718C49.1435 26.643 49.1435 26.7855 49.1435 26.928C49.1435 27.1417 49.2147 27.3554 49.4285 27.4266C49.6422 27.4979 49.8559 27.5691 50.0696 27.5691C49.9271 27.9253 49.7846 28.2815 49.4997 28.4952C49.2147 28.7802 48.7873 28.9939 48.3599 28.9939C48.2886 28.9939 48.2174 28.9939 48.2174 28.9939L47.8612 28.8514L47.7188 28.9939L47.79 29.0651L47.7188 29.1364C48.2174 29.4925 48.3599 29.4925 48.5024 29.4925H48.9298L49.0723 29.4213C49.2147 29.3501 49.286 29.3501 49.3572 29.2788C49.5709 29.1364 49.7846 28.9226 49.9271 28.7089C50.0696 28.5664 50.1408 28.3527 50.2121 28.139C50.2833 27.9253 50.3545 27.7116 50.3545 27.4979H59.7579V27.4266H59.8292V26.5718C59.9716 25.9307 59.6154 25.5745 58.9031 25.5032ZM49.8559 26.7855C49.7134 26.7143 49.7134 26.7143 49.7134 26.7143C49.7134 26.7143 49.7134 26.7143 49.7134 26.643C49.7846 26.643 49.8559 26.7143 49.8559 26.7855ZM59.188 26.643C59.188 26.7143 58.9743 26.7855 58.4757 26.7855H57.4071L57.4783 26.7143C57.8345 26.5006 58.1907 26.4293 58.5469 26.3581H58.7606C59.1168 26.4293 59.1168 26.5006 59.188 26.643Z" fill="#B0B0B0"/>
<path d="M51.4941 28.4951L52.2065 28.9225L52.5627 28.2101L51.8503 27.7827L51.4941 28.4951Z" fill="#B0B0B0"/>
<path d="M61.1826 22.3687C61.2538 22.2262 61.2538 22.155 61.2538 22.0125C61.2538 22.0125 61.2538 22.0125 61.2538 21.9413C61.2538 21.7276 61.1113 21.5851 60.8976 21.5851C60.7551 21.5851 60.5414 21.6563 60.4702 21.7988C60.3277 21.9413 60.2565 22.0837 60.2565 22.2262C60.2565 22.3687 60.2565 22.5112 60.5414 22.6536C60.399 22.7961 60.2565 22.9386 60.114 23.0098C59.7578 23.2236 59.7578 23.2236 59.7578 23.2236C59.7578 23.2948 59.7578 23.366 59.8291 23.4373C59.9003 23.5085 59.9003 23.5085 59.9715 23.5085C60.114 23.5085 60.2565 23.4373 60.3989 23.366C60.6127 23.0811 60.8264 22.9386 60.9689 22.7249L61.1113 22.7961V22.7249L61.1826 22.7961L61.3963 22.4399L61.1826 22.3687ZM60.8976 22.155C60.8264 22.155 60.7551 22.0837 60.7551 22.0125C60.8264 22.0125 60.8976 22.0125 60.8976 22.0125V22.155Z" fill="#B0B0B0"/>
<path d="M54.984 21.7275C54.984 21.585 54.9127 21.5138 54.7702 21.3713C54.6278 21.3001 54.4141 21.3001 54.2716 21.3713C54.1291 21.4425 53.9866 21.5138 53.9154 21.6562C53.8441 21.7987 53.9154 22.0124 54.0579 22.1549C53.9154 22.2262 53.7017 22.2974 53.488 22.2974C53.1318 22.3686 53.0605 22.3686 53.0605 22.4399V22.6536C53.1318 22.7248 53.1318 22.7961 53.203 22.7961C53.2742 22.7961 53.3455 22.7961 53.3455 22.7961C53.4167 22.7961 53.5592 22.7961 53.6304 22.7248C53.8442 22.6536 54.1291 22.5823 54.3428 22.4399L54.4853 22.5823L54.5565 22.5111L54.6278 22.5823L54.9127 22.2974L54.7702 22.1549C54.8415 22.0837 54.9127 22.0124 54.984 21.87C54.984 21.7987 54.984 21.7275 54.984 21.7275ZM54.4853 21.7987C54.4853 21.7987 54.4853 21.87 54.4141 21.87C54.3428 21.87 54.3428 21.7987 54.4141 21.7275L54.4853 21.7987Z" fill="#B0B0B0"/>
<path d="M52.7757 23.7935C52.7757 23.651 52.7044 23.5798 52.562 23.4373C52.4907 23.3661 52.4195 23.3661 52.277 23.3661C52.2058 23.3661 52.1345 23.3661 52.0633 23.4373C51.9208 23.5086 51.7784 23.5798 51.7071 23.7223C51.6359 23.8648 51.7071 24.0785 51.8496 24.2209C51.7071 24.2922 51.4934 24.3634 51.2797 24.3634C50.9235 24.4347 50.9235 24.4347 50.8523 24.4347C50.781 24.5059 50.781 24.5771 50.8523 24.6484C50.9235 24.6484 50.9235 24.6484 50.9947 24.7196C51.066 24.7196 51.066 24.7196 51.1372 24.7196H51.4221C51.7071 24.6484 51.9208 24.5771 52.1345 24.4347L52.277 24.5771L52.3483 24.5059L52.4195 24.5771L52.7044 24.3634L52.562 24.2209C52.6332 24.1497 52.7044 24.0785 52.7757 23.936C52.7757 23.8648 52.7757 23.7935 52.7757 23.7935ZM51.9921 24.0072C51.9921 24.0072 52.0633 24.0072 52.0633 24.0785L51.9921 24.0072ZM52.277 23.7223C52.1345 23.7935 52.1345 23.7223 52.2058 23.651H52.277V23.7223Z" fill="#B0B0B0"/>
<path d="M56.4091 22.2262C56.3379 22.2262 56.3379 22.2262 56.4091 22.2262L56.4804 22.5111C56.6941 22.4399 56.979 22.4399 57.1927 22.3687H57.264C57.264 22.3687 57.264 22.3687 57.3352 22.2974L57.1927 22.0837C57.1215 22.0125 57.0503 21.9412 56.979 21.87H57.0503L56.6941 21.6563L56.3379 21.3713V21.7275C56.6941 22.0837 57.1927 22.0837 56.4091 22.2262Z" fill="#B0B0B0"/>
<path d="M48.9999 24.3633C48.9286 24.3633 48.9286 24.3633 48.9999 24.3633L49.0711 24.5771C49.2848 24.5058 49.5698 24.5058 49.7835 24.4346H49.8547C49.8547 24.4346 49.8547 24.4346 49.8547 24.3633L49.7123 24.1496C49.641 24.0784 49.5698 24.0072 49.4986 23.9359H49.5698L49.2848 23.7222C49.2136 23.651 49.0711 23.5797 48.8574 23.4373V23.7934C49.2136 24.2209 49.7123 24.2209 48.9999 24.3633Z" fill="#B0B0B0"/>
<path d="M40.3099 26.9991C40.3099 27.2128 40.3099 27.3553 40.2387 27.569C40.1675 27.7114 40.0962 27.8539 40.025 27.9964V28.1389L39.8113 27.9964V27.9252C39.8113 27.7827 39.8113 27.6402 39.8113 27.569C39.8113 27.1415 39.74 26.3579 39.5976 25.0757C39.5976 25.0044 39.5976 24.7907 39.5263 24.5057L39.4551 24.1496C39.5263 23.9358 39.6688 23.7221 39.8113 23.5084H40.025C40.1674 24.3633 40.2387 25.2181 40.3099 25.9305C40.3099 26.3579 40.3099 26.7141 40.3099 26.9991Z" fill="#B0B0B0"/>
<path d="M39.0289 27.6403H36.7493C36.3931 27.6403 36.1082 27.4978 35.8944 27.2128C35.5383 27.4978 35.0396 27.6403 34.5409 27.6403H32.0476H30.9078C30.6229 27.6403 30.3379 27.6403 30.0529 27.7115C29.6968 27.7827 29.483 27.9252 29.483 28.0677C29.483 28.2102 29.4831 28.3526 29.5543 28.5664L29.6968 29.1363C29.768 29.2787 29.768 29.4924 29.768 29.7062C29.768 29.8486 29.768 30.0623 29.6968 30.2048H29.483L29.3406 29.6349C29.2693 29.4212 29.1981 29.2075 29.1269 28.8513V28.7801C29.0556 28.5663 29.0556 28.4239 28.9844 28.2102C28.9844 27.9965 29.0556 27.7115 29.1981 27.4978C29.3406 27.2841 29.5543 27.1416 29.8392 27.0704C30.0529 26.9991 30.3379 26.9279 30.5516 26.9279L30.4091 26.7854C30.3379 26.7142 30.2667 26.7142 30.1242 26.6429C30.0529 26.6429 29.9105 26.7142 29.768 26.8566L29.6968 26.9279L29.4118 26.7142V26.6429C29.6255 26.1443 29.9105 25.9306 30.2667 25.9306C30.4804 25.9306 30.6228 26.0018 30.7653 26.073C30.9078 26.2155 30.979 26.2867 31.1215 26.4292C31.1927 26.5717 31.3352 26.6429 31.4777 26.7142C31.5489 26.7142 31.6914 26.7854 31.7627 26.7854H33.1874L32.8312 24.0071L32.6175 23.9359V23.8647C32.6175 23.5797 32.6888 23.2235 32.76 22.9386L32.8312 22.7961L33.0449 22.9386V23.0098C33.0449 23.081 33.0449 23.1523 33.1874 23.2235L33.5436 23.366H33.6148V23.5085C33.6148 23.7222 33.6148 24.0071 33.5436 24.2209V24.2921H33.4724L33.8286 26.7854H34.1135H34.6834C35.0396 26.7854 35.3245 26.7142 35.6095 26.5717L35.5383 26.4292C35.5383 26.358 35.467 26.358 35.3958 26.358C35.3245 26.358 35.3245 26.358 35.2533 26.4292H35.0396V26.1443C35.0396 25.9306 35.1108 25.6456 35.3246 25.5031C35.5383 25.4319 35.752 25.3607 35.9657 25.3607C36.1794 25.3607 36.3931 25.3607 36.6068 25.4319C36.8205 25.5031 37.0343 25.7168 37.0343 25.9306C37.0343 26.073 36.963 26.2155 36.8918 26.2867C36.8205 26.358 36.7493 26.4292 36.6068 26.5717H36.6781C36.7493 26.5717 36.8205 26.6429 36.8918 26.6429H37.4617V26.7142H38.459L38.1028 23.9359L37.8891 23.8647V23.7934C37.8891 23.5085 37.9603 23.1523 38.0316 22.8673L38.1028 22.7249L38.3165 22.8673V22.9386C38.3165 23.0098 38.3165 23.081 38.459 23.1523L38.8152 23.2948H38.8864V23.5085C38.8864 23.7222 38.8864 24.0071 38.8152 24.2209L38.744 24.2921H38.6727L39.0289 26.7854V27.6403Z" fill="#B0B0B0"/>
<path d="M34.1123 29.4924C34.041 29.5636 34.041 29.7061 34.041 29.8486L35.6795 29.2075C35.822 29.1362 35.8932 28.9937 35.8932 28.78L34.4684 29.3499C34.2547 29.2787 34.1835 29.3499 34.1123 29.4924Z" fill="#B0B0B0"/>
<path d="M30.4079 24.2208L28.9831 24.7907C28.9119 24.862 28.7694 24.9332 28.6982 25.0044C28.627 25.0757 28.627 25.2182 28.627 25.2894L30.2654 24.6483C30.3367 24.6483 30.4079 24.4345 30.4079 24.2208Z" fill="#B0B0B0"/>
<path d="M37.4619 22.2262H37.3906C37.3906 22.2262 37.3906 22.2262 37.3906 22.2974L37.5331 22.5111C37.7468 22.4399 38.0318 22.4399 38.2455 22.3687H38.3167C38.3167 22.3687 38.3167 22.3687 38.3879 22.2974C38.3167 22.1549 38.2455 22.0837 38.2455 22.0837C38.1742 22.0125 38.103 21.9412 38.0318 21.87H38.103L37.8181 21.6563C37.7468 21.585 37.6043 21.5138 37.3906 21.3713V21.7275C37.6756 22.0837 38.1742 22.0837 37.4619 22.2262Z" fill="#B0B0B0"/>
<path d="M32.618 22.1549C32.5468 22.1549 32.5468 22.1549 32.618 22.1549C32.5468 22.2973 32.618 22.2973 32.6892 22.3686C32.903 22.2973 33.1879 22.2973 33.4016 22.2261H33.4729C33.4729 22.2261 33.4729 22.2261 33.4729 22.1549L33.3304 21.9411C33.2591 21.8699 33.1879 21.7987 33.1167 21.7274H33.1879L32.8317 21.5137L32.4043 21.2288V21.5849C32.8317 22.0836 33.3304 22.0124 32.618 22.1549Z" fill="#B0B0B0"/>
<path d="M41.9492 22.5111L42.8753 23.6509H46.366L47.577 22.5111H41.9492ZM43.1603 24.0783L43.7302 24.7907H45.7961L46.5084 24.0783H43.1603ZM43.6589 25.2894L44.0151 26.0018H45.3686L45.8673 25.2894H43.6589ZM45.5823 28.7088L45.6536 26.5004H44.2288C44.1576 26.9991 44.4425 28.2814 44.3001 28.7088C43.9439 29.5636 44.5138 29.9911 45.0124 29.9911H45.0837C45.5111 29.9911 45.8673 29.5636 45.5823 28.7088Z" fill="#B0B0B0"/>
</svg>
