<svg width="361" height="254" viewBox="0 0 361 254" fill="none" xmlns="http://www.w3.org/2000/svg">
<path d="M284.138 104.561H336.592H350.634L339.802 112.377V127.754C339.802 129.527 338.365 130.965 336.592 130.965H284.138C282.365 130.965 280.928 129.527 280.928 127.754V107.771C280.928 105.998 282.365 104.561 284.138 104.561Z" fill="#F5F5F5"/>
<path d="M286.91 115.429C286.91 115.495 296.939 115.546 309.31 115.546C321.681 115.546 331.71 115.495 331.71 115.429C331.71 115.364 321.681 115.313 309.31 115.313C296.939 115.313 286.91 115.364 286.91 115.429Z" fill="#E0E0E0"/>
<path d="M286.91 121.333C286.91 121.398 296.939 121.449 309.31 121.449C321.681 121.449 331.71 121.398 331.71 121.333C331.71 121.267 321.681 121.216 309.31 121.216C296.939 121.216 286.91 121.272 286.91 121.333Z" fill="#E0E0E0"/>
<path d="M183.148 47.814H180.035V58.2393H183.148V47.814Z" fill="#E0E0E0"/>
<path d="M157.154 46.3066H154.041V58.2393H157.154V46.3066Z" fill="#E0E0E0"/>
<path d="M163.654 43.8193H160.541V58.2393H163.654V43.8193Z" fill="#E0E0E0"/>
<path d="M170.15 44.6079H167.037V58.2392H170.15V44.6079Z" fill="#E0E0E0"/>
<path d="M176.646 39.9973H173.533V58.2393H176.646V39.9973Z" fill="#E0E0E0"/>
<path d="M189.644 40.0859H186.531V58.2393H189.644V40.0859Z" fill="#E0E0E0"/>
<path d="M196.144 46.05H193.031V58.2394H196.144V46.05Z" fill="#E0E0E0"/>
<path d="M202.64 40.884H199.527V58.2394H202.64V40.884Z" fill="#E0E0E0"/>
<path d="M209.14 36.978H206.027V58.2394H209.14V36.978Z" fill="#E0E0E0"/>
<path d="M215.636 40.7954H212.523V58.2394H215.636V40.7954Z" fill="#E0E0E0"/>
<path d="M297.63 57.2734L323.367 53.3394C325.523 67.4561 315.681 80.8494 301.564 83.0054C287.447 85.1614 274.054 75.3194 271.898 61.2028C269.742 47.0861 279.584 33.6928 293.701 31.5368C295.95 31.1914 298.232 31.1448 300.491 31.3968L297.63 57.2734Z" fill="#EBEBEB"/>
<path d="M305.978 31.4807L302.852 51.4307L322.433 47.7534C322.438 47.7487 319.558 36.572 305.978 31.4807Z" fill="#E0E0E0"/>
<path d="M34.8591 105.667C34.7471 98.6016 40.3797 92.7589 47.4124 92.6423C54.4497 92.5303 60.2644 98.1863 60.3764 105.252C60.4884 112.317 54.8557 118.16 47.8231 118.276C40.7857 118.388 34.9711 112.732 34.8591 105.667ZM53.7171 105.359C53.6611 101.98 50.8844 99.2736 47.5197 99.3296C44.1551 99.3856 41.4624 102.176 41.5184 105.555C41.5744 108.934 44.3511 111.64 47.7157 111.584C51.0804 111.533 53.7731 108.738 53.7171 105.359Z" fill="#F5F5F5"/>
<path d="M34.8591 105.667C34.7471 98.6014 40.3797 92.7588 47.4124 92.6421L47.5197 99.3294C44.1551 99.3854 41.4624 102.176 41.5184 105.555C41.5744 108.933 44.3511 111.64 47.7157 111.584L47.8231 118.271C40.7857 118.388 34.9711 112.732 34.8591 105.667Z" fill="#E0E0E0"/>
<path d="M46.2695 91.6109C54.5015 91.4802 61.0675 97.8642 61.1982 106.134L53.4095 106.26C53.3442 102.307 50.3389 99.8149 46.4049 99.8802L46.2695 91.6109Z" fill="#EBEBEB"/>
<path d="M117.758 150.672H101.537V169.955H117.758V150.672Z" fill="#F5F5F5"/>
<path d="M102.102 149.412H28.8027V171.163H102.102V149.412Z" fill="#E0E0E0"/>
<path d="M118.249 151.241H100.133V149.412H118.249C118.753 149.412 119.163 149.823 119.163 150.327C119.163 150.835 118.753 151.241 118.249 151.241Z" fill="#E0E0E0"/>
<path d="M118.249 171.164H100.133V169.334H118.249C118.753 169.334 119.163 169.745 119.163 170.249C119.163 170.758 118.753 171.164 118.249 171.164Z" fill="#E0E0E0"/>
<path d="M96.3391 149.412H87.6777V171.163H96.3391V149.412Z" fill="#EBEBEB"/>
<path d="M44.4309 149.655H35.7695V171.406H44.4309V149.655Z" fill="#EBEBEB"/>
<path d="M117.758 153.859C117.758 153.911 114.249 153.957 109.918 153.957C105.587 153.957 102.078 153.915 102.078 153.859C102.078 153.808 105.587 153.761 109.918 153.761C114.249 153.761 117.758 153.808 117.758 153.859Z" fill="#E0E0E0"/>
<path d="M117.758 156.753C117.758 156.804 114.249 156.851 109.918 156.851C105.587 156.851 102.078 156.809 102.078 156.753C102.078 156.701 105.587 156.655 109.918 156.655C114.249 156.655 117.758 156.697 117.758 156.753Z" fill="#E0E0E0"/>
<path d="M117.758 160.313C117.758 160.365 114.249 160.411 109.918 160.411C105.587 160.411 102.078 160.369 102.078 160.313C102.078 160.262 105.587 160.215 109.918 160.215C114.249 160.215 117.758 160.257 117.758 160.313Z" fill="#E0E0E0"/>
<path d="M117.758 163.869C117.758 163.921 114.249 163.967 109.918 163.967C105.587 163.967 102.078 163.925 102.078 163.869C102.078 163.818 105.587 163.771 109.918 163.771C114.249 163.776 117.758 163.818 117.758 163.869Z" fill="#E0E0E0"/>
<path d="M117.758 167.43C117.758 167.481 114.249 167.528 109.918 167.528C105.587 167.528 102.078 167.486 102.078 167.43C102.078 167.379 105.587 167.332 109.918 167.332C114.249 167.337 117.758 167.379 117.758 167.43Z" fill="#E0E0E0"/>
<path d="M83.0196 158.354H50.0449V162.269H83.0196V158.354Z" fill="#EBEBEB"/>
<path d="M117.594 171.593H101.125V183.343H117.594V171.593Z" fill="#FAFAFA"/>
<path d="M101.313 171.163H31.2285V183.763H101.313V171.163Z" fill="#F5F5F5"/>
<path d="M100.799 172.017H118.499C118.733 172.017 118.924 171.826 118.924 171.593C118.924 171.359 118.733 171.168 118.499 171.168H100.799V172.017Z" fill="#F5F5F5"/>
<path d="M100.799 183.768H118.728C118.835 183.768 118.924 183.679 118.924 183.572V183.11C118.924 183.003 118.835 182.914 118.728 182.914H100.799V183.768Z" fill="#F5F5F5"/>
<path d="M117.595 173.823C117.595 173.875 113.951 173.921 109.452 173.921C104.953 173.921 101.309 173.879 101.309 173.823C101.309 173.772 104.953 173.725 109.452 173.725C113.946 173.725 117.595 173.772 117.595 173.823Z" fill="#E0E0E0"/>
<path d="M117.595 176.045C117.595 176.096 113.951 176.143 109.452 176.143C104.953 176.143 101.309 176.101 101.309 176.045C101.309 175.993 104.953 175.947 109.452 175.947C113.946 175.951 117.595 175.993 117.595 176.045Z" fill="#E0E0E0"/>
<path d="M117.595 178.271C117.595 178.322 113.951 178.369 109.452 178.369C104.953 178.369 101.309 178.327 101.309 178.271C101.309 178.219 104.953 178.173 109.452 178.173C113.946 178.173 117.595 178.215 117.595 178.271Z" fill="#E0E0E0"/>
<path d="M117.595 180.492C117.595 180.543 113.951 180.59 109.452 180.59C104.953 180.59 101.309 180.548 101.309 180.492C101.309 180.441 104.953 180.394 109.452 180.394C113.946 180.394 117.595 180.436 117.595 180.492Z" fill="#E0E0E0"/>
<path d="M120.091 184.888H103.281V216.738H120.091V184.888Z" fill="#EBEBEB"/>
<path d="M103.282 183.768H24.3828V218.301H103.282V183.768Z" fill="#E0E0E0"/>
<path d="M121.408 218.297H101.127V216.057H121.408C122.029 216.057 122.528 216.556 122.528 217.177C122.528 217.797 122.024 218.297 121.408 218.297Z" fill="#E0E0E0"/>
<path d="M122.015 186.003H101.127V183.763H122.015C122.3 183.763 122.528 183.992 122.528 184.277V185.49C122.528 185.775 122.295 186.003 122.015 186.003Z" fill="#E0E0E0"/>
<path d="M120.091 189.153C120.091 189.205 116.329 189.251 111.686 189.251C107.043 189.251 103.281 189.209 103.281 189.153C103.281 189.102 107.043 189.055 111.686 189.055C116.329 189.06 120.091 189.102 120.091 189.153Z" fill="#E0E0E0"/>
<path d="M120.091 193.241C120.091 193.293 116.329 193.339 111.686 193.339C107.043 193.339 103.281 193.297 103.281 193.241C103.281 193.19 107.043 193.143 111.686 193.143C116.329 193.143 120.091 193.185 120.091 193.241Z" fill="#E0E0E0"/>
<path d="M120.091 197.325C120.091 197.376 116.329 197.423 111.686 197.423C107.043 197.423 103.281 197.381 103.281 197.325C103.281 197.273 107.043 197.227 111.686 197.227C116.329 197.227 120.091 197.273 120.091 197.325Z" fill="#E0E0E0"/>
<path d="M120.091 201.408C120.091 201.459 116.329 201.506 111.686 201.506C107.043 201.506 103.281 201.464 103.281 201.408C103.281 201.357 107.043 201.31 111.686 201.31C116.329 201.315 120.091 201.357 120.091 201.408Z" fill="#E0E0E0"/>
<path d="M120.091 205.496C120.091 205.548 116.329 205.594 111.686 205.594C107.043 205.594 103.281 205.552 103.281 205.496C103.281 205.445 107.043 205.398 111.686 205.398C116.329 205.398 120.091 205.44 120.091 205.496Z" fill="#E0E0E0"/>
<path d="M120.091 209.579C120.091 209.631 116.329 209.677 111.686 209.677C107.043 209.677 103.281 209.635 103.281 209.579C103.281 209.528 107.043 209.481 111.686 209.481C116.329 209.481 120.091 209.528 120.091 209.579Z" fill="#E0E0E0"/>
<path d="M120.091 213.663C120.091 213.714 116.329 213.761 111.686 213.761C107.043 213.761 103.281 213.719 103.281 213.663C103.281 213.611 107.043 213.565 111.686 213.565C116.329 213.569 120.091 213.611 120.091 213.663Z" fill="#E0E0E0"/>
<path d="M51.3795 202.92V204.843C51.3795 207.157 50.2222 208.478 47.9915 208.478C45.7608 208.478 44.6035 207.157 44.6035 204.843V197.32C44.6035 195.005 45.7608 193.685 47.9915 193.685C50.2222 193.685 51.3795 195.005 51.3795 197.32V198.725H49.2328V197.175C49.2328 196.144 48.7802 195.752 48.0568 195.752C47.3335 195.752 46.8808 196.144 46.8808 197.175V204.987C46.8808 206.019 47.3335 206.392 48.0568 206.392C48.7802 206.392 49.2328 206.019 49.2328 204.987V202.92H51.3795Z" fill="#EBEBEB"/>
<path d="M52.5781 197.325C52.5781 195.01 53.7961 193.689 56.0268 193.689C58.2575 193.689 59.4755 195.01 59.4755 197.325V204.847C59.4755 207.162 58.2575 208.483 56.0268 208.483C53.7961 208.483 52.5781 207.162 52.5781 204.847V197.325ZM54.8508 204.987C54.8508 206.019 55.3035 206.411 56.0268 206.411C56.7501 206.411 57.2028 206.019 57.2028 204.987V197.18C57.2028 196.149 56.7501 195.757 56.0268 195.757C55.3035 195.757 54.8508 196.149 54.8508 197.18V204.987Z" fill="#EBEBEB"/>
<path d="M60.9414 193.853H63.2141V206.247H66.9521V208.315H60.9414V193.853Z" fill="#EBEBEB"/>
<path d="M67.7598 197.325C67.7598 195.01 68.9778 193.689 71.2084 193.689C73.4391 193.689 74.6571 195.01 74.6571 197.325V204.847C74.6571 207.162 73.4391 208.483 71.2084 208.483C68.9778 208.483 67.7598 207.162 67.7598 204.847V197.325ZM70.0324 204.987C70.0324 206.019 70.4851 206.411 71.2084 206.411C71.9318 206.411 72.3844 206.019 72.3844 204.987V197.18C72.3844 196.149 71.9318 195.757 71.2084 195.757C70.4851 195.757 70.0324 196.149 70.0324 197.18V204.987Z" fill="#EBEBEB"/>
<path d="M78.2969 193.853V205.011C78.2969 206.042 78.7495 206.415 79.4729 206.415C80.1962 206.415 80.6489 206.042 80.6489 205.011V193.853H82.7955V204.866C82.7955 207.181 81.6382 208.501 79.4075 208.501C77.1769 208.501 76.0195 207.181 76.0195 204.866V193.853H78.2969Z" fill="#EBEBEB"/>
<path d="M89.1003 208.315C88.9743 207.941 88.8949 207.717 88.8949 206.537V204.264C88.8949 202.92 88.4423 202.425 87.4063 202.425H86.6223V208.315H84.3496V193.853H87.7796C90.1363 193.853 91.1489 194.949 91.1489 197.18V198.314C91.1489 199.803 90.6729 200.773 89.6603 201.249C90.7989 201.725 91.1676 202.817 91.1676 204.329V206.56C91.1676 207.265 91.1863 207.778 91.4149 208.315H89.1003ZM86.6223 195.92V200.363H87.5089C88.3583 200.363 88.8716 199.989 88.8716 198.832V197.409C88.8716 196.377 88.5216 195.92 87.7143 195.92H86.6223Z" fill="#EBEBEB"/>
<path d="M50.8891 176.129H49.2324L49.3211 175.699H53.1244L53.0311 176.129H51.3791L50.5251 180.394H50.0351L50.8891 176.129Z" fill="#E0E0E0"/>
<path d="M56.317 176.866L53.741 180.852C53.307 181.524 52.9756 181.729 52.467 181.729C52.1403 181.729 51.8043 181.617 51.627 181.412L51.8836 181.062C52.0376 181.22 52.2383 181.318 52.509 181.318C52.8123 181.318 53.0456 181.178 53.321 180.749L53.5683 180.376L52.691 176.866H53.1716L53.9043 179.872L55.8316 176.866H56.317Z" fill="#E0E0E0"/>
<path d="M60.2362 178.327C60.2362 179.54 59.3916 180.427 58.2389 180.427C57.5669 180.427 57.1002 180.151 56.8949 179.657L56.4936 181.696H56.0176L56.9789 176.866H57.4362L57.3242 177.431C57.6602 177.057 58.1316 176.843 58.7009 176.843C59.6016 176.838 60.2362 177.403 60.2362 178.327ZM59.7556 178.355C59.7556 177.664 59.3309 177.253 58.5936 177.253C57.7162 177.253 57.0722 177.944 57.0722 178.91C57.0722 179.601 57.4969 180.002 58.2342 180.002C59.1116 180.007 59.7556 179.316 59.7556 178.355Z" fill="#E0E0E0"/>
<path d="M60.791 178.933C60.791 177.734 61.645 176.843 62.8303 176.843C63.8103 176.843 64.4357 177.421 64.4357 178.331C64.4357 179.54 63.5817 180.431 62.3963 180.431C61.4163 180.427 60.791 179.839 60.791 178.933ZM63.9597 178.355C63.9597 177.664 63.535 177.253 62.7977 177.253C61.9203 177.253 61.267 177.949 61.267 178.91C61.267 179.601 61.6917 180.002 62.429 180.002C63.3063 180.007 63.9597 179.316 63.9597 178.355Z" fill="#E0E0E0"/>
<path d="M69.001 176.866L68.385 179.965C68.1377 181.211 67.4797 181.729 66.3317 181.729C65.669 181.729 65.123 181.542 64.7637 181.197L65.0437 180.833C65.3237 181.122 65.7997 181.304 66.3643 181.304C67.2557 181.304 67.727 180.893 67.895 180.044L67.9743 179.652C67.6383 180.03 67.1623 180.259 66.565 180.259C65.6317 180.259 65.0063 179.717 65.0063 178.835C65.0063 177.701 65.8463 176.838 67.0177 176.838C67.6663 176.838 68.1937 177.104 68.3943 177.641L68.5437 176.861H69.001V176.866ZM68.1983 178.28C68.1983 177.636 67.7643 177.253 67.0317 177.253C66.1403 177.253 65.4963 177.911 65.4963 178.807C65.4963 179.451 65.9257 179.834 66.663 179.834C67.5497 179.839 68.1983 179.181 68.1983 178.28Z" fill="#E0E0E0"/>
<path d="M72.1135 176.838L72.0249 177.3C71.9782 177.3 71.9455 177.291 71.8895 177.291C71.1382 177.291 70.6342 177.72 70.4615 178.597L70.1069 180.389H69.6309L70.3309 176.861H70.7882L70.6669 177.505C70.9795 177.048 71.4415 176.838 72.1135 176.838Z" fill="#E0E0E0"/>
<path d="M76.1593 176.866L75.4546 180.394H74.9973L75.1093 179.839C74.7733 180.207 74.3066 180.427 73.7326 180.427C72.8273 180.427 72.1973 179.862 72.1973 178.933C72.1973 177.725 73.0419 176.843 74.1899 176.843C74.8619 176.843 75.3286 177.118 75.5293 177.608L75.6786 176.871H76.1593V176.866ZM75.3659 178.355C75.3659 177.664 74.9413 177.253 74.2039 177.253C73.3266 177.253 72.6733 177.949 72.6733 178.91C72.6733 179.601 73.0979 180.002 73.8353 180.002C74.7173 180.007 75.3659 179.316 75.3659 178.355Z" fill="#E0E0E0"/>
<path d="M80.7362 178.327C80.7362 179.54 79.8916 180.427 78.7389 180.427C78.0669 180.427 77.6002 180.151 77.3949 179.657L76.9936 181.696H76.5176L77.4789 176.866H77.9362L77.8242 177.431C78.1602 177.057 78.6316 176.843 79.2009 176.843C80.0969 176.838 80.7362 177.403 80.7362 178.327ZM80.2556 178.355C80.2556 177.664 79.8309 177.253 79.0936 177.253C78.2162 177.253 77.5722 177.944 77.5722 178.91C77.5722 179.601 77.9969 180.002 78.7342 180.002C79.6116 180.007 80.2556 179.316 80.2556 178.355Z" fill="#E0E0E0"/>
<path d="M85.0062 177.986C85.0062 178.112 84.9922 178.247 84.9642 178.387L84.5629 180.394H84.0869L84.4882 178.383C84.5069 178.271 84.5209 178.163 84.5209 178.061C84.5209 177.557 84.2175 177.267 83.6109 177.267C82.8595 177.267 82.3415 177.678 82.1735 178.499L81.8002 180.389H81.3242L82.3182 175.41H82.7942L82.3976 177.389C82.7336 177.006 83.2049 176.833 83.7462 176.833C84.5442 176.838 85.0062 177.267 85.0062 177.986Z" fill="#E0E0E0"/>
<path d="M89.4693 176.866L86.8933 180.852C86.4593 181.524 86.128 181.729 85.6193 181.729C85.2926 181.729 84.9566 181.617 84.7793 181.412L85.036 181.062C85.19 181.22 85.3906 181.318 85.6613 181.318C85.9646 181.318 86.198 181.178 86.4733 180.749L86.7206 180.376L85.8433 176.866H86.324L87.0566 179.872L88.984 176.866H89.4693Z" fill="#E0E0E0"/>
<path d="M100.1 31.8354H43.6376H28.5176L40.1796 40.2494V56.8021C40.1796 58.7108 41.7289 60.2601 43.6376 60.2601H100.1C102.008 60.2601 103.558 58.7108 103.558 56.8021V35.2934C103.558 33.3848 102.008 31.8354 100.1 31.8354Z" fill="#F5F5F5"/>
<path d="M97.1121 43.5347C97.1121 43.6047 86.3181 43.6607 72.9994 43.6607C59.6807 43.6607 48.8867 43.6047 48.8867 43.5347C48.8867 43.4647 59.6807 43.4087 72.9994 43.4087C86.3181 43.4087 97.1121 43.4647 97.1121 43.5347Z" fill="#E0E0E0"/>
<path d="M97.1121 49.8909C97.1121 49.9609 86.3181 50.0169 72.9994 50.0169C59.6807 50.0169 48.8867 49.9609 48.8867 49.8909C48.8867 49.8209 59.6807 49.7649 72.9994 49.7649C86.3181 49.7649 97.1121 49.8209 97.1121 49.8909Z" fill="#E0E0E0"/>
<path d="M348.361 218.297C348.361 218.362 275.174 218.418 184.911 218.418C94.6159 218.418 21.4473 218.362 21.4473 218.297C21.4473 218.231 94.6206 218.175 184.911 218.175C275.169 218.175 348.361 218.231 348.361 218.297Z" fill="#263238"/>
<path d="M317.645 194.478C317.645 194.478 305.274 180.24 300.607 166.002C295.94 151.764 298.157 153.397 298.157 153.397C298.157 153.397 304.457 167.229 309.245 173.907C314.028 180.59 322.55 190.39 322.55 190.39L317.645 194.478Z" fill="#455A64"/>
<path d="M320.109 155.619C319.707 154.923 318.648 155.283 318.765 156.076C319.521 161.079 321.149 172.811 321.084 180.427C321 190.315 321.089 194.137 321.089 194.137H326.236C326.236 194.137 325.321 173.697 324.159 167.463C323.347 163.095 321.616 158.241 320.109 155.619Z" fill="#455A64"/>
<path d="M322.918 192.476C322.918 192.476 326.157 185.663 327.155 177.104C327.58 173.464 326.824 168.545 325.699 161.979C325.153 158.801 325.032 156.379 325.051 154.704C325.065 153.435 326.735 153.024 327.356 154.13C327.977 155.241 329.778 159.025 330.231 161.401C331.477 167.883 332.891 171.121 331.808 177.272C330.73 183.423 326.74 192.891 326.74 192.891L322.918 192.476Z" fill="#455A64"/>
<path d="M327.552 192.891C327.552 192.891 341.132 163.701 342.074 159.375C343.017 155.045 346.218 145.067 346.592 145.632C346.97 146.197 347.534 151.47 345.084 157.495C342.639 163.519 332.186 193.783 332.186 193.783H327.547" fill="#455A64"/>
<path d="M321.43 191.585C321.425 191.594 321.294 191.501 321.047 191.324C320.804 191.141 320.44 190.885 319.997 190.521C319.092 189.812 317.822 188.729 316.348 187.301C313.384 184.454 309.693 180.063 306.496 174.654C303.29 169.245 301.134 163.958 299.772 160.085C299.09 158.148 298.591 156.562 298.269 155.456C298.101 154.905 297.989 154.476 297.91 154.182C297.83 153.888 297.793 153.734 297.802 153.734C297.812 153.729 297.868 153.878 297.966 154.168C298.068 154.48 298.204 154.9 298.376 155.423C298.731 156.515 299.258 158.088 299.968 160.015C301.377 163.86 303.556 169.12 306.748 174.505C309.936 179.89 313.58 184.281 316.497 187.151C317.948 188.598 319.194 189.695 320.076 190.432C320.51 190.81 320.865 191.081 321.094 191.277C321.318 191.473 321.434 191.575 321.43 191.585Z" fill="#263238"/>
<path d="M322.913 177.58C322.895 177.58 322.853 177.277 322.792 176.721C322.727 176.115 322.643 175.331 322.54 174.383C322.325 172.409 321.989 169.684 321.509 166.693C321.028 163.701 320.491 161.009 320.076 159.067C319.875 158.134 319.707 157.359 319.581 156.767C319.465 156.225 319.409 155.922 319.427 155.917C319.446 155.913 319.539 156.207 319.689 156.743C319.843 157.28 320.043 158.059 320.277 159.025C320.743 160.957 321.313 163.65 321.793 166.651C322.274 169.651 322.577 172.381 322.741 174.365C322.825 175.354 322.876 176.161 322.899 176.717C322.932 177.272 322.937 177.58 322.913 177.58Z" fill="#263238"/>
<path d="M326.097 153.897C326.106 153.892 326.162 154.023 326.256 154.265C326.358 154.541 326.494 154.9 326.662 155.348C326.844 155.819 327.049 156.398 327.245 157.084C327.446 157.77 327.707 158.54 327.903 159.422C328.01 159.861 328.122 160.318 328.239 160.794C328.351 161.27 328.435 161.779 328.538 162.297C328.762 163.333 328.897 164.457 329.06 165.638C329.326 168.004 329.471 170.622 329.387 173.375C329.275 176.124 328.944 178.728 328.51 181.071C328.262 182.237 328.043 183.348 327.749 184.365C327.609 184.874 327.492 185.373 327.343 185.845C327.194 186.311 327.049 186.759 326.909 187.189C326.648 188.052 326.335 188.803 326.083 189.471C325.836 190.143 325.588 190.707 325.378 191.16C325.178 191.594 325.019 191.944 324.893 192.21C324.781 192.448 324.716 192.574 324.706 192.569C324.697 192.565 324.744 192.434 324.842 192.187C324.954 191.916 325.094 191.557 325.276 191.113C325.472 190.651 325.705 190.082 325.934 189.41C326.167 188.738 326.47 187.982 326.718 187.119C326.848 186.689 326.988 186.241 327.133 185.775C327.273 185.308 327.385 184.809 327.52 184.3C327.805 183.283 328.01 182.177 328.253 181.015C328.668 178.681 328.995 176.091 329.102 173.361C329.186 170.627 329.051 168.023 328.804 165.666C328.645 164.49 328.519 163.375 328.309 162.339C328.211 161.821 328.136 161.317 328.029 160.841C327.917 160.365 327.814 159.907 327.712 159.469C327.53 158.591 327.282 157.817 327.096 157.131C326.914 156.44 326.722 155.857 326.564 155.381C326.414 154.923 326.298 154.559 326.209 154.279C326.125 154.037 326.088 153.901 326.097 153.897Z" fill="#263238"/>
<path d="M346.439 146.215C346.443 146.215 346.439 146.262 346.429 146.346C346.415 146.449 346.392 146.575 346.369 146.724C346.308 147.055 346.233 147.55 346.103 148.175C345.841 149.431 345.403 151.237 344.726 153.43C344.049 155.623 343.121 158.195 342.019 161.018C340.923 163.846 339.649 166.921 338.445 170.197C337.222 173.469 336.279 176.661 335.393 179.559C334.515 182.457 333.68 185.061 332.877 187.212C332.079 189.363 331.314 191.057 330.731 192.205C330.451 192.784 330.203 193.213 330.04 193.512C329.965 193.647 329.9 193.755 329.849 193.848C329.807 193.923 329.779 193.96 329.774 193.955C329.769 193.951 329.788 193.913 329.821 193.834C329.867 193.741 329.919 193.624 329.984 193.489C330.129 193.185 330.362 192.747 330.623 192.159C331.169 191.001 331.907 189.303 332.677 187.147C333.456 184.995 334.268 182.391 335.131 179.489C336.004 176.591 336.942 173.385 338.169 170.104C339.378 166.819 340.661 163.743 341.767 160.925C342.878 158.111 343.825 155.553 344.525 153.374C345.23 151.195 345.692 149.403 345.991 148.157C346.14 147.536 346.233 147.046 346.313 146.719C346.35 146.57 346.378 146.449 346.401 146.346C346.42 146.257 346.434 146.215 346.439 146.215Z" fill="#263238"/>
<path d="M304.56 139.766C303.706 138.917 302.283 139.803 302.638 140.961C302.997 142.132 303.543 143.644 304.346 145.347C306.212 149.314 311.696 163.552 314.267 171.373C316.834 179.19 320.45 193.778 320.45 193.778L325.934 192.887C325.934 192.887 320.917 168.919 316.017 160.281C312.074 153.346 308.135 143.322 304.56 139.766Z" fill="#455A64"/>
<path d="M315.761 176.264C315.78 176.259 315.878 176.493 316.046 176.922C316.209 177.351 316.428 177.981 316.676 178.761C317.18 180.324 317.8 182.508 318.421 184.935C319.042 187.361 319.56 189.569 319.919 191.174C320.082 191.93 320.222 192.569 320.33 193.073C320.423 193.521 320.46 193.773 320.442 193.778C320.423 193.783 320.344 193.54 320.218 193.097C320.082 192.597 319.914 191.967 319.714 191.221C319.294 189.573 318.743 187.403 318.132 185.005C317.511 182.583 316.923 180.394 316.47 178.817C316.256 178.075 316.074 177.449 315.929 176.95C315.808 176.516 315.742 176.269 315.761 176.264Z" fill="#263238"/>
<path d="M323.199 193.335C323.194 193.335 323.185 193.283 323.166 193.19C323.148 193.078 323.129 192.933 323.106 192.756C323.05 192.378 322.998 191.813 322.882 191.095C322.681 189.653 322.322 187.581 321.734 185.047C321.15 182.513 320.296 179.535 319.167 176.287C318.042 173.039 316.633 169.53 315.032 165.899C311.808 158.643 308.583 152.207 306.469 147.447C305.4 145.072 304.57 143.135 304.024 141.787C303.744 141.115 303.548 140.583 303.408 140.228C303.347 140.06 303.296 139.929 303.254 139.817C303.221 139.724 303.207 139.677 303.212 139.673C303.216 139.673 303.24 139.715 303.282 139.803C303.328 139.911 303.389 140.041 303.459 140.2C303.622 140.573 303.842 141.087 304.126 141.735C304.705 143.07 305.559 144.993 306.651 147.354C308.816 152.086 312.064 158.507 315.294 165.773C316.894 169.409 318.299 172.932 319.414 176.194C320.53 179.456 321.365 182.447 321.93 184.995C322.494 187.539 322.826 189.625 322.989 191.076C323.087 191.799 323.12 192.364 323.162 192.747C323.176 192.924 323.185 193.069 323.194 193.181C323.204 193.283 323.204 193.335 323.199 193.335Z" fill="#263238"/>
<path d="M325.929 192.891C325.911 192.896 325.845 192.565 325.743 191.972C325.635 191.328 325.491 190.479 325.318 189.452C324.94 187.329 324.361 184.403 323.535 181.22C322.714 178.033 321.79 175.195 321.076 173.161C320.726 172.181 320.437 171.369 320.217 170.753C320.012 170.183 319.909 169.866 319.928 169.861C319.947 169.852 320.087 170.155 320.325 170.715C320.563 171.271 320.889 172.083 321.272 173.095C322.033 175.116 322.994 177.953 323.82 181.15C324.651 184.347 325.197 187.287 325.528 189.424C325.682 190.493 325.803 191.361 325.864 191.963C325.92 192.555 325.948 192.887 325.929 192.891Z" fill="#263238"/>
<path d="M337.185 192.103H315.783V218.175H337.185V192.103Z" fill="#FF725E"/>
<g opacity="0.3">
<path d="M337.185 192.103H315.783V218.175H337.185V192.103Z" fill="black"/>
</g>
<path d="M330.353 192.103H311.369V218.175H330.353V192.103Z" fill="#FF725E"/>
<path d="M52.1491 183.04C48.5045 180.707 43.4505 180.66 39.9038 183.143C36.5345 185.499 34.8265 189.783 34.9758 193.89C35.1251 197.997 37.1131 203.013 40.8371 205.174L51.7571 205.132C55.2431 202.565 57.6045 198.435 57.7678 194.109C57.9265 189.779 55.7938 185.373 52.1491 183.04Z" fill="#455A64"/>
<path d="M46.7685 205.566C46.7451 205.566 46.7218 205.23 46.6985 204.628C46.6798 203.956 46.6565 203.097 46.6238 202.066C46.5678 199.905 46.4838 196.919 46.3391 193.619C46.1945 190.32 46.0171 187.338 45.8818 185.182C45.8211 184.155 45.7698 183.297 45.7278 182.625C45.6951 182.018 45.6905 181.687 45.7138 181.682C45.7371 181.682 45.7885 182.013 45.8631 182.611C45.9378 183.213 46.0265 184.085 46.1245 185.163C46.3205 187.319 46.5398 190.306 46.6845 193.605C46.8291 196.905 46.8758 199.896 46.8665 202.061C46.8618 203.144 46.8478 204.021 46.8291 204.623C46.8151 205.23 46.7918 205.566 46.7685 205.566Z" fill="#263238"/>
<path d="M36.072 192.957C36.0627 193.055 35.47 193.083 34.7467 193.022C34.0233 192.961 33.44 192.835 33.4493 192.742C33.4587 192.644 34.0513 192.616 34.7747 192.677C35.498 192.733 36.0813 192.859 36.072 192.957Z" fill="#263238"/>
<path d="M36.2777 189.27C36.2404 189.359 35.7271 189.214 35.1344 188.953C34.5417 188.691 34.0937 188.407 34.1311 188.318C34.1684 188.229 34.6817 188.369 35.2744 188.635C35.8671 188.897 36.3151 189.181 36.2777 189.27Z" fill="#263238"/>
<path d="M38.1734 186.535C38.1221 186.615 37.5481 186.344 36.9508 185.849C36.3534 185.355 35.9754 184.841 36.0454 184.776C36.1154 184.711 36.5914 185.103 37.1701 185.579C37.7488 186.059 38.2248 186.451 38.1734 186.535Z" fill="#263238"/>
<path d="M40.0825 183.955C39.9938 183.992 39.7185 183.563 39.4665 182.993C39.2145 182.424 39.0792 181.929 39.1678 181.892C39.2565 181.855 39.5318 182.284 39.7838 182.853C40.0358 183.423 40.1665 183.917 40.0825 183.955Z" fill="#263238"/>
<path d="M43.0739 182.125C42.9899 182.167 42.6912 181.705 42.4952 181.071C42.2946 180.436 42.2806 179.89 42.3739 179.871C42.4719 179.853 42.6352 180.352 42.8266 180.963C43.0132 181.579 43.1626 182.083 43.0739 182.125Z" fill="#263238"/>
<path d="M48.0612 180.058C48.1498 180.091 48.0985 180.483 47.9352 180.931C47.7765 181.383 47.5712 181.719 47.4825 181.691C47.3938 181.659 47.4452 181.267 47.6085 180.819C47.7672 180.366 47.9725 180.025 48.0612 180.058Z" fill="#263238"/>
<path d="M51.7671 181.649C51.8324 181.719 51.5944 182.046 51.2351 182.377C50.8758 182.709 50.5351 182.919 50.4698 182.849C50.4044 182.779 50.6424 182.452 51.0018 182.121C51.3564 181.789 51.7018 181.579 51.7671 181.649Z" fill="#263238"/>
<path d="M55.0237 183.754C55.0797 183.833 54.7904 184.123 54.375 184.403C53.9644 184.683 53.5864 184.841 53.5304 184.762C53.4744 184.683 53.7637 184.393 54.179 184.113C54.5944 183.833 54.9724 183.675 55.0237 183.754Z" fill="#263238"/>
<path d="M57.3389 186.89C57.3762 186.979 56.9189 187.259 56.3216 187.515C55.7196 187.772 55.2016 187.907 55.1642 187.819C55.1269 187.73 55.5842 187.45 56.1862 187.193C56.7836 186.941 57.3016 186.801 57.3389 186.89Z" fill="#263238"/>
<path d="M58.253 190.315C58.267 190.409 57.8003 190.549 57.217 190.619C56.6336 190.693 56.1483 190.67 56.139 190.577C56.125 190.483 56.5916 190.343 57.175 190.273C57.7583 190.199 58.239 190.217 58.253 190.315Z" fill="#263238"/>
<path d="M58.7247 194.529C58.6873 194.618 58.1927 194.487 57.6187 194.24C57.0447 193.993 56.6153 193.717 56.6527 193.629C56.69 193.54 57.1847 193.671 57.7587 193.918C58.3327 194.165 58.7667 194.441 58.7247 194.529Z" fill="#263238"/>
<path d="M58.3104 198.146C58.2777 198.235 57.6524 198.085 56.9991 197.656C56.3411 197.231 55.9537 196.718 56.0237 196.653C56.0937 196.583 56.5697 196.961 57.1904 197.362C57.8064 197.768 58.3431 198.053 58.3104 198.146Z" fill="#263238"/>
<path d="M56.4249 201.436C56.3689 201.511 55.8696 201.217 55.3936 200.703C54.9129 200.19 54.6609 199.672 54.7356 199.621C54.8149 199.565 55.1883 199.975 55.6456 200.47C56.1076 200.96 56.4903 201.361 56.4249 201.436Z" fill="#263238"/>
<path d="M38.5503 201.823C38.597 201.907 38.0697 202.267 37.3837 202.626C36.693 202.985 36.1003 203.205 36.0537 203.121C36.007 203.037 36.5343 202.677 37.2203 202.318C37.911 201.959 38.5037 201.739 38.5503 201.823Z" fill="#263238"/>
<path d="M36.9181 198.846C36.9601 198.935 36.5401 199.21 35.9801 199.462C35.4248 199.714 34.9394 199.849 34.8974 199.761C34.8554 199.672 35.2754 199.397 35.8354 199.145C36.3954 198.893 36.8761 198.757 36.9181 198.846Z" fill="#263238"/>
<path d="M35.7183 196.209C35.7323 196.303 35.2143 196.457 34.5656 196.55C33.9169 196.643 33.3756 196.639 33.3616 196.545C33.3476 196.452 33.8656 196.298 34.5143 196.205C35.1629 196.111 35.7043 196.111 35.7183 196.209Z" fill="#263238"/>
<path d="M39.6516 194.753C39.6796 194.842 39.1756 195.08 38.5036 195.155C37.8316 195.234 37.2903 195.113 37.295 195.019C37.2996 194.921 37.827 194.879 38.4616 194.805C39.101 194.739 39.6236 194.66 39.6516 194.753Z" fill="#263238"/>
<path d="M42.923 191.501C42.951 191.589 42.5497 191.795 42.0084 191.846C41.467 191.902 41.0377 191.781 41.047 191.687C41.0564 191.589 41.4717 191.552 41.9757 191.501C42.4797 191.449 42.895 191.407 42.923 191.501Z" fill="#263238"/>
<path d="M43.5493 188.892C43.5166 188.985 43.0826 188.915 42.5786 188.743C42.0746 188.57 41.6919 188.355 41.7246 188.262C41.7573 188.173 42.1913 188.239 42.6953 188.411C43.1993 188.589 43.5819 188.803 43.5493 188.892Z" fill="#263238"/>
<path d="M44.7478 186.255C44.6825 186.321 44.3838 186.125 44.1692 185.756C43.9545 185.387 43.9358 185.033 44.0245 185.005C44.1178 184.977 44.2812 185.252 44.4678 185.579C44.6592 185.915 44.8178 186.19 44.7478 186.255Z" fill="#263238"/>
<path d="M43.3022 197.049C43.3255 197.143 42.9475 197.315 42.4622 197.432C42.1822 197.502 41.9255 197.535 41.7575 197.535L41.6875 197.329C41.8135 197.306 41.8928 197.311 41.9115 197.348C41.9255 197.385 41.8788 197.451 41.7762 197.525L41.7062 197.32C41.8555 197.241 42.0982 197.157 42.3782 197.087C42.8682 196.979 43.2788 196.956 43.3022 197.049Z" fill="#263238"/>
<path d="M43.979 201.674C44.0164 201.763 43.5357 202.038 42.9104 202.281C42.285 202.528 41.7484 202.654 41.711 202.565C41.6737 202.477 42.1544 202.206 42.7797 201.959C43.405 201.711 43.9417 201.585 43.979 201.674Z" fill="#263238"/>
<path d="M40.2825 199.621C40.3152 199.714 39.9932 199.905 39.5685 200.045C39.1438 200.19 38.7752 200.232 38.7425 200.143C38.7098 200.05 39.0319 199.863 39.4565 199.719C39.8812 199.574 40.2498 199.527 40.2825 199.621Z" fill="#263238"/>
<path d="M40.5615 190.213C40.5382 190.306 39.9829 190.25 39.3389 190.021C38.6949 189.793 38.2282 189.489 38.2702 189.401C38.3122 189.312 38.8302 189.471 39.4555 189.69C40.0809 189.914 40.5849 190.115 40.5615 190.213Z" fill="#263238"/>
<path d="M49.5031 189.191C49.5544 189.27 49.2418 189.573 48.8031 189.863C48.3644 190.152 47.9631 190.32 47.9118 190.241C47.8604 190.161 48.1731 189.858 48.6118 189.569C49.0504 189.279 49.4518 189.107 49.5031 189.191Z" fill="#263238"/>
<path d="M49.9927 193.829C50.0114 193.923 49.6847 194.072 49.2554 194.161C48.8307 194.249 48.4714 194.245 48.448 194.151C48.4294 194.058 48.756 193.909 49.1854 193.82C49.61 193.731 49.9694 193.736 49.9927 193.829Z" fill="#263238"/>
<path d="M50.5583 199.051C50.5163 199.14 50.0449 199.005 49.4989 198.753C48.9529 198.501 48.5469 198.225 48.5889 198.137C48.6309 198.048 49.1023 198.183 49.6483 198.435C50.1896 198.687 50.5956 198.963 50.5583 199.051Z" fill="#263238"/>
<path d="M49.359 204.129C49.2843 204.189 48.9763 203.937 48.673 203.569C48.3696 203.195 48.183 202.845 48.253 202.785C48.3276 202.724 48.6356 202.976 48.939 203.345C49.247 203.718 49.4336 204.068 49.359 204.129Z" fill="#263238"/>
<path d="M49.1167 185.77C49.1773 185.845 48.972 186.101 48.622 186.274C48.272 186.451 47.9453 186.461 47.922 186.367C47.894 186.274 48.1507 186.12 48.4633 185.961C48.7807 185.807 49.056 185.695 49.1167 185.77Z" fill="#263238"/>
<path d="M53.4977 190.451C53.5303 190.539 53.1243 190.763 52.569 190.838C52.0137 190.917 51.5657 190.81 51.5703 190.717C51.575 190.619 52.0043 190.563 52.5223 190.493C53.0357 190.427 53.465 190.362 53.4977 190.451Z" fill="#263238"/>
<path d="M52.6257 186.251C52.6677 186.335 52.2664 186.624 51.6924 186.806C51.1184 186.988 50.6237 186.988 50.6097 186.895C50.5957 186.797 51.039 186.647 51.585 186.475C52.131 186.297 52.5837 186.162 52.6257 186.251Z" fill="#263238"/>
<path d="M54.4557 196.961C54.4557 197.054 53.765 197.115 52.9343 196.965C52.1037 196.816 51.4783 196.517 51.511 196.429C51.5437 196.335 52.1923 196.48 52.995 196.62C53.7977 196.769 54.4557 196.863 54.4557 196.961Z" fill="#263238"/>
<path d="M52.8258 203.065C52.7698 203.139 52.2611 202.841 51.7571 202.332C51.2484 201.823 50.9544 201.315 51.0291 201.259C51.1084 201.198 51.5144 201.595 52.0044 202.085C52.4898 202.579 52.8864 202.99 52.8258 203.065Z" fill="#263238"/>
<path d="M45.6681 181.281C45.7195 181.355 44.2775 181.939 42.6115 183.698C40.9455 185.415 39.2281 188.449 38.8035 192.112C38.6028 193.932 38.7755 195.696 39.0321 197.269C39.3028 198.841 39.6668 200.241 39.9981 201.408C40.3341 202.575 40.6421 203.508 40.8475 204.152C41.0528 204.801 41.1648 205.16 41.1415 205.169C41.1181 205.179 40.9688 204.833 40.7215 204.199C40.4741 203.564 40.1335 202.64 39.7648 201.478C39.4008 200.316 39.0135 198.916 38.7195 197.325C38.4395 195.738 38.2528 193.946 38.4581 192.075C38.8921 188.327 40.6888 185.238 42.4341 183.53C43.3021 182.662 44.1188 182.083 44.7161 181.747C45.0055 181.565 45.2528 181.467 45.4161 181.383C45.5748 181.309 45.6635 181.271 45.6681 181.281Z" fill="#263238"/>
<path d="M50.423 205.393C50.3483 205.356 51.207 204.031 51.991 201.651C52.7983 199.294 53.4656 195.808 52.929 192.023C52.677 190.133 52.131 188.383 51.445 186.89C50.731 185.415 49.8116 184.207 48.9156 183.362C47.987 182.541 47.0723 182.069 46.433 181.794C45.789 181.523 45.4016 181.463 45.4063 181.435C45.4063 181.425 45.5043 181.43 45.691 181.458C45.873 181.491 46.1436 181.551 46.4796 181.673C47.147 181.915 48.0896 182.359 49.0743 183.18C50.031 184.034 50.9783 185.238 51.7343 186.755C52.453 188.276 53.0176 190.054 53.2743 191.977C53.8203 195.836 53.1016 199.373 52.2243 201.735C52.0283 202.337 51.7716 202.855 51.585 203.317C51.361 203.765 51.1743 204.157 51.0063 204.465C50.647 205.071 50.4416 205.403 50.423 205.393Z" fill="#263238"/>
<path d="M36.918 204.567H56.1353L56.252 208.413H36.918V204.567Z" fill="#FF725E"/>
<path d="M38.5508 206.49L39.6521 218.231H53.7034L54.8328 206.621L38.5508 206.49Z" fill="#FF725E"/>
<path d="M56.2512 208.459C56.2512 208.557 51.9252 208.632 46.5865 208.632C41.2479 208.632 36.9219 208.553 36.9219 208.459C36.9219 208.366 41.2479 208.287 46.5865 208.287C51.9252 208.287 56.2512 208.361 56.2512 208.459Z" fill="#263238"/>
<path d="M54.3019 212.034C54.3205 212.043 54.1899 212.314 53.8912 212.767C53.5879 213.215 53.1119 213.849 52.4025 214.526L52.3139 214.61L52.2252 214.517C51.3012 213.546 50.0272 212.356 48.4592 211.222L48.6739 211.213C48.1372 211.684 47.5772 212.174 47.0032 212.678C46.3219 213.271 45.6592 213.849 45.0292 214.395L44.9219 214.489L44.8145 214.395C43.6199 213.387 42.5279 212.473 41.6039 211.698L41.7905 211.679C41.1279 212.487 40.5725 213.168 40.1292 213.705C39.7279 214.181 39.4992 214.433 39.4759 214.419C39.4572 214.405 39.6485 214.115 40.0125 213.616C40.4279 213.061 40.9552 212.356 41.5805 211.521L41.6599 211.413L41.7672 211.502C42.7052 212.263 43.8112 213.159 45.0245 214.143L44.8052 214.148C45.4352 213.597 46.0932 213.019 46.7699 212.421C47.3439 211.917 47.9085 211.432 48.4452 210.961L48.5479 210.872L48.6552 210.951C50.2372 212.113 51.5019 213.345 52.4025 214.353L52.2252 214.349C53.6579 213.056 54.2459 211.997 54.3019 212.034Z" fill="#263238"/>
<path d="M285.213 215.011H81.7837C78.027 215.011 74.9844 211.969 74.9844 208.212V78.292C74.9844 74.5353 78.027 71.4927 81.7837 71.4927H285.213C288.97 71.4927 292.012 74.5353 292.012 78.292V208.212C292.012 211.964 288.97 215.011 285.213 215.011Z" fill="#455A64"/>
<path d="M294.704 218.297H76.1875C71.6002 218.297 67.8809 214.577 67.8809 209.99V205.739H303.011V209.99C303.011 214.582 299.292 218.297 294.704 218.297Z" fill="#455A64"/>
<path d="M162.105 204.395L165.022 209.038H206.079L208.786 204.395H162.105Z" fill="#263238"/>
<path d="M290.146 204.395C290.146 204.474 241.976 204.535 182.57 204.535C123.144 204.535 74.9844 204.474 74.9844 204.395C74.9844 204.315 123.144 204.255 182.57 204.255C241.976 204.255 290.146 204.315 290.146 204.395Z" fill="#263238"/>
<path d="M283.421 200.601H82.7311C81.8864 200.601 81.2051 199.915 81.2051 199.075V81.274C81.2051 80.4294 81.8911 79.748 82.7311 79.748H283.426C284.27 79.748 284.952 80.434 284.952 81.274V199.075C284.947 199.915 284.266 200.601 283.421 200.601Z" fill="#EBEBEB"/>
<path d="M284.732 200.778H80.9805L81.1998 88.7781H284.732V200.778Z" fill="white"/>
<path d="M97.9116 84.4148C97.9116 85.3155 97.1836 86.0435 96.283 86.0435C95.3823 86.0435 94.6543 85.3155 94.6543 84.4148C94.6543 83.5141 95.3823 82.7861 96.283 82.7861C97.1836 82.7861 97.9116 83.5141 97.9116 84.4148Z" fill="#263238"/>
<path d="M88.0503 84.4148C88.0503 85.3155 87.3223 86.0435 86.4216 86.0435C85.521 86.0435 84.793 85.3155 84.793 84.4148C84.793 83.5141 85.521 82.7861 86.4216 82.7861C87.3223 82.7861 88.0503 83.5141 88.0503 84.4148Z" fill="#263238"/>
<path d="M92.7827 84.4148C92.7827 85.3155 92.0547 86.0435 91.1541 86.0435C90.2534 86.0435 89.5254 85.3155 89.5254 84.4148C89.5254 83.5141 90.2534 82.7861 91.1541 82.7861C92.0547 82.7861 92.7827 83.5141 92.7827 84.4148Z" fill="#263238"/>
<path d="M284.946 189.961H80.9805V200.778H284.946V189.961Z" fill="#263238"/>
<path d="M88.6904 196.62V196.965H87.0664V196.69L87.9438 195.859C88.1584 195.654 88.1958 195.528 88.1958 195.402C88.1958 195.201 88.0558 195.085 87.7851 195.085C87.5704 195.085 87.3931 195.159 87.2671 195.313L86.9824 195.094C87.1504 194.865 87.4584 194.73 87.8178 194.73C88.2984 194.73 88.6064 194.973 88.6064 195.365C88.6064 195.579 88.5458 195.775 88.2424 196.06L87.6544 196.62H88.6904Z" fill="white"/>
<path d="M88.9102 195.528C88.9102 195.369 89.0268 195.267 89.1668 195.267C89.3068 195.267 89.4235 195.369 89.4235 195.528C89.4235 195.677 89.3068 195.789 89.1668 195.789C89.0268 195.789 88.9102 195.682 88.9102 195.528ZM88.9102 196.727C88.9102 196.569 89.0268 196.466 89.1668 196.466C89.3068 196.466 89.4235 196.569 89.4235 196.727C89.4235 196.877 89.3068 196.989 89.1668 196.989C89.0268 196.989 88.9102 196.881 88.9102 196.727Z" fill="white"/>
<path d="M90.4496 194.763V196.965H90.0389V195.103H89.5723V194.758H90.4496V194.763Z" fill="white"/>
<path d="M92.8528 196.466H92.4608V196.965H92.0641V196.466H90.8555V196.181L91.9428 194.763H92.3815L91.3595 196.121H92.0828V195.677H92.4655V196.121H92.8575V196.466H92.8528Z" fill="white"/>
<path d="M263.63 195.584H96.4512V196.345H263.63V195.584Z" fill="white"/>
<path d="M148.568 194.767H96.3242V196.802H148.568V194.767Z" fill="#FF725E"/>
<path d="M150.259 195.967C150.259 197.371 149.12 198.51 147.715 198.51C146.311 198.51 145.172 197.371 145.172 195.967C145.172 194.562 146.311 193.423 147.715 193.423C149.12 193.423 150.259 194.562 150.259 195.967Z" fill="#FF725E"/>
<path d="M267.839 195.943C267.839 196.382 267.485 196.657 267.032 196.657C266.43 196.657 266.08 196.27 266.08 195.56C266.08 194.804 266.519 194.389 267.158 194.389C267.377 194.389 267.587 194.436 267.737 194.529L267.587 194.837C267.466 194.758 267.321 194.73 267.167 194.73C266.752 194.73 266.491 194.987 266.491 195.491V195.495C266.621 195.341 266.836 195.266 267.079 195.266C267.517 195.266 267.839 195.533 267.839 195.943ZM267.443 195.962C267.443 195.733 267.27 195.588 267.004 195.588C266.738 195.588 266.556 195.747 266.556 195.966C266.556 196.172 266.719 196.34 267.013 196.34C267.27 196.335 267.443 196.19 267.443 195.962Z" fill="white"/>
<path d="M268.041 195.187C268.041 195.028 268.158 194.926 268.298 194.926C268.438 194.926 268.554 195.028 268.554 195.187C268.554 195.336 268.438 195.448 268.298 195.448C268.158 195.448 268.041 195.336 268.041 195.187ZM268.041 196.386C268.041 196.228 268.158 196.125 268.298 196.125C268.438 196.125 268.554 196.228 268.554 196.386C268.554 196.536 268.438 196.648 268.298 196.648C268.158 196.648 268.041 196.536 268.041 196.386Z" fill="white"/>
<path d="M268.82 195.523C268.82 194.8 269.217 194.389 269.74 194.389C270.267 194.389 270.664 194.8 270.664 195.523C270.664 196.246 270.267 196.657 269.74 196.657C269.217 196.657 268.82 196.246 268.82 195.523ZM270.248 195.523C270.248 194.991 270.043 194.744 269.74 194.744C269.441 194.744 269.231 194.991 269.231 195.523C269.231 196.055 269.441 196.302 269.74 196.302C270.043 196.302 270.248 196.055 270.248 195.523Z" fill="white"/>
<path d="M270.934 195.523C270.934 194.8 271.33 194.389 271.853 194.389C272.38 194.389 272.777 194.8 272.777 195.523C272.777 196.246 272.38 196.657 271.853 196.657C271.33 196.657 270.934 196.246 270.934 195.523ZM272.366 195.523C272.366 194.991 272.161 194.744 271.858 194.744C271.559 194.744 271.349 194.991 271.349 195.523C271.349 196.055 271.559 196.302 271.858 196.302C272.156 196.302 272.366 196.055 272.366 195.523Z" fill="white"/>
<path d="M276.337 195.388H275.576V193.19H277.765V193.951H276.337V195.388Z" fill="white"/>
<path d="M277.77 198.253H275.572V196.065H276.333V197.493H277.77V198.253Z" fill="white"/>
<path d="M281.27 198.253H279.076V197.493H280.504V196.055H281.27V198.253Z" fill="white"/>
<path d="M281.27 195.383H280.51V193.951H279.072V193.19H281.27V195.383Z" fill="white"/>
<path d="M108.923 95.4373H96.9115L90.9102 105.835L96.9115 116.237H108.923L114.925 105.835L108.923 95.4373Z" fill="#EBEBEB"/>
<path d="M97.8918 107.874C97.3551 107.281 96.8138 106.679 96.4218 105.979C96.0298 105.279 95.7964 104.467 95.9271 103.674C96.0018 103.212 96.1978 102.773 96.2304 102.306C96.2724 101.662 96.0018 100.99 96.2304 100.388C96.5851 99.4458 97.8544 99.3011 98.6244 98.6525C99.2218 98.1438 99.5158 97.3225 100.174 96.8978C100.748 96.5245 101.49 96.5338 102.166 96.6318C102.843 96.7298 103.529 96.8978 104.206 96.8091C104.691 96.7438 105.144 96.5478 105.62 96.4311C106.096 96.3145 106.623 96.2818 107.043 96.5291C107.463 96.7765 107.701 97.3738 107.426 97.7751C108.214 97.4111 109.213 98.0271 109.428 98.8625C109.642 99.7025 109.213 100.608 108.546 101.163C107.878 101.718 107.015 101.975 106.166 102.134C103.758 102.586 101.14 102.33 99.0631 101.028" fill="#263238"/>
<path d="M109.025 110.44C108.946 108.952 108.526 105.9 108.12 103.142C107.681 100.174 105.035 98.0458 102.044 98.2465L101.745 98.2652C98.5534 98.6665 97.1114 101.602 97.6014 104.784L98.5394 116.241H106.333C106.333 116.241 106.151 114.23 106.146 114.211C106.146 114.206 109.193 113.52 109.025 110.44Z" fill="#FFBE9D"/>
<path d="M106.145 114.164C106.145 114.164 104.209 114.454 102.053 113.292C102.053 113.292 103.149 115.443 106.206 114.962L106.145 114.164Z" fill="#EB996E"/>
<path d="M107.127 105.783C107.151 106.016 106.973 106.226 106.731 106.254C106.488 106.282 106.273 106.119 106.25 105.886C106.227 105.652 106.404 105.442 106.642 105.414C106.889 105.386 107.104 105.55 107.127 105.783Z" fill="#263238"/>
<path d="M107.561 104.691C107.51 104.752 107.16 104.528 106.688 104.56C106.217 104.588 105.886 104.854 105.83 104.798C105.802 104.775 105.853 104.668 105.993 104.546C106.133 104.425 106.38 104.304 106.674 104.285C106.968 104.266 107.225 104.36 107.374 104.462C107.528 104.56 107.584 104.663 107.561 104.691Z" fill="#263238"/>
<path d="M102.657 106.105C102.68 106.339 102.503 106.549 102.26 106.577C102.017 106.605 101.803 106.441 101.779 106.208C101.756 105.975 101.933 105.765 102.171 105.737C102.419 105.709 102.633 105.872 102.657 106.105Z" fill="#263238"/>
<path d="M102.912 105.092C102.861 105.153 102.511 104.929 102.04 104.962C101.568 104.99 101.237 105.256 101.181 105.2C101.153 105.176 101.204 105.069 101.349 104.948C101.489 104.826 101.736 104.705 102.03 104.686C102.324 104.668 102.581 104.761 102.73 104.864C102.88 104.962 102.936 105.064 102.912 105.092Z" fill="#263238"/>
<path d="M104.864 108.485C104.859 108.457 105.148 108.387 105.624 108.294C105.746 108.275 105.858 108.242 105.872 108.158C105.895 108.07 105.834 107.944 105.769 107.804C105.634 107.519 105.498 107.22 105.349 106.908C104.766 105.629 104.332 104.579 104.383 104.556C104.434 104.532 104.952 105.55 105.536 106.828C105.676 107.146 105.811 107.444 105.942 107.734C105.998 107.869 106.086 108.018 106.035 108.205C106.007 108.298 105.923 108.368 105.848 108.396C105.774 108.424 105.704 108.429 105.643 108.438C105.167 108.49 104.868 108.513 104.864 108.485Z" fill="#263238"/>
<path d="M102.907 103.226C102.87 103.356 102.394 103.329 101.843 103.431C101.288 103.525 100.854 103.716 100.77 103.608C100.732 103.557 100.802 103.431 100.975 103.291C101.148 103.156 101.423 103.016 101.754 102.96C102.086 102.899 102.394 102.932 102.604 103.002C102.814 103.072 102.926 103.165 102.907 103.226Z" fill="#263238"/>
<path d="M107.294 103.333C107.219 103.445 106.883 103.357 106.491 103.375C106.099 103.385 105.772 103.497 105.688 103.389C105.651 103.338 105.698 103.226 105.833 103.114C105.968 103.002 106.202 102.904 106.472 102.895C106.743 102.885 106.981 102.969 107.126 103.067C107.27 103.17 107.326 103.277 107.294 103.333Z" fill="#263238"/>
<path d="M98.0084 107.043C97.9524 107.025 95.8477 106.558 96.0577 108.663C96.2677 110.763 98.545 110.081 98.5404 110.021C98.5404 109.955 98.0084 107.043 98.0084 107.043Z" fill="#FFBE9D"/>
<path d="M97.6063 109.33C97.597 109.325 97.5736 109.358 97.513 109.395C97.457 109.428 97.3543 109.456 97.2376 109.428C97.009 109.367 96.785 109.036 96.7383 108.658C96.715 108.467 96.7383 108.28 96.7896 108.126C96.8363 107.967 96.9296 107.851 97.037 107.818C97.1443 107.781 97.233 107.841 97.261 107.897C97.2936 107.953 97.2843 107.995 97.2983 108C97.303 108.005 97.3403 107.963 97.3123 107.874C97.2983 107.832 97.2703 107.785 97.2143 107.753C97.1583 107.715 97.0836 107.701 97.0043 107.72C96.8456 107.748 96.7103 107.911 96.6543 108.084C96.589 108.257 96.5563 108.467 96.5843 108.681C96.6403 109.101 96.897 109.479 97.2096 109.535C97.359 109.559 97.4803 109.503 97.541 109.447C97.611 109.381 97.6156 109.33 97.6063 109.33Z" fill="#EB996E"/>
<path d="M107.966 100.263C107.822 101.098 106.128 101.863 104.718 101.826C103.421 101.789 102.782 101.145 101.839 100.687C101.242 100.398 101.242 100.398 100.434 100.529C99.7811 100.636 99.4404 101.406 99.0717 101.957C99.7717 103.483 99.4871 105.256 99.1931 106.908C99.1604 107.09 99.1184 107.286 98.9784 107.412C98.7404 107.622 98.3577 107.496 98.1291 107.281C97.7557 106.941 97.5877 106.437 97.4664 105.947C97.1864 104.831 97.0837 103.665 97.2564 102.531C97.4337 101.397 97.9004 100.291 98.6797 99.4459C99.6504 98.3865 101.064 97.7752 102.502 97.7005C103.934 97.6259 105.376 98.0692 106.576 98.8579C107.126 99.2265 107.649 99.6745 107.966 100.263Z" fill="#263238"/>
<path d="M105.176 109.549C104.816 109.381 104.462 109.218 104.102 109.05C104.042 109.022 103.976 108.994 103.906 108.999C103.832 109.008 103.771 109.064 103.72 109.125C103.472 109.423 103.407 109.881 103.603 110.221C103.794 110.562 104.247 110.739 104.606 110.59C104.984 110.431 105.171 109.993 105.199 109.582L105.176 109.549Z" fill="#EB996E"/>
<path d="M104.644 110.669C104.662 110.688 104.42 110.842 104.014 110.725C103.818 110.665 103.594 110.515 103.458 110.273C103.318 110.035 103.267 109.699 103.388 109.395C103.444 109.246 103.538 109.111 103.65 109.008C103.706 108.957 103.762 108.91 103.832 108.873C103.902 108.821 104.046 108.817 104.112 108.854C104.354 108.989 104.522 109.106 104.686 109.213C104.998 109.423 105.185 109.563 105.166 109.596C105.148 109.624 104.933 109.535 104.597 109.363C104.401 109.26 104.214 109.162 104.023 109.064C103.976 109.05 103.981 109.05 103.939 109.073C103.897 109.101 103.846 109.139 103.808 109.181C103.724 109.265 103.654 109.367 103.612 109.484C103.519 109.717 103.552 109.974 103.654 110.17C103.757 110.366 103.916 110.497 104.074 110.567C104.396 110.702 104.634 110.627 104.644 110.669Z" fill="#263238"/>
<path d="M104.304 105.835C104.28 105.835 104.285 105.639 104.187 105.312C104.094 104.99 103.87 104.519 103.384 104.159C102.913 103.8 102.143 103.599 101.401 103.879C100.664 104.136 100.029 104.92 100.038 105.835C100.029 106.749 100.664 107.533 101.401 107.79C102.143 108.07 102.913 107.869 103.384 107.51C103.87 107.151 104.098 106.679 104.187 106.357C104.285 106.031 104.28 105.835 104.304 105.835C104.313 105.835 104.318 105.881 104.322 105.975C104.327 106.068 104.318 106.208 104.28 106.381C104.21 106.726 104 107.239 103.487 107.645C102.992 108.051 102.148 108.294 101.322 108C100.5 107.729 99.7818 106.857 99.7911 105.835C99.7818 104.813 100.5 103.94 101.322 103.669C102.152 103.371 102.992 103.613 103.487 104.024C104 104.43 104.21 104.948 104.28 105.289C104.318 105.461 104.327 105.601 104.322 105.695C104.318 105.788 104.313 105.835 104.304 105.835Z" fill="#263238"/>
<path d="M109.545 105.629C109.521 105.629 109.521 105.438 109.433 105.121C109.344 104.808 109.125 104.351 108.649 104.001C108.191 103.651 107.44 103.459 106.717 103.73C105.998 103.977 105.382 104.743 105.391 105.634C105.382 106.525 106.003 107.286 106.717 107.538C107.44 107.809 108.191 107.617 108.649 107.267C109.125 106.917 109.344 106.46 109.433 106.147C109.526 105.821 109.521 105.629 109.545 105.629C109.554 105.629 109.559 105.676 109.563 105.769C109.568 105.858 109.559 105.993 109.526 106.166C109.461 106.502 109.255 107.001 108.756 107.403C108.275 107.799 107.454 108.037 106.642 107.748C105.839 107.482 105.139 106.633 105.149 105.634C105.139 104.635 105.839 103.786 106.642 103.52C107.449 103.231 108.271 103.469 108.756 103.865C109.255 104.262 109.461 104.766 109.526 105.102C109.563 105.27 109.568 105.405 109.563 105.499C109.559 105.583 109.554 105.629 109.545 105.629Z" fill="#263238"/>
<path d="M105.27 105.148C105.224 105.195 105.014 105.06 104.734 105.069C104.454 105.069 104.253 105.214 104.202 105.167C104.136 105.134 104.332 104.831 104.729 104.822C105.126 104.817 105.331 105.111 105.27 105.148Z" fill="#263238"/>
<path d="M100.048 105.527C100.09 105.583 99.679 105.951 99.1377 106.357C98.5964 106.763 98.1204 107.048 98.083 106.992C98.041 106.936 98.4517 106.567 98.993 106.161C99.5344 105.755 100.006 105.471 100.048 105.527Z" fill="#263238"/>
<path d="M143.363 105.732C143.363 105.797 137.964 105.853 131.305 105.853C124.645 105.853 119.246 105.797 119.246 105.732C119.246 105.667 124.645 105.611 131.305 105.611C137.964 105.611 143.363 105.662 143.363 105.732Z" fill="#263238"/>
<path d="M132.21 108.257C132.21 108.322 129.344 108.378 125.807 108.378C122.27 108.378 119.404 108.322 119.404 108.257C119.404 108.191 122.27 108.135 125.807 108.135C129.344 108.131 132.21 108.187 132.21 108.257Z" fill="#263238"/>
<path d="M215.605 124.375C215.605 124.375 222.012 127.497 224.266 135.561C226.52 143.625 233.408 164.625 233.408 164.625C233.408 164.625 237.347 169.259 237.772 172.689C238.192 176.119 237.352 184.421 236.082 185.971C234.818 187.52 233.012 187.263 233.012 187.263L216.431 185.691L209.902 141.973L215.605 124.375Z" fill="#FF725E"/>
<path d="M160.78 123.615C160.78 123.615 148.927 127.334 145.973 130.568L155.679 175.727L155.525 189.975H211.731C211.731 189.27 212.235 142.669 212.235 142.669L215.613 124.38L195.635 120.861L191.697 117.767L169.469 118.892L166.091 122.271L160.78 123.615Z" fill="#FF725E"/>
<g opacity="0.3">
<path d="M165.284 162.791C165.112 162.409 164.864 161.993 164.454 161.909C163.777 161.769 163.324 162.572 163.096 163.221C161.271 168.391 158.854 173.147 155.713 177.636L155.568 184.571C158.844 181.813 162.074 178.859 164.164 175.121C166.246 171.383 167.048 166.693 165.284 162.791Z" fill="black"/>
</g>
<path d="M145.968 130.568C145.968 130.568 142.062 135.893 140.438 139.369C138.814 142.846 125.374 172.041 124.567 175.055C123.755 178.07 121.669 187.567 127.81 189.769H140.438L153.113 164.135L153.762 134.385L145.968 130.568Z" fill="#FF725E"/>
<path d="M141.25 171.252C141.232 171.271 140.97 171.005 140.387 170.673C139.808 170.347 138.903 169.969 137.736 169.712C137.153 169.586 136.504 169.483 135.804 169.441C135.104 169.399 134.353 169.409 133.588 169.586C132.057 169.927 130.536 170.897 129.336 172.255C128.118 173.613 127.372 175.219 126.928 176.731C126.48 178.247 126.289 179.671 126.168 180.861C126.051 182.055 126.004 183.026 125.962 183.698C125.944 184.011 125.925 184.267 125.916 184.473C125.902 184.65 125.892 184.743 125.883 184.743C125.874 184.743 125.869 184.65 125.869 184.473C125.869 184.267 125.869 184.011 125.874 183.698C125.888 183.026 125.906 182.051 126 180.847C126.098 179.647 126.275 178.21 126.714 176.665C127.148 175.13 127.908 173.483 129.154 172.092C130.382 170.701 131.95 169.707 133.541 169.367C134.334 169.189 135.109 169.185 135.818 169.241C136.528 169.292 137.186 169.404 137.774 169.544C138.954 169.824 139.86 170.23 140.434 170.589C140.718 170.771 140.928 170.935 141.059 171.056C141.19 171.177 141.255 171.247 141.25 171.252Z" fill="#263238"/>
<path d="M135.264 166.147C135.264 166.128 135.413 166.105 135.688 166.077C135.964 166.044 136.365 166.035 136.86 166.063C137.354 166.086 137.942 166.17 138.582 166.319C139.216 166.478 139.907 166.711 140.593 167.033C141.274 167.365 141.89 167.752 142.413 168.149C142.931 168.555 143.365 168.956 143.696 169.329C144.028 169.698 144.275 170.015 144.42 170.249C144.569 170.482 144.648 170.613 144.634 170.622C144.597 170.65 144.256 170.141 143.57 169.446C143.23 169.096 142.791 168.713 142.278 168.331C141.755 167.953 141.153 167.579 140.486 167.257C139.814 166.94 139.146 166.711 138.526 166.543C137.9 166.385 137.331 166.287 136.846 166.245C135.875 166.142 135.264 166.193 135.264 166.147Z" fill="#263238"/>
<path d="M146.678 164.742C146.674 164.761 146.468 164.742 146.095 164.695C145.722 164.649 145.18 164.593 144.513 164.541C143.178 164.439 141.321 164.415 139.286 164.658C137.256 164.905 135.455 165.367 134.181 165.778C133.542 165.983 133.028 166.165 132.678 166.301C132.328 166.431 132.128 166.497 132.123 166.483C132.118 166.469 132.3 166.371 132.646 166.212C132.986 166.049 133.49 165.843 134.13 165.615C135.399 165.157 137.21 164.663 139.263 164.415C141.312 164.173 143.192 164.224 144.532 164.369C145.204 164.439 145.745 164.523 146.114 164.597C146.482 164.681 146.683 164.728 146.678 164.742Z" fill="#263238"/>
<path d="M182.654 139.799C182.649 139.803 182.607 139.752 182.523 139.645C182.434 139.523 182.318 139.369 182.178 139.183C181.87 138.753 181.44 138.161 180.908 137.423C179.816 135.883 178.3 133.741 176.508 131.217L176.704 131.189C176.022 133.186 175.271 135.393 174.482 137.713L174.431 137.857L174.305 137.773C174.221 137.722 174.132 137.661 174.044 137.605C172.998 136.943 172.074 136.145 171.295 135.281C170.516 134.413 169.867 133.489 169.33 132.565C168.257 130.713 167.608 128.888 167.17 127.343C166.731 125.794 166.502 124.506 166.353 123.624C166.278 123.199 166.222 122.863 166.176 122.607C166.152 122.49 166.129 122.406 166.115 122.345C166.092 122.294 166.082 122.261 166.087 122.261C166.138 122.238 166.274 122.728 166.446 123.61C166.628 124.487 166.88 125.766 167.338 127.301C167.795 128.832 168.453 130.638 169.526 132.458C170.063 133.368 170.702 134.273 171.472 135.127C172.247 135.972 173.152 136.756 174.174 137.405C174.263 137.461 174.352 137.517 174.431 137.568L174.254 137.633C175.052 135.314 175.808 133.111 176.494 131.119L176.564 130.909L176.69 131.091C178.449 133.634 179.942 135.795 181.016 137.349C181.529 138.1 181.935 138.707 182.234 139.145C182.364 139.341 182.467 139.5 182.551 139.626C182.621 139.738 182.658 139.794 182.654 139.799Z" fill="#263238"/>
<g opacity="0.3">
<path d="M197.283 161.354C196.761 166.576 197.913 171.952 200.531 176.497C203.145 181.047 206.981 185.098 211.755 187.277C211.909 182.643 211.685 177.183 211.839 172.549L197.283 161.354Z" fill="black"/>
</g>
<path d="M196.756 155.255C196.756 155.255 194.717 155.819 196.247 160.005C197.778 164.187 198.287 163.935 199.309 167.85C200.331 171.761 201.521 175.335 203.308 177.547C205.095 179.759 211.731 184.267 211.731 184.267L217.686 178.653C217.686 178.653 216.706 174.467 216.939 171.625C217.173 168.783 217.77 161.807 217.686 160.617C217.602 159.427 216.323 156.533 216.323 156.533V154.555L213.262 145.133C213.262 145.133 211.559 144.367 210.966 147.088L209.944 144.199C209.944 144.199 208.329 143.943 207.905 147.261C207.48 150.579 208.245 155.171 208.245 155.171L207.396 160.957L206.122 164.868L205.016 165.036C205.016 165.036 203.35 164.583 202.44 161.447C201.521 158.316 199.052 154.573 196.756 155.255Z" fill="#FFBE9D"/>
<path d="M215.689 170.048C215.684 170.048 215.675 169.973 215.661 169.833C215.652 169.67 215.638 169.465 215.619 169.208C215.586 168.639 215.544 167.85 215.493 166.865C215.4 164.835 215.274 162.007 215.124 158.708L215.152 158.778C214.877 158.451 214.392 158.353 213.948 158.465C213.496 158.573 213.094 158.853 212.842 159.273C212.324 160.108 212.292 161.2 212.133 162.255C211.811 164.639 211.503 166.907 211.223 168.979C211.083 170.011 210.934 170.995 210.728 171.905C210.532 172.815 210.257 173.646 209.991 174.388C209.73 175.13 209.496 175.802 209.352 176.409C209.207 177.015 209.146 177.547 209.16 177.986C209.179 178.863 209.436 179.311 209.394 179.321C209.384 179.325 209.338 179.213 209.249 178.994C209.179 178.77 209.081 178.434 209.062 177.991C209.034 177.547 209.081 176.997 209.216 176.381C209.352 175.765 209.576 175.083 209.828 174.337C210.084 173.59 210.346 172.773 210.532 171.868C210.724 170.967 210.864 169.987 210.999 168.956C211.274 166.884 211.573 164.616 211.89 162.231C211.965 161.699 212.021 161.177 212.114 160.649C212.208 160.127 212.352 159.604 212.642 159.156C212.912 158.699 213.388 158.363 213.892 158.246C214.392 158.12 214.984 158.232 215.325 158.643L215.348 158.675V158.713C215.46 162.012 215.558 164.84 215.628 166.875C215.652 167.859 215.675 168.648 215.689 169.222C215.694 169.479 215.694 169.684 215.694 169.847C215.698 169.978 215.694 170.048 215.689 170.048Z" fill="#EB996E"/>
<path d="M212.431 159.328C212.417 159.333 212.323 159.147 212.179 158.797C212.039 158.447 211.852 157.928 211.679 157.27C211.507 156.617 211.343 155.819 211.25 154.928C211.203 154.48 211.171 154.004 211.227 153.509C211.278 153.014 211.423 152.492 211.74 152.053C212.011 151.67 212.393 151.362 212.827 151.236L212.921 151.208L212.967 151.292C213.831 152.814 214.577 154.158 215.105 155.124C215.347 155.577 215.548 155.954 215.716 156.267C215.856 156.538 215.926 156.687 215.912 156.697C215.898 156.706 215.805 156.566 215.641 156.309C215.459 156.01 215.235 155.642 214.969 155.203C214.405 154.256 213.63 152.93 212.757 151.414L212.897 151.47C212.524 151.582 212.183 151.848 211.941 152.198C211.656 152.599 211.516 153.075 211.465 153.542C211.413 154.013 211.437 154.475 211.474 154.914C211.553 155.796 211.693 156.585 211.847 157.238C211.997 157.891 212.155 158.414 212.267 158.773C212.384 159.123 212.449 159.324 212.431 159.328Z" fill="#EB996E"/>
<path d="M211.007 160.098C210.988 160.098 210.97 159.907 210.951 159.557C210.937 159.156 210.914 158.661 210.89 158.078C210.848 156.827 210.811 155.1 210.783 153.192C210.769 151.283 210.694 149.552 210.858 148.296C210.937 147.671 211.063 147.172 211.175 146.84C211.287 146.504 211.38 146.336 211.394 146.341C211.436 146.355 211.133 147.078 211.026 148.32C210.909 149.556 211.007 151.283 211.021 153.192C211.049 155.1 211.058 156.827 211.058 158.078C211.054 158.661 211.044 159.156 211.04 159.562C211.035 159.902 211.026 160.094 211.007 160.098Z" fill="#EB996E"/>
<path d="M205.973 175.783C205.94 175.755 206.309 175.317 206.771 174.519C207.004 174.122 207.242 173.627 207.461 173.067C207.671 172.498 207.863 171.859 207.993 171.173C208.115 170.482 208.157 169.819 208.157 169.213C208.147 168.606 208.096 168.06 208.017 167.612C207.863 166.707 207.667 166.165 207.709 166.151C207.723 166.147 207.783 166.277 207.877 166.52C207.975 166.763 208.082 167.127 208.185 167.579C208.287 168.037 208.357 168.592 208.381 169.208C208.395 169.829 208.353 170.51 208.231 171.215C208.101 171.919 207.9 172.573 207.671 173.147C207.433 173.716 207.172 174.215 206.915 174.607C206.663 174.999 206.435 175.303 206.257 175.494C206.089 175.69 205.987 175.793 205.973 175.783Z" fill="#EB996E"/>
<path d="M216.427 172.857L221.593 174.649C221.593 174.649 226.525 172.097 229.927 174.649C233.329 177.202 236.283 183.927 235.35 186.647C235.35 186.647 233.003 189.545 231.215 189.97C229.428 190.395 222.484 188.715 219.595 188.103C216.697 187.492 211.723 184.258 211.723 184.258L216.427 172.857Z" fill="#FFBE9D"/>
<path d="M217.061 180.468C217.043 180.468 217.024 180.305 217.005 180.011C216.987 179.661 216.959 179.246 216.931 178.765C216.875 177.71 216.805 176.254 216.781 174.64C216.758 173.025 216.805 171.564 216.903 170.51C216.949 169.982 217.005 169.558 217.057 169.264C217.108 168.97 217.145 168.811 217.164 168.816C217.201 168.82 217.122 169.469 217.071 170.519C217.019 171.569 217.001 173.025 217.024 174.635C217.052 176.212 217.08 177.64 217.099 178.76C217.103 179.288 217.103 179.717 217.094 180.011C217.094 180.305 217.08 180.468 217.061 180.468Z" fill="#EB996E"/>
<path d="M234.099 174.444C234.062 174.481 233.53 173.744 232.382 172.895C231.248 172.045 229.409 171.14 227.234 171.019C225.055 170.902 223.128 171.597 221.91 172.316C220.673 173.035 220.066 173.707 220.034 173.669C220.024 173.66 220.169 173.487 220.458 173.207C220.748 172.927 221.205 172.554 221.821 172.171C223.039 171.401 225.008 170.655 227.248 170.781C229.488 170.907 231.364 171.863 232.489 172.759C233.058 173.207 233.474 173.632 233.73 173.94C233.987 174.253 234.113 174.439 234.099 174.444Z" fill="#263238"/>
<path d="M233.436 170.137C233.403 170.188 232.713 169.488 231.285 168.951C229.88 168.401 227.701 168.149 225.465 168.779C224.35 169.091 223.328 169.535 222.455 170.029C221.583 170.529 220.855 171.075 220.276 171.569C219.697 172.064 219.254 172.498 218.951 172.797C218.647 173.1 218.479 173.263 218.465 173.254C218.456 173.245 218.601 173.058 218.885 172.731C219.17 172.409 219.595 171.957 220.169 171.439C220.738 170.921 221.466 170.351 222.348 169.833C223.23 169.32 224.266 168.858 225.405 168.541C227.696 167.897 229.931 168.186 231.35 168.788C232.069 169.082 232.601 169.423 232.941 169.684C233.119 169.81 233.235 169.931 233.319 170.006C233.399 170.09 233.441 170.132 233.436 170.137Z" fill="#263238"/>
<path d="M233.478 166.403C233.464 166.45 232.563 166.175 231.061 165.974C230.309 165.867 229.409 165.806 228.41 165.806C227.411 165.82 226.315 165.904 225.176 166.095C224.042 166.301 222.983 166.599 222.035 166.926C221.097 167.267 220.271 167.631 219.604 167.99C218.265 168.695 217.509 169.259 217.481 169.222C217.471 169.208 217.653 169.063 217.999 168.807C218.167 168.676 218.381 168.527 218.638 168.368C218.895 168.209 219.184 168.013 219.52 167.841C220.183 167.463 221.013 167.08 221.956 166.721C222.908 166.38 223.981 166.072 225.129 165.862C226.282 165.666 227.393 165.587 228.405 165.587C229.418 165.601 230.328 165.68 231.079 165.811C231.457 165.857 231.793 165.946 232.092 166.007C232.391 166.067 232.643 166.137 232.843 166.198C233.259 166.315 233.483 166.389 233.478 166.403Z" fill="#263238"/>
<path d="M193.89 120.707C193.89 120.707 194.128 121.155 194.25 122.079C194.376 122.999 194.357 124.38 194.054 126.088C193.9 126.942 193.694 127.88 193.386 128.883C193.064 129.887 192.579 130.913 192.028 131.987C190.918 134.133 189.513 136.471 187.894 138.968L187.702 139.262V138.912C187.698 137.265 187.698 135.533 187.693 133.732L187.875 133.821C186.484 134.941 185.024 136.121 183.516 137.339L183.554 137.283C182.546 140.485 181.878 144.05 181.617 147.76C181.192 153.439 181.533 158.871 181.804 163.799C182.032 168.732 182.182 173.179 182.336 176.908C182.485 180.641 182.62 183.656 182.732 185.742C182.793 186.773 182.84 187.581 182.872 188.141C182.891 188.407 182.905 188.612 182.914 188.766C182.924 188.906 182.919 188.981 182.919 188.981C182.919 188.981 182.905 188.911 182.886 188.771C182.872 188.621 182.849 188.411 182.821 188.15C182.77 187.604 182.704 186.792 182.634 185.751C182.494 183.665 182.331 180.651 182.163 176.917C181.995 173.184 181.799 168.741 181.575 163.813C181.295 158.89 180.945 153.444 181.37 147.746C181.636 144.022 182.303 140.438 183.325 137.218L183.334 137.185L183.362 137.162C184.87 135.949 186.335 134.773 187.726 133.653L187.908 133.508V133.741C187.903 135.538 187.903 137.269 187.898 138.921L187.707 138.865C190.913 133.895 193.522 129.574 193.923 126.079C194.245 124.385 194.282 123.017 194.175 122.098C194.128 121.636 194.04 121.295 193.984 121.062C193.918 120.824 193.89 120.707 193.89 120.707Z" fill="#263238"/>
<path d="M185.519 180.903L185.351 180.898C184.674 180.917 184.072 181.533 184.072 182.209C184.072 182.886 184.67 183.507 185.342 183.53C186.018 183.553 186.658 182.975 186.7 182.303C186.751 181.626 186.191 180.968 185.519 180.903Z" fill="white"/>
<path d="M185.519 162.917L185.351 162.913C184.674 162.931 184.072 163.547 184.072 164.224C184.072 164.901 184.67 165.521 185.342 165.545C186.018 165.568 186.658 164.989 186.7 164.317C186.751 163.641 186.191 162.983 185.519 162.917Z" fill="white"/>
<path d="M185.346 146.827C186.023 146.85 186.662 146.271 186.704 145.599C186.751 144.927 186.191 144.269 185.519 144.204L185.351 144.199C184.674 144.218 184.072 144.834 184.072 145.511C184.072 146.183 184.67 146.803 185.346 146.827Z" fill="white"/>
<path d="M165.196 99.6326C163.558 97.822 161.91 95.988 160.716 93.86C159.521 91.732 158.812 89.2446 159.208 86.8366C159.437 85.4273 160.039 84.088 160.132 82.6646C160.263 80.7046 159.442 78.656 160.132 76.822C161.22 73.952 165.084 73.5086 167.426 71.5253C169.251 69.9806 170.138 67.4746 172.149 66.1726C173.904 65.0386 176.158 65.062 178.225 65.356C180.292 65.65 182.374 66.1726 184.446 65.8926C185.92 65.692 187.311 65.0993 188.758 64.74C190.204 64.3806 191.814 64.2873 193.102 65.034C194.39 65.7806 195.114 67.61 194.269 68.8373C196.668 67.7313 199.715 69.6026 200.373 72.16C201.031 74.7173 199.715 77.4846 197.68 79.1693C195.646 80.8586 193.018 81.6426 190.424 82.1326C183.074 83.5186 175.103 82.7346 168.77 78.7586" fill="#263238"/>
<path d="M191.036 124.338C190.676 121.557 190.382 119.237 190.364 118.948C190.364 118.948 199.66 116.857 199.146 107.459C198.899 102.918 197.625 93.5987 196.379 85.1847C195.04 76.15 186.971 69.6633 177.857 70.27L176.952 70.3307C167.217 71.5533 162.821 80.504 164.314 90.2013L169.564 122.714C169.564 122.714 171.804 129.905 176.602 131.151L182.65 139.794L183.648 136.075L188.156 132.15C188.156 132.15 189.192 131.03 190.378 128.841C191.358 127.054 191.152 125.211 191.036 124.338Z" fill="#FFBE9D"/>
<path d="M190.369 118.813C190.369 118.813 184.466 119.695 177.891 116.153C177.891 116.153 181.237 122.719 190.551 121.244L190.369 118.813Z" fill="#EB996E"/>
<path d="M193.361 93.2627C193.436 93.9674 192.894 94.6114 192.157 94.7047C191.42 94.7934 190.766 94.294 190.692 93.5894C190.622 92.8847 191.158 92.236 191.891 92.1474C192.633 92.054 193.286 92.558 193.361 93.2627Z" fill="#263238"/>
<path d="M194.673 89.9306C194.519 90.1173 193.45 89.4313 192.008 89.5339C190.566 89.6133 189.554 90.4253 189.386 90.2619C189.302 90.1873 189.451 89.8606 189.89 89.4966C190.324 89.1326 191.075 88.7546 191.976 88.6986C192.876 88.6426 193.656 88.9226 194.113 89.2353C194.58 89.5386 194.748 89.8466 194.673 89.9306Z" fill="#263238"/>
<path d="M179.726 94.238C179.801 94.9427 179.26 95.5867 178.522 95.68C177.785 95.7687 177.132 95.2694 177.057 94.5647C176.987 93.86 177.524 93.2114 178.261 93.1227C178.998 93.0294 179.656 93.5334 179.726 94.238Z" fill="#263238"/>
<path d="M180.505 91.1486C180.351 91.3353 179.282 90.6493 177.84 90.7519C176.398 90.8313 175.386 91.6433 175.218 91.4799C175.134 91.4053 175.283 91.0786 175.722 90.7146C176.151 90.3506 176.907 89.9726 177.803 89.9166C178.704 89.8606 179.483 90.1406 179.94 90.4533C180.407 90.7566 180.58 91.0646 180.505 91.1486Z" fill="#263238"/>
<path d="M186.455 101.504C186.441 101.425 187.328 101.205 188.77 100.925C189.134 100.865 189.479 100.767 189.526 100.51C189.596 100.239 189.414 99.852 189.208 99.432C188.802 98.564 188.378 97.654 187.93 96.6973C186.147 92.8006 184.831 89.59 184.99 89.52C185.148 89.45 186.716 92.5486 188.499 96.4453C188.928 97.4066 189.339 98.3213 189.731 99.1986C189.899 99.6093 190.17 100.067 190.02 100.631C189.941 100.911 189.684 101.131 189.451 101.21C189.218 101.299 189.012 101.317 188.83 101.341C187.374 101.518 186.469 101.583 186.455 101.504Z" fill="#263238"/>
<path d="M180.495 85.4645C180.378 85.8658 178.927 85.7771 177.247 86.0945C175.562 86.3791 174.227 86.9671 173.98 86.6265C173.868 86.4631 174.083 86.0805 174.61 85.6605C175.133 85.2451 175.982 84.8251 176.99 84.6431C177.998 84.4658 178.941 84.5638 179.575 84.7738C180.21 84.9884 180.546 85.2778 180.495 85.4645Z" fill="#263238"/>
<path d="M193.861 85.7865C193.627 86.1319 192.61 85.8565 191.415 85.9219C190.216 85.9452 189.222 86.2905 188.965 85.9639C188.853 85.8052 188.989 85.4645 189.413 85.1239C189.829 84.7879 190.543 84.4845 191.364 84.4519C192.185 84.4239 192.918 84.6712 193.357 84.9792C193.805 85.2919 193.963 85.6185 193.861 85.7865Z" fill="#263238"/>
<path d="M165.546 97.108C165.383 97.0473 158.966 95.6286 159.601 102.041C160.235 108.448 167.179 106.362 167.175 106.175C167.165 105.989 165.546 97.108 165.546 97.108Z" fill="#FFBE9D"/>
<path d="M164.332 104.071C164.304 104.052 164.23 104.159 164.048 104.267C163.87 104.369 163.562 104.458 163.217 104.365C162.517 104.183 161.84 103.165 161.696 102.013C161.621 101.429 161.691 100.865 161.85 100.384C161.999 99.8941 162.27 99.5394 162.606 99.4461C162.937 99.3341 163.198 99.5161 163.296 99.6888C163.399 99.8614 163.371 99.9921 163.408 99.9968C163.427 100.011 163.534 99.8754 163.46 99.6141C163.422 99.4881 163.329 99.3481 163.166 99.2361C162.998 99.1241 162.769 99.0868 162.531 99.1334C162.041 99.2174 161.64 99.7168 161.462 100.244C161.257 100.776 161.168 101.415 161.252 102.069C161.42 103.357 162.2 104.5 163.156 104.673C163.618 104.747 163.982 104.575 164.16 104.402C164.337 104.225 164.356 104.08 164.332 104.071Z" fill="#EB996E"/>
<path d="M195.908 76.43C195.469 78.9826 190.294 81.316 186.005 81.1946C182.052 81.078 180.097 79.118 177.222 77.7226C175.402 76.8406 175.402 76.8406 172.938 77.242C170.941 77.5686 169.91 79.9206 168.79 81.6053C170.922 86.258 170.059 91.6666 169.158 96.7066C169.06 97.262 168.934 97.864 168.51 98.2373C167.791 98.872 166.62 98.494 165.915 97.8453C164.781 96.8093 164.263 95.2646 163.894 93.776C163.05 90.3786 162.723 86.818 163.26 83.3553C163.796 79.8926 165.229 76.5326 167.595 73.9473C170.549 70.718 174.87 68.856 179.243 68.632C183.616 68.408 188.007 69.7613 191.666 72.16C193.36 73.266 194.946 74.6426 195.908 76.43Z" fill="#263238"/>
<path d="M187.399 104.747C186.312 104.239 185.22 103.73 184.132 103.226C183.946 103.137 183.745 103.049 183.54 103.077C183.306 103.109 183.124 103.282 182.975 103.459C182.219 104.379 182.028 105.76 182.611 106.796C183.199 107.832 184.576 108.378 185.677 107.921C186.834 107.44 187.399 106.096 187.488 104.845L187.399 104.747Z" fill="#EB996E"/>
<path d="M185.78 108.154C185.789 108.182 185.631 108.275 185.304 108.345C184.982 108.406 184.478 108.434 183.899 108.243C183.325 108.061 182.677 107.613 182.275 106.894C181.869 106.194 181.72 105.209 182.075 104.318C182.243 103.875 182.509 103.483 182.831 103.175C182.994 103.021 183.167 102.89 183.363 102.773C183.465 102.717 183.591 102.661 183.741 102.652C183.885 102.643 184.016 102.68 184.119 102.727C184.333 102.82 184.469 102.923 184.627 103.016C184.781 103.109 184.926 103.203 185.071 103.291C185.351 103.469 185.617 103.632 185.864 103.791C186.835 104.407 187.413 104.813 187.381 104.873C187.348 104.929 186.704 104.626 185.691 104.089C185.435 103.949 185.159 103.8 184.865 103.641C184.716 103.557 184.562 103.473 184.408 103.389C184.254 103.305 184.081 103.198 183.946 103.147C183.797 103.095 183.731 103.1 183.587 103.179C183.442 103.268 183.288 103.389 183.157 103.52C182.887 103.786 182.667 104.117 182.523 104.495C182.224 105.247 182.331 106.063 182.663 106.684C182.989 107.309 183.517 107.72 184.011 107.925C184.511 108.135 184.968 108.163 185.276 108.163C185.593 108.149 185.766 108.121 185.78 108.154Z" fill="#263238"/>
<path d="M184.748 93.426C184.711 93.4307 184.753 92.8287 184.492 91.802C184.235 90.7987 183.563 89.3194 182.051 88.1714C181.3 87.6114 180.357 87.14 179.27 86.9487C178.192 86.7667 176.969 86.7994 175.812 87.2427C175.228 87.448 174.664 87.7514 174.15 88.1387C173.628 88.5167 173.152 88.988 172.76 89.534C171.952 90.612 171.495 91.9934 171.481 93.4167C171.495 94.84 171.948 96.226 172.76 97.304C173.152 97.85 173.628 98.3214 174.15 98.704C174.668 99.0914 175.228 99.3994 175.812 99.6C176.969 100.043 178.192 100.076 179.27 99.894C180.357 99.7027 181.3 99.2314 182.051 98.6714C183.563 97.528 184.235 96.0487 184.492 95.0407C184.753 94.0187 184.711 93.4214 184.748 93.426C184.753 93.426 184.753 93.4634 184.753 93.5334C184.753 93.622 184.748 93.7247 184.748 93.8507C184.748 93.9907 184.744 94.1634 184.706 94.3687C184.678 94.574 184.655 94.8074 184.58 95.0687C184.473 95.5914 184.235 96.212 183.857 96.8747C183.474 97.5327 182.919 98.2234 182.154 98.8114C181.393 99.3947 180.427 99.8894 179.307 100.095C178.196 100.291 176.936 100.263 175.737 99.8147C175.13 99.6094 174.547 99.292 174.01 98.8954C173.469 98.5034 172.974 98.018 172.568 97.4534C171.728 96.338 171.252 94.9054 171.238 93.426C171.252 91.9467 171.728 90.514 172.568 89.3987C172.974 88.834 173.469 88.3487 174.01 87.9567C174.547 87.56 175.13 87.2427 175.737 87.0374C176.941 86.5847 178.196 86.5567 179.307 86.7574C180.427 86.9627 181.393 87.462 182.154 88.0407C182.919 88.6287 183.474 89.3194 183.857 89.9774C184.235 90.64 184.473 91.2607 184.58 91.7834C184.655 92.04 184.678 92.278 184.706 92.4834C184.739 92.6887 184.748 92.8614 184.748 93.0014C184.748 93.1274 184.753 93.2347 184.753 93.3187C184.753 93.3887 184.753 93.426 184.748 93.426Z" fill="#263238"/>
<path d="M200.728 92.7959C200.69 92.8006 200.732 92.2126 200.476 91.2139C200.224 90.2339 199.57 88.7919 198.096 87.6813C197.368 87.1353 196.448 86.6733 195.389 86.4913C194.339 86.3139 193.149 86.3466 192.02 86.7806C191.45 86.9766 190.904 87.2753 190.4 87.6533C189.892 88.0219 189.43 88.4839 189.047 89.0159C188.258 90.0659 187.815 91.4099 187.801 92.8006C187.815 94.1913 188.258 95.5353 189.042 96.5853C189.425 97.1173 189.887 97.5746 190.396 97.9479C190.9 98.3259 191.446 98.6246 192.015 98.8206C193.144 99.2499 194.33 99.2873 195.384 99.1099C196.444 98.9233 197.363 98.4613 198.091 97.9199C199.566 96.8046 200.219 95.3673 200.466 94.3873C200.732 93.3793 200.69 92.7913 200.728 92.7959C200.737 92.7959 200.737 92.9406 200.732 93.2113C200.732 93.3466 200.728 93.5193 200.695 93.7153C200.667 93.9159 200.644 94.1446 200.574 94.3966C200.345 95.3953 199.706 96.8839 198.208 98.0459C197.466 98.6153 196.523 99.1006 195.431 99.2966C194.348 99.4879 193.121 99.4599 191.95 99.0213C191.362 98.8206 190.792 98.5126 190.27 98.1206C189.742 97.7379 189.262 97.2666 188.865 96.7159C188.044 95.6286 187.582 94.2333 187.572 92.7913C187.586 91.3493 188.048 89.9539 188.87 88.8666C189.266 88.3159 189.747 87.8399 190.274 87.4619C190.797 87.0746 191.366 86.7666 191.954 86.5659C193.126 86.1273 194.353 86.0993 195.436 86.2906C196.528 86.4913 197.47 86.9766 198.212 87.5413C199.71 88.7033 200.35 90.1873 200.578 91.1906C200.648 91.4426 200.676 91.6713 200.7 91.8719C200.732 92.0679 200.742 92.2406 200.737 92.3759C200.737 92.6513 200.737 92.7959 200.728 92.7959Z" fill="#263238"/>
<path d="M187.688 91.3212C187.66 91.3492 187.506 91.2185 187.226 91.0832C186.946 90.9479 186.526 90.8172 186.05 90.8265C185.579 90.8312 185.159 90.9805 184.883 91.1252C184.603 91.2699 184.459 91.4052 184.431 91.3819C184.407 91.3632 184.515 91.1765 184.795 90.9805C185.07 90.7845 185.518 90.5932 186.046 90.5839C186.568 90.5745 187.026 90.7472 187.31 90.9339C187.59 91.1205 187.707 91.3025 187.688 91.3212Z" fill="#263238"/>
<path d="M171.767 92.474C171.809 92.53 170.498 93.5753 168.841 94.8073C167.185 96.044 165.813 97.0007 165.771 96.9493C165.729 96.8933 167.04 95.848 168.697 94.616C170.353 93.3793 171.73 92.418 171.767 92.474Z" fill="#263238"/>
<g opacity="0.3">
<path d="M166.244 122.845C165.596 129.177 168.004 135.865 173.081 139.701C173.478 140.004 173.982 140.298 174.448 140.13C174.775 140.013 174.985 139.701 175.158 139.397C176.604 136.891 177.09 134.124 176.674 131.259C175.872 133.377 175.181 135.454 174.369 137.671C169.94 134.987 167.182 129.275 166.244 122.845Z" fill="black"/>
</g>
<path opacity="0.3" d="M183.441 137.246L187.17 135.883L187.786 142.188C187.786 142.188 191.809 134.857 193.475 131.511C195.141 128.165 194.282 122.261 194.282 122.261C194.282 122.261 194.879 127.404 190.847 133.961L187.805 138.907V133.727L183.441 137.246Z" fill="black"/>
<g opacity="0.3">
<path d="M140.078 169.287C138.417 168.503 136.504 168.396 134.679 168.611C132.752 168.835 130.815 169.427 129.303 170.645C127.791 171.863 126.769 173.786 126.956 175.718L127.142 175.746C128.444 172.227 131.03 169.665 134.366 169.353C137.703 169.045 140.956 170.529 143.247 172.974C143.023 171.145 141.744 170.071 140.078 169.287Z" fill="black"/>
</g>
<g opacity="0.3">
<path d="M234.34 172.885C233.09 171.537 231.335 170.72 229.524 170.403C226.346 169.847 222.935 170.837 220.541 173.002L221.25 172.423C223.056 171.364 225.138 170.739 227.233 170.799C229.324 170.86 231.419 171.635 232.936 173.077C234.331 174.402 235.166 176.199 235.964 177.949C236.282 176.143 235.591 174.234 234.34 172.885Z" fill="black"/>
</g>
<path d="M210.313 143.607C210.299 143.602 210.359 143.42 210.481 143.098C210.625 142.729 210.803 142.277 211.013 141.74C211.465 140.597 212.081 139.015 212.739 137.26C213.393 135.501 213.957 133.9 214.363 132.738C214.555 132.197 214.718 131.739 214.849 131.366C214.965 131.044 215.04 130.867 215.054 130.871C215.068 130.876 215.026 131.063 214.937 131.394C214.849 131.725 214.709 132.206 214.527 132.794C214.163 133.97 213.621 135.585 212.968 137.344C212.315 139.103 211.666 140.676 211.176 141.805C210.929 142.37 210.723 142.823 210.574 143.135C210.42 143.443 210.327 143.616 210.313 143.607Z" fill="#263238"/>
<path d="M151.48 144.064C151.415 144.078 150.906 141.857 150.346 139.103C149.786 136.35 149.385 134.11 149.45 134.096C149.516 134.082 150.024 136.303 150.584 139.057C151.144 141.81 151.546 144.05 151.48 144.064Z" fill="#263238"/>
<path d="M150.597 171.826C150.746 171.901 148.889 157.285 148.889 157.285C148.889 157.285 150.06 146.192 150.718 145.679L150.737 141.763C150.737 141.763 152.552 140.662 153.037 142.44C153.037 142.44 154.647 141.045 154.927 144.367C155.207 147.69 155.268 151.092 155.268 151.092L158.847 160.043L159.435 160.341C159.435 160.341 160.205 153.327 160.653 152.296C161.101 151.265 161.409 148.754 163.103 149.132C164.802 149.51 164.942 150.915 164.639 153.201C164.335 155.488 163.953 157.849 164.097 159.329C164.237 160.808 164.909 164.061 164.704 166.641C164.499 169.227 163.085 171.952 161.596 173.865C160.112 175.779 157.275 179.736 155.73 180.931C155.189 181.351 150.597 171.826 150.597 171.826Z" fill="#FFBE9D"/>
<path d="M152.408 159.931C152.389 159.931 152.394 159.707 152.417 159.305C152.45 158.857 152.487 158.288 152.534 157.607C152.641 156.174 152.809 154.195 153.01 152.011C153.113 150.924 153.211 149.883 153.299 148.936C153.346 148.465 153.374 148.021 153.313 147.615C153.257 147.209 153.099 146.859 152.865 146.607C152.394 146.094 151.783 145.963 151.405 145.968C151.008 145.963 150.803 146.071 150.793 146.047C150.789 146.038 150.84 146.015 150.938 145.973C151.041 145.935 151.195 145.889 151.4 145.875C151.801 145.847 152.455 145.949 152.991 146.495C153.257 146.766 153.444 147.158 153.509 147.587C153.584 148.021 153.556 148.483 153.519 148.959C153.435 149.911 153.341 150.947 153.248 152.039C153.047 154.223 152.851 156.197 152.702 157.625C152.623 158.302 152.557 158.871 152.506 159.315C152.459 159.711 152.422 159.931 152.408 159.931Z" fill="#EB996E"/>
<path d="M154.33 153.952C154.368 153.98 153.966 154.33 153.696 155.105C153.406 155.866 153.304 157.014 153.098 158.26C152.907 159.51 152.716 160.64 152.571 161.452C152.422 162.268 152.314 162.768 152.282 162.763C152.249 162.758 152.296 162.245 152.403 161.424C152.506 160.602 152.669 159.468 152.86 158.218C153.061 156.976 153.192 155.824 153.537 155.035C153.7 154.643 153.896 154.358 154.055 154.181C154.209 154.013 154.321 153.943 154.33 153.952Z" fill="#EB996E"/>
<path d="M153.015 142.249C153.033 142.244 153.075 142.407 153.141 142.711C153.206 143.009 153.285 143.443 153.374 143.985C153.551 145.063 153.747 146.561 153.873 148.227C153.995 149.893 154.023 151.405 154.004 152.497C153.995 153.043 153.981 153.486 153.957 153.789C153.939 154.093 153.92 154.261 153.901 154.261C153.864 154.261 153.859 153.584 153.831 152.497C153.803 151.405 153.752 149.902 153.631 148.245C153.509 146.589 153.341 145.091 153.206 144.008C153.071 142.921 152.982 142.253 153.015 142.249Z" fill="#EB996E"/>
<path d="M163.341 155.95C163.379 156.006 162.819 156.263 162.137 156.053C161.451 155.847 161.134 155.32 161.195 155.297C161.251 155.25 161.605 155.647 162.207 155.824C162.805 156.011 163.323 155.88 163.341 155.95Z" fill="#EB996E"/>
<path d="M150.798 170.006L141.338 173.982H135.701C135.701 173.982 130.129 175.723 129.27 180.945C128.412 186.171 128.29 188.859 130.74 189.503C133.19 190.147 140.111 190.222 143.541 189.083C146.971 187.945 155.959 180.693 155.959 180.693L156.827 175.447L150.798 170.006Z" fill="#FFBE9D"/>
<path d="M153.015 175.783C153.001 175.793 152.908 175.709 152.744 175.536C152.576 175.373 152.371 175.102 152.128 174.757C151.662 174.057 151.148 172.997 150.808 171.765C150.453 170.533 150.304 169.381 150.224 168.55C150.154 167.719 150.154 167.201 150.187 167.197C150.224 167.192 150.28 167.705 150.392 168.527C150.514 169.348 150.691 170.482 151.036 171.695C151.372 172.913 151.848 173.954 152.268 174.663C152.702 175.368 153.048 175.751 153.015 175.783Z" fill="#EB996E"/>
<path d="M157.137 177.44C157.085 177.421 157.51 176.703 157.673 175.41C157.753 174.771 157.743 173.991 157.561 173.156C157.379 172.321 156.983 171.462 156.404 170.659C155.83 169.852 155.181 169.152 154.64 168.475C154.089 167.799 153.651 167.141 153.361 166.543C153.072 165.946 152.937 165.419 152.885 165.05C152.839 164.681 152.857 164.476 152.871 164.476C152.918 164.467 152.904 165.311 153.515 166.464C153.814 167.038 154.262 167.673 154.813 168.331C155.363 168.993 156.017 169.693 156.605 170.515C157.197 171.331 157.613 172.237 157.785 173.1C157.963 173.963 157.949 174.771 157.846 175.424C157.743 176.082 157.561 176.591 157.412 176.927C157.342 177.095 157.272 177.221 157.221 177.305C157.169 177.403 157.141 177.445 157.137 177.44Z" fill="#EB996E"/>
<path d="M142.551 154.667C142.49 154.699 141.459 152.819 140.245 150.471C139.032 148.124 138.099 146.197 138.155 146.164C138.215 146.131 139.247 148.012 140.46 150.359C141.673 152.707 142.611 154.634 142.551 154.667Z" fill="white"/>
<path d="M157.85 137.638C157.789 137.61 158.428 136.047 159.273 134.143C160.122 132.239 160.86 130.717 160.92 130.745C160.981 130.773 160.342 132.337 159.497 134.241C158.648 136.145 157.91 137.666 157.85 137.638Z" fill="white"/>
<path d="M172.828 148.689C172.777 148.731 171.815 147.657 170.686 146.29C169.552 144.923 168.679 143.779 168.731 143.737C168.782 143.695 169.743 144.769 170.873 146.136C172.002 147.503 172.879 148.647 172.828 148.689Z" fill="white"/>
<path d="M169.38 163.888C169.324 163.851 170.047 162.759 170.995 161.452C171.942 160.145 172.754 159.119 172.805 159.161C172.861 159.198 172.138 160.29 171.191 161.597C170.248 162.903 169.436 163.93 169.38 163.888Z" fill="white"/>
<path d="M164.741 185.359C164.713 185.373 164.498 185.019 164.195 184.421C163.887 183.824 163.49 182.989 163.094 182.051C162.692 181.108 162.37 180.245 162.151 179.61C161.936 178.975 161.824 178.574 161.857 178.565C161.89 178.555 162.058 178.933 162.314 179.549C162.608 180.249 162.944 181.061 163.318 181.957C163.7 182.849 164.05 183.651 164.354 184.351C164.615 184.958 164.774 185.341 164.741 185.359Z" fill="white"/>
<path d="M177.92 176.231C177.906 176.297 176.636 176.105 175.087 175.807C173.533 175.508 172.287 175.209 172.301 175.144C172.315 175.079 173.584 175.27 175.134 175.569C176.688 175.867 177.934 176.166 177.92 176.231Z" fill="white"/>
<path d="M188.144 156.169C188.093 156.123 189.306 154.741 190.846 153.075C192.386 151.414 193.679 150.103 193.725 150.149C193.777 150.196 192.563 151.577 191.023 153.243C189.479 154.905 188.191 156.216 188.144 156.169Z" fill="white"/>
<path d="M198.426 182.923C198.375 182.965 196.868 181.22 195.057 179.022C193.246 176.824 191.823 175.009 191.874 174.967C191.926 174.925 193.433 176.67 195.244 178.868C197.054 181.066 198.478 182.881 198.426 182.923Z" fill="white"/>
<path d="M134.595 171.523C134.628 171.588 133.251 172.288 131.748 173.441C130.241 174.584 129.2 175.732 129.144 175.681C129.121 175.662 129.35 175.349 129.779 174.887C130.204 174.43 130.838 173.833 131.599 173.249C132.36 172.671 133.106 172.218 133.662 171.924C134.217 171.635 134.581 171.495 134.595 171.523Z" fill="white"/>
<path d="M138.439 161.209C138.495 161.247 138.005 162.082 137.343 163.076C136.68 164.07 136.101 164.845 136.045 164.807C135.989 164.77 136.479 163.935 137.142 162.941C137.8 161.947 138.383 161.172 138.439 161.209Z" fill="white"/>
<path d="M147.101 171.336C147.05 171.369 146.56 170.552 146.308 169.418C146.046 168.289 146.135 167.341 146.196 167.346C146.27 167.346 146.294 168.265 146.546 169.362C146.788 170.463 147.166 171.303 147.101 171.336Z" fill="white"/>
<path d="M148.385 139.173C148.394 139.239 147.591 139.411 146.588 139.551C145.585 139.696 144.763 139.757 144.754 139.691C144.745 139.626 145.547 139.453 146.551 139.313C147.554 139.169 148.375 139.108 148.385 139.173Z" fill="white"/>
<path d="M154.89 127.633C154.923 127.693 154.218 128.146 153.317 128.645C152.417 129.145 151.656 129.504 151.628 129.443C151.595 129.383 152.3 128.93 153.201 128.431C154.101 127.931 154.857 127.577 154.89 127.633Z" fill="white"/>
<path d="M173.189 132.509C173.138 132.551 172.33 131.581 171.388 130.344C170.445 129.107 169.726 128.076 169.782 128.034C169.834 127.992 170.641 128.963 171.584 130.199C172.522 131.431 173.245 132.467 173.189 132.509Z" fill="white"/>
<path d="M196.414 144.111C196.368 144.153 195.518 143.28 194.734 142.011C193.941 140.741 193.535 139.598 193.591 139.575C193.656 139.547 194.16 140.634 194.94 141.885C195.719 143.135 196.47 144.064 196.414 144.111Z" fill="white"/>
<path d="M205.281 147.032C205.342 147.06 204.913 148.143 204.32 149.445C203.727 150.751 203.2 151.787 203.135 151.759C203.074 151.731 203.503 150.649 204.096 149.347C204.689 148.04 205.221 147.004 205.281 147.032Z" fill="white"/>
<path d="M206.523 134.931C206.471 134.973 205.417 133.793 204.166 132.29C202.915 130.787 201.945 129.532 201.996 129.49C202.047 129.448 203.102 130.629 204.353 132.131C205.599 133.639 206.574 134.889 206.523 134.931Z" fill="white"/>
<path d="M192.98 125.103C192.914 125.108 192.816 124.095 192.77 122.84C192.718 121.589 192.737 120.572 192.802 120.567C192.868 120.563 192.966 121.575 193.012 122.831C193.064 124.086 193.05 125.103 192.98 125.103Z" fill="white"/>
<path d="M204.02 124.492C204.029 124.557 202.737 124.786 201.141 125.001C199.54 125.215 198.238 125.332 198.229 125.267C198.219 125.201 199.507 124.973 201.108 124.758C202.704 124.543 204.011 124.427 204.02 124.492Z" fill="white"/>
<path d="M221.409 137.265C221.348 137.293 220.573 135.813 219.673 133.961C218.777 132.108 218.095 130.577 218.156 130.549C218.217 130.521 218.991 132.001 219.892 133.853C220.788 135.706 221.469 137.237 221.409 137.265Z" fill="white"/>
<path d="M218.478 148.301C218.413 148.287 218.595 147.097 218.884 145.646C219.173 144.19 219.463 143.023 219.528 143.037C219.593 143.051 219.411 144.241 219.122 145.693C218.833 147.144 218.548 148.315 218.478 148.301Z" fill="white"/>
<path d="M226.546 157C226.481 157.023 225.865 155.418 225.16 153.416C224.46 151.414 223.942 149.771 224.008 149.748C224.073 149.725 224.689 151.33 225.394 153.332C226.094 155.339 226.607 156.977 226.546 157Z" fill="white"/>
<path d="M225.422 162.091C225.408 162.152 224.292 161.919 223.065 161.247C221.833 160.584 221.026 159.777 221.072 159.735C221.119 159.679 221.978 160.388 223.182 161.037C224.376 161.685 225.445 162.021 225.422 162.091Z" fill="white"/>
<path d="M235.755 173.693C235.694 173.721 235.321 173.011 234.919 172.111C234.518 171.21 234.243 170.459 234.303 170.431C234.364 170.403 234.737 171.112 235.139 172.013C235.54 172.913 235.815 173.665 235.755 173.693Z" fill="white"/>
<path d="M174.732 189.877C174.667 189.886 174.504 188.958 174.368 187.81C174.233 186.662 174.182 185.724 174.247 185.714C174.312 185.705 174.476 186.634 174.611 187.782C174.746 188.93 174.798 189.868 174.732 189.877Z" fill="white"/>
<path d="M206.434 189.074C206.369 189.06 206.504 188.155 206.738 187.053C206.971 185.952 207.214 185.07 207.279 185.084C207.344 185.098 207.209 186.003 206.976 187.105C206.742 188.206 206.5 189.088 206.434 189.074Z" fill="white"/>
<path d="M212.51 96.5388L216.607 89.3148C214.792 86.3701 213.746 82.9075 213.746 79.1975C213.746 68.5248 222.398 59.8728 233.071 59.8728C243.744 59.8728 252.396 68.5248 252.396 79.1975C252.396 89.8701 243.744 98.5221 233.071 98.5221C228.614 98.5221 224.512 97.0101 221.246 94.4761L221.25 94.4855L212.51 96.5388Z" fill="#FAFAFA"/>
<path d="M212.51 96.5387C212.925 96.4454 215.692 95.8107 221.264 94.5367L221.353 94.518L221.297 94.4434L221.292 94.434L221.208 94.518C222.31 95.372 223.63 96.212 225.184 96.9167C226.738 97.6074 228.521 98.1674 230.486 98.4287C231.466 98.5547 232.492 98.634 233.547 98.5827C234.074 98.5547 234.611 98.5407 235.152 98.494C235.689 98.4147 236.235 98.3307 236.786 98.2467C238.974 97.8127 241.21 96.982 243.3 95.6894C245.386 94.3967 247.318 92.6467 248.868 90.4954C250.412 88.344 251.584 85.796 252.134 83.0287C252.676 80.2614 252.634 77.298 251.906 74.428C251.173 71.5674 249.806 68.7767 247.762 66.4807L246.973 65.6127C246.712 65.3187 246.404 65.0807 246.124 64.81C245.83 64.558 245.564 64.2687 245.246 64.0447L244.318 63.3494C244.019 63.1067 243.688 62.9107 243.356 62.7147C243.03 62.514 242.703 62.318 242.376 62.1174C242.031 61.9494 241.69 61.786 241.35 61.618C241.004 61.4594 240.673 61.2727 240.314 61.156C237.504 60.0407 234.513 59.616 231.648 59.826C228.782 60.0314 226.043 60.8527 223.696 62.178C221.339 63.4894 219.351 65.244 217.816 67.1994C216.276 69.1594 215.193 71.3154 214.521 73.4667C213.854 75.6274 213.672 77.7694 213.681 79.7527C213.737 81.7407 214.101 83.5747 214.628 85.18C215.156 86.79 215.851 88.176 216.565 89.338V89.282C213.975 93.9207 212.71 96.184 212.51 96.5387C212.715 96.184 214.008 93.9394 216.658 89.3427L216.677 89.3147L216.658 89.2867C215.954 88.1247 215.272 86.7434 214.754 85.1427C214.241 83.542 213.886 81.7267 213.84 79.7527C213.84 77.7834 214.026 75.6647 214.694 73.5274C215.366 71.3994 216.444 69.2667 217.97 67.33C219.491 65.398 221.46 63.6667 223.794 62.374C226.118 61.0674 228.829 60.26 231.657 60.0594C234.485 59.8587 237.444 60.2787 240.216 61.38C240.57 61.492 240.897 61.6787 241.238 61.8374C241.574 62.0007 241.914 62.164 242.25 62.332C242.572 62.528 242.894 62.724 243.221 62.92C243.548 63.116 243.874 63.3074 244.168 63.55L245.083 64.236C245.396 64.4554 245.657 64.74 245.946 64.992C246.222 65.258 246.53 65.496 246.786 65.7854L247.566 66.644C249.586 68.912 250.935 71.67 251.658 74.4934C252.377 77.326 252.424 80.2567 251.892 82.9914C251.35 85.726 250.198 88.2507 248.672 90.374C247.146 92.5067 245.237 94.2427 243.174 95.5214C241.112 96.8094 238.9 97.6354 236.734 98.0694C236.188 98.1534 235.647 98.2374 235.12 98.3167C234.583 98.3634 234.051 98.3774 233.533 98.41C232.488 98.466 231.47 98.3867 230.5 98.2654C228.549 98.0134 226.78 97.4627 225.236 96.786C223.691 96.0954 222.375 95.2694 221.274 94.4294L220.914 94.154L221.19 94.5134L221.194 94.5227L221.227 94.4294C215.683 95.7687 212.925 96.4407 212.51 96.5387Z" fill="#263238"/>
<path d="M238.289 78.39C238.289 79.4307 239.134 80.28 240.179 80.28C241.224 80.28 242.069 79.4353 242.069 78.39C242.069 77.3493 241.224 76.5 240.179 76.5C239.134 76.5 238.289 77.3493 238.289 78.39Z" fill="#263238"/>
<path d="M230.734 78.39C230.734 79.4307 231.579 80.28 232.624 80.28C233.67 80.28 234.514 79.4353 234.514 78.39C234.514 77.3493 233.67 76.5 232.624 76.5C231.579 76.5 230.734 77.3493 230.734 78.39Z" fill="#263238"/>
<path d="M223.197 77.4473C222.674 78.3526 222.987 79.5053 223.887 80.028C224.793 80.5506 225.945 80.238 226.468 79.3373C226.991 78.432 226.678 77.2793 225.777 76.7566C224.872 76.234 223.715 76.542 223.197 77.4473Z" fill="#263238"/>
</svg>
