<svg width="150" height="100" viewBox="0 0 150 100" fill="none" xmlns="http://www.w3.org/2000/svg">
<g clip-path="url(#clip0_695_7611)">
<path d="M145.158 92.5514H144.438V99.7942H145.158V95.9465H145.179L148.8 99.7942H149.891L146.043 95.8436L149.685 92.5514H148.636L145.199 95.8024H145.179L145.158 92.5514ZM142.339 98.251C142.113 98.6008 141.784 98.8888 141.393 99.074C141.022 99.2386 140.611 99.3415 140.199 99.3415C139.767 99.3415 139.335 99.2592 138.944 99.074C138.594 98.9094 138.265 98.6831 137.998 98.395C137.73 98.1069 137.524 97.7571 137.401 97.3868C137.113 96.6049 137.113 95.7613 137.401 94.9794C137.524 94.609 137.73 94.2592 137.998 93.9711C138.553 93.3539 139.356 93.0041 140.199 93.0246C140.426 93.0246 140.631 93.0452 140.837 93.1069C141.022 93.1481 141.208 93.2304 141.393 93.3127C141.557 93.395 141.701 93.4979 141.845 93.6213C141.969 93.7242 142.072 93.8477 142.154 93.9711L142.771 93.5185C142.648 93.3333 142.483 93.1687 142.319 93.0452C142.134 92.9012 141.928 92.7777 141.701 92.6954C141.475 92.5925 141.228 92.5102 140.981 92.4485C140.714 92.4074 140.467 92.3662 140.199 92.3662C139.685 92.3662 139.171 92.4691 138.697 92.6543C138.245 92.8395 137.833 93.1069 137.504 93.4362C136.804 94.1563 136.413 95.144 136.434 96.1522C136.434 96.6666 136.537 97.181 136.722 97.6749C136.907 98.1275 137.154 98.539 137.504 98.8683C137.854 99.1975 138.245 99.4856 138.697 99.6707C139.171 99.8559 139.685 99.9588 140.199 99.9588C140.508 99.9588 140.817 99.9176 141.105 99.8559C141.372 99.7942 141.619 99.6913 141.866 99.5473C142.092 99.4238 142.298 99.2798 142.483 99.1152C142.648 98.9506 142.792 98.786 142.936 98.6008L142.339 98.251ZM134.788 92.5514H134.068V99.7942H134.788V92.5514ZM123.841 92.5514H123.059L125.199 99.7942H126.064L127.874 93.5802H127.895L129.706 99.7942H130.57L132.71 92.5514H131.928L130.158 98.7654H130.117L128.306 92.5514H127.422L125.611 98.7654H125.59L123.841 92.5514ZM118.101 93.1893H119.397C119.644 93.1893 119.891 93.2098 120.138 93.2716C120.343 93.3127 120.529 93.395 120.714 93.4979C120.878 93.6008 121.002 93.7242 121.084 93.8888C121.187 94.074 121.228 94.3004 121.228 94.5061C121.249 94.8971 121.064 95.2674 120.755 95.4732C120.343 95.7201 119.87 95.823 119.397 95.8024H118.121L118.101 93.1893ZM118.101 96.3991H119.335L121.352 99.7736H122.236L120.117 96.3374C120.364 96.3168 120.611 96.2551 120.837 96.1522C121.064 96.0699 121.249 95.9259 121.413 95.7613C121.578 95.5967 121.701 95.4115 121.804 95.1851C121.907 94.9588 121.948 94.7119 121.948 94.465C121.969 94.1563 121.887 93.8477 121.763 93.5802C121.64 93.3333 121.475 93.1275 121.249 92.9835C121.002 92.8189 120.755 92.716 120.467 92.6543C120.138 92.5925 119.808 92.5514 119.479 92.5514H117.36V99.7942H118.08L118.101 96.3991ZM112.73 93.3744L114.335 97.2222H111.146L112.73 93.3744ZM110.858 97.8806H114.603L115.385 99.7736H116.208L113.101 92.5308H112.38L109.253 99.7736H110.055L110.858 97.8806ZM100.776 92.5514H99.9936L102.134 99.7942H102.977L104.788 93.5802H104.808L106.619 99.7942H107.483L109.603 92.5514H108.841L107.072 98.7654L105.261 92.5514H104.376L102.566 98.7654H102.545L100.776 92.5514ZM93.1624 96.358H96.5368V95.6995H93.1624V93.2098H96.7837V92.5514H92.4216V99.7942H93.1418L93.1624 96.358ZM89.8084 97.3868C89.685 97.7571 89.4792 98.1069 89.2117 98.395C88.6562 99.0123 87.8537 99.3415 87.0101 99.3415C86.578 99.3415 86.1459 99.2592 85.7549 99.074C85.0348 98.7448 84.4792 98.1481 84.2117 97.3868C83.9442 96.6049 83.9442 95.7613 84.2117 94.9794C84.4792 94.2386 85.0348 93.6214 85.7549 93.2921C86.1459 93.107 86.578 93.0246 87.0101 93.0452C87.4422 93.0452 87.8743 93.1275 88.2652 93.2921C88.615 93.4567 88.9442 93.6831 89.2117 93.9917C89.4792 94.2798 89.685 94.6296 89.8084 95C90.0965 95.7613 90.0965 96.6049 89.8084 97.3868ZM90.508 94.6502C90.3228 94.1975 90.0554 93.786 89.7261 93.4567C89.3763 93.1069 88.9648 92.8395 88.5121 92.6749C88.0389 92.4897 87.5245 92.3868 87.0101 92.3868C86.4957 92.3868 85.9813 92.4897 85.508 92.6749C85.0554 92.86 84.6644 93.1275 84.3146 93.4567C83.9648 93.8065 83.6973 94.2181 83.5327 94.6502C83.3475 95.144 83.2447 95.6584 83.2447 96.1728C83.2447 96.6872 83.3475 97.2016 83.5327 97.6954C83.7179 98.1481 83.9854 98.5596 84.3146 98.8888C84.6644 99.2181 85.0554 99.4855 85.508 99.6913C86.4751 100.062 87.5451 100.062 88.5121 99.6913C88.9648 99.5061 89.3763 99.2386 89.7261 98.8888C90.0759 98.539 90.3434 98.1275 90.508 97.6954C90.8784 96.7283 90.8784 95.6378 90.508 94.6502ZM77.4628 96.6666L80.1582 92.5514H79.294L77.0924 96.0493L74.9113 92.5514H73.9854L76.7014 96.6666V99.7942H77.4422L77.4628 96.6666ZM70.7549 93.2098H73.1829V92.5514H67.6068V93.2098H70.0348V99.7942H70.7549V93.2098ZM66.578 92.572H65.8578V99.7942H66.578V92.572ZM64.2117 93.251C64.006 92.9835 63.7385 92.7777 63.4298 92.6337C63.0389 92.4485 62.6068 92.3662 62.1747 92.3662C61.9072 92.3662 61.6397 92.4074 61.3722 92.4691C61.1047 92.5514 60.8578 92.6749 60.6315 92.8395C60.4051 93.0041 60.22 93.2098 60.0965 93.4567C59.9525 93.7448 59.8907 94.0534 59.8907 94.3621C59.8907 94.6502 59.9525 94.9176 60.0554 95.1851C60.1582 95.4115 60.3228 95.5967 60.508 95.7613C60.6932 95.9053 60.899 96.0288 61.1253 96.1316C61.3517 96.2345 61.5986 96.3168 61.8249 96.3991C62.0512 96.4814 62.2776 96.5432 62.4833 96.6255C62.6891 96.6872 62.8743 96.7901 63.0389 96.9135C63.2035 97.0164 63.327 97.1604 63.4298 97.3251C63.6356 97.716 63.6356 98.1687 63.4298 98.5596C63.327 98.7242 63.2035 98.8683 63.0389 98.9917C62.8949 99.1152 62.7097 99.2181 62.5245 99.2592C62.3393 99.3209 62.1541 99.3415 61.9689 99.3415C61.6191 99.3415 61.2693 99.2592 60.9813 99.074C60.7138 98.9094 60.4875 98.7037 60.3228 98.4362L59.685 98.9094C59.8084 99.074 59.9731 99.2386 60.1377 99.3827C60.3023 99.5267 60.4875 99.6296 60.6932 99.7119C60.899 99.8148 61.1047 99.8765 61.3105 99.9176C61.5163 99.9588 61.7426 99.9794 61.9689 99.9794C62.257 99.9794 62.5451 99.9382 62.8331 99.8559C63.1006 99.7736 63.3681 99.6502 63.5945 99.465C63.8208 99.3004 64.006 99.074 64.1294 98.8271C64.2735 98.539 64.3352 98.2098 64.3352 97.9012C64.3558 97.3251 64.1089 96.7695 63.6356 96.4197C63.4298 96.2757 63.1829 96.1522 62.936 96.0493C62.6891 95.9465 62.4216 95.8641 62.1747 95.7818C61.9689 95.6995 61.7837 95.6378 61.5986 95.5761C61.4134 95.5144 61.2488 95.4321 61.1047 95.3086C60.9607 95.2057 60.8373 95.0823 60.7549 94.9176C60.6521 94.753 60.6109 94.5473 60.6109 94.3415C60.6109 94.1358 60.6521 93.93 60.7549 93.7242C60.8373 93.5596 60.9607 93.4156 61.1253 93.3127C61.2693 93.2098 61.434 93.1069 61.6191 93.0658C61.8043 93.0246 61.9895 92.9835 62.1541 92.9835C62.4628 92.9629 62.7714 93.0452 63.0389 93.1893C63.2858 93.3127 63.4916 93.4979 63.6562 93.7037L64.2117 93.251ZM54.6438 93.1893H55.9607C56.2076 93.1893 56.4545 93.2098 56.7014 93.2716C56.9072 93.3127 57.0924 93.395 57.2776 93.4979C57.4422 93.6008 57.5656 93.7242 57.6479 93.8888C57.7508 94.074 57.792 94.3004 57.792 94.5061C57.8126 94.8971 57.6274 95.2674 57.2982 95.4732C56.8866 95.7201 56.4134 95.823 55.9401 95.8024H54.6644L54.6438 93.1893ZM54.6438 96.3991H55.8784L57.8949 99.7736H58.8002L56.6809 96.3374C56.9278 96.3168 57.1747 96.2551 57.401 96.1522C57.6274 96.0699 57.8126 95.9259 57.9772 95.7613C58.1418 95.5967 58.2858 95.4115 58.3681 95.1851C58.471 94.9588 58.5121 94.7119 58.5121 94.465C58.5327 94.1563 58.4504 93.8477 58.327 93.5802C58.2035 93.3333 58.0389 93.1481 57.8126 92.9835C57.5657 92.8189 57.2982 92.716 57.0101 92.6543C56.6809 92.5925 56.3517 92.5514 56.0224 92.5514H53.9031V99.7942H54.6233V96.3991H54.6438ZM48.5121 96.3374H52.0101V95.679H48.5121V93.2098H52.2364V92.5514H47.7508V99.7942H52.3599V99.1358H48.4916L48.5121 96.3374ZM41.1665 92.5514H40.364L43.1212 99.7942H43.9031L46.6603 92.5514H45.8578L43.5122 98.8271H43.4916L41.1665 92.5514ZM39.1294 92.5514H38.4093V99.7942H39.1294V92.5514ZM31.722 92.5514H30.7961V99.7942H31.5368V93.5802H31.5574L35.7755 99.7942H36.6809V92.5514H35.9401V98.7037H35.9196L31.722 92.5514ZM27.7303 99.6913C28.0595 99.5267 28.3475 99.2798 28.5533 98.9917C28.7591 98.7036 28.9031 98.395 28.9648 98.0658C29.0266 97.7571 29.0677 97.4279 29.0677 97.1193V92.5925H28.3475V97.0576C28.3475 97.3456 28.327 97.6337 28.2447 97.9218C28.1829 98.1893 28.0595 98.4362 27.9154 98.6625C27.7508 98.8888 27.5451 99.0534 27.2982 99.1769C27.0101 99.3209 26.7014 99.3827 26.3722 99.3827C26.043 99.4032 25.7344 99.3209 25.4463 99.1769C25.1994 99.0534 24.9936 98.8683 24.829 98.6625C24.685 98.4362 24.5615 98.1893 24.4998 97.9218C24.4175 97.6337 24.3969 97.3456 24.3969 97.0576V92.5925H23.6562V97.1193C23.6562 97.4485 23.6973 97.7571 23.7591 98.0658C23.8414 98.395 23.9648 98.7242 24.1706 98.9917C24.3969 99.2798 24.6644 99.5267 24.9936 99.6913C25.4052 99.8971 25.8784 100 26.3311 99.9794C26.8043 100 27.257 99.8971 27.6685 99.6913M15.6726 96.3374H19.1706V95.679H15.6726V93.2098H19.4175V92.5514H14.9319V99.7942H19.541V99.1358H15.6726V96.3374ZM7.64796 99.7736H8.36812V96.3374H12.3187V99.753H13.0595V92.5308H12.3187V95.679H8.36812V92.5514H7.64796V99.7736ZM3.9031 93.2098H6.31051V92.5514H0.734375V93.2098H3.14178V99.7942H3.86195L3.9031 93.2098Z" fill="#5E6278"/>
<path d="M23.4914 85.3087L30.0964 62.7778H27.8742L22.154 82.7367L16.8453 64.6914H14.1087L8.71778 82.7367L2.99761 62.7778H0.775391L7.38033 85.3087H10.0141L15.4667 67.1811L20.8371 85.3087H23.4914ZM101.948 85.3087H104.109V62.7778H101.948V85.3087ZM101.948 85.3087H104.109V62.7778H101.948V85.3087ZM101.948 85.3087H104.109V62.7778H101.948V85.3087ZM146.804 85.3087H149.891L137.998 74.0535L149.253 62.7984H146.29L134.788 74.0535L146.804 85.3087Z" fill="#5E6278"/>
<path d="M133.616 62.7778H131.455V85.3087H133.616V62.7778Z" fill="#5E6278"/>
<path d="M39.8282 62.7778H37.8117L27.75 85.3087H29.9928L32.5854 79.321H45.0339L47.6265 85.3087H49.8693L39.8282 62.7778ZM33.4496 77.428L38.82 65.0824L44.1903 77.428H33.4496Z" fill="#5E6278"/>
<path d="M39.8282 62.7778H37.8117L27.75 85.3087H29.9928L32.5854 79.321H45.0339L47.6265 85.3087H49.8693L39.8282 62.7778ZM33.4496 77.428L38.82 65.0824L44.1903 77.428H33.4496Z" fill="#5E6278"/>
<path d="M91.7219 85.3087L98.3268 62.7778H96.1252L90.405 82.7367L85.1993 64.6914H82.2569L76.9482 82.7367L71.2281 62.7778H69.0059L75.6314 85.3087H78.2651L83.7384 67.1605L89.0882 85.3087H91.7219Z" fill="#5E6278"/>
<path d="M119.809 83.9712C113.78 83.9712 110.035 79.6502 110.035 74.0329C110.035 68.4362 113.78 64.0535 119.809 64.0535C122.134 64.0535 124.994 65.1235 126.599 67.5515L128.348 66.2552C126.167 63.3334 123.163 62.1605 119.789 62.1605C112.752 62.1605 107.875 67.1811 107.875 74.0535C107.875 80.926 112.752 85.9054 119.789 85.9054C123.163 85.9054 126.167 84.7325 128.348 81.7902L126.599 80.4939C124.994 82.8807 122.134 83.9712 119.809 83.9712Z" fill="#5E6278"/>
<path d="M61.1672 74.8149C63.6775 74.3828 66.8257 73.0659 66.8257 68.8889C66.8257 62.963 60.838 62.7778 59.0273 62.7778H52.5664V85.3087H54.7063V64.6914H59.3154C63.8421 64.6914 64.6857 67.3457 64.6857 68.9095C64.6857 70.4733 63.801 73.1276 59.3154 73.1276H56.8668V75.0412H59.0273L65.2001 85.3293H67.6487L61.1672 74.8149Z" fill="#5E6278"/>
<path d="M23.2852 0.102905L52.5033 51.5432L75.4456 10.9671L98.4909 51.5432L127.565 0.102905H23.2852Z" fill="white"/>
<path d="M23.2852 0.102905L52.5033 51.5432L75.4456 10.9671L98.4909 51.5432L127.565 0.102905H23.2852Z" fill="#5E6278"/>
</g>
<defs>
<clipPath id="clip0_695_7611">
<rect width="149.177" height="100" fill="white" transform="translate(0.693359)"/>
</clipPath>
</defs>
</svg>
