<svg width="340" height="100" viewBox="0 0 340 100" fill="none" xmlns="http://www.w3.org/2000/svg">
<g clip-path="url(#clip0_695_6786)">
<path d="M26.9554 3.68188C33.6441 0.981998 41.0481 0.117674 48.184 1.14161C58.1162 2.52694 67.4311 7.7445 73.8593 15.4346C77.2639 19.4731 79.884 24.1727 81.5117 29.199C83.5295 35.3878 84.0098 42.0585 82.9738 48.4822C82.0538 54.2313 79.8809 59.7786 76.636 64.6137C74.1544 68.324 71.0555 71.6171 67.5229 74.3441C67.2187 74.5805 66.9507 74.8576 66.6827 75.1332C62.4333 79.4503 56.8423 82.3805 50.905 83.537C50.1446 83.6921 49.3781 83.814 48.6117 83.9255C48.8632 84.9976 49.2276 86.0396 49.6447 87.059C49.3676 87.3331 49.0905 87.6101 48.8135 87.8872C48.0651 87.4686 47.0156 87.7035 46.6256 88.4955C46.1211 89.3689 46.7355 90.5916 47.7308 90.7211C48.5364 90.8732 49.2381 90.3386 49.7425 89.774C50.0648 91.0945 49.9609 92.5311 49.2983 93.7327C47.9958 96.1706 45.5956 97.8435 43.0674 98.8298C42.7045 98.9472 42.3205 99.1972 41.9365 99.015C39.2758 98.0889 36.7325 96.4296 35.2869 93.954C34.5341 92.7088 34.3699 91.1849 34.7238 89.7845C35.2282 90.4124 36.0398 90.9184 36.8695 90.6895C37.7459 90.4787 38.2654 89.4141 37.8769 88.5964C37.5486 87.7878 36.5051 87.4415 35.7447 87.8526C35.4451 87.5815 35.1605 87.2939 34.8759 87.0063C35.5234 85.8935 36.1287 84.7506 36.5624 83.5355C34.9918 83.2283 33.4589 82.7615 31.923 82.3308C29.9053 83.0627 27.6586 83.1891 25.6017 82.5416C22.4516 81.6066 19.9143 78.9564 19.0651 75.7882C12.7287 71.4831 7.63912 65.3696 4.5658 58.3526C1.85237 52.2075 0.700439 45.3893 1.21542 38.693C1.74847 31.5179 4.23905 24.504 8.33329 18.5892C12.9049 11.9411 19.4641 6.68142 26.9554 3.68188ZM37.3107 2.18964C29.9851 3.0901 22.941 6.10319 17.2099 10.7486C10.7501 15.942 5.96017 23.1834 3.7587 31.1776C1.80418 38.2082 1.83581 45.7748 3.84604 52.7887C6.2538 61.304 11.6114 68.9368 18.7744 74.1288C18.5953 72.1412 19.0771 70.1219 20.0815 68.4038C19.5951 67.943 19.1283 67.4627 18.6856 66.9597C18.7925 66.8814 18.8994 66.8031 19.0078 66.7263C19.4656 67.1254 19.9625 67.4777 20.4639 67.824C21.4894 66.3664 22.9048 65.1949 24.5326 64.4707C21.3057 61.9424 18.6224 58.72 16.7401 55.076C14.248 50.3554 13.1338 44.918 13.5644 39.5965C13.986 33.9603 16.1514 28.4747 19.6689 24.0522C23.3807 19.3466 28.5877 15.8366 34.3549 14.1983C39.1192 12.8356 44.2344 12.7226 49.0514 13.8821C53.9362 15.0506 58.4942 17.5321 62.1337 20.994C65.2236 23.9182 67.6614 27.5321 69.1959 31.5029C70.8266 35.6965 71.432 40.2786 70.9757 44.7523C70.4472 50.0949 68.3541 55.2612 65.0429 59.485C61.5073 64.0204 56.5939 67.4732 51.1098 69.2169C50.509 69.3795 49.9789 69.7469 49.6176 70.2529C48.687 71.5403 48.3241 73.147 48.1735 74.704C54.1952 76.0622 60.6249 75.8047 66.4342 73.6695C72.7164 68.988 77.544 62.3776 80.0963 54.9706C82.2285 48.8074 82.8097 42.1187 81.8099 35.6769C80.932 29.9926 78.7877 24.5115 75.594 19.7306C71.1142 12.9967 64.5565 7.66319 57.0321 4.68775C50.8101 2.2047 43.9543 1.35694 37.3107 2.18964ZM37.6104 14.6455C32.2362 15.552 27.1662 18.1299 23.2361 21.9004C19.0816 25.8516 16.201 31.1264 15.1651 36.7686C14.2736 41.5028 14.6531 46.4704 16.2733 51.0089C18.0396 56.0337 21.2997 60.5134 25.5234 63.7584C25.6785 63.8623 25.8411 64.052 26.0504 63.9572C27.6692 63.5476 29.3903 63.5491 31 64.0024C33.5944 64.7056 35.8652 66.5336 37.0803 68.9353C42.6533 70.0225 48.5605 69.3268 53.7223 66.9597C58.6132 64.7387 62.8188 61.051 65.6753 56.5035C69.0528 51.1836 70.4893 44.6785 69.6943 38.4295C69.1432 33.9136 67.4341 29.5484 64.7884 25.8501C61.8777 21.7634 57.8437 18.4838 53.2345 16.5007C48.3557 14.3775 42.8505 13.7345 37.6104 14.6455ZM21.4668 68.4791C21.9788 68.7862 22.4937 69.0889 23.0148 69.3825C24.2962 67.6313 26.4299 66.5246 28.6103 66.5848C29.6628 66.5818 30.6868 66.8799 31.6414 67.3076C32.8942 67.8271 34.1817 68.2607 35.4963 68.592C33.9558 66.2731 31.2303 64.7884 28.4401 64.8079C25.6951 64.7808 23.0117 66.2189 21.4668 68.4791ZM24.0869 69.9638C25.6228 70.7317 27.1783 71.462 28.7624 72.1276C29.2201 72.3309 29.7682 72.5071 29.9941 73.001C30.3826 73.7252 29.9429 74.7281 29.1343 74.9103C28.538 75.094 28.0019 74.6965 27.5201 74.4074C26.0655 73.4617 24.6877 72.4032 23.3611 71.2859C22.7392 72.7239 22.825 74.4405 23.5222 75.8364C24.1757 77.1479 25.3713 78.092 26.6437 78.7651C30.3088 80.7678 34.3519 82.0372 38.4642 82.7133C41.7122 83.2584 45.0324 83.2102 48.2925 82.8052C51.7181 82.37 55.0911 81.4183 58.1795 79.8598C60.4969 78.7049 62.6321 77.2051 64.5625 75.484C59.3435 76.9235 53.7886 77.0591 48.4942 75.9478C42.9469 74.8184 37.7369 72.4167 32.9394 69.4593C31.8342 68.848 30.7967 68.0198 29.5137 67.8271C27.4885 67.4401 25.3096 68.3074 24.0869 69.9638ZM20.9729 69.2545C20.1206 70.8718 19.7683 72.7555 20.0559 74.567C20.4429 77.3346 22.3085 79.8282 24.8398 81.0027C26.466 81.7872 28.3287 81.9694 30.098 81.6698C28.2398 80.8717 26.3561 80.0827 24.6832 78.9293C23.5644 78.1252 22.6323 77.0259 22.1504 75.7249C21.5075 74.0384 21.6174 72.1065 22.3703 70.4742C21.9065 70.0647 21.4472 69.6506 20.9729 69.2545ZM35.6739 69.762C36.7144 70.3357 37.7775 70.8642 38.8436 71.3868C39.0846 71.054 39.3571 70.7468 39.6613 70.4727C38.3166 70.3342 36.996 70.0361 35.6739 69.762ZM42.45 70.5917C41.4592 70.5842 40.4699 71.054 39.9037 71.8776C42.1805 72.9242 44.5476 73.7764 46.9719 74.4149C47.13 72.8413 47.5516 71.2618 48.4355 69.9322C46.469 70.3523 44.4602 70.5766 42.45 70.5917ZM36.5368 86.4657C37.2339 86.5455 37.9432 86.7729 38.4416 87.2894C39.5227 88.3224 39.4911 90.2603 38.3693 91.2496C37.6827 91.876 36.6918 92.0251 35.8019 91.867C36.088 93.2222 36.9328 94.3832 37.9356 95.3077C39.1463 96.4205 40.6009 97.2713 42.1609 97.7923C43.1366 97.6026 44.0371 97.068 44.8954 96.5681C46.6045 95.4794 48.2322 93.9239 48.6539 91.864C47.6932 92.0567 46.621 91.8128 45.9434 91.078C44.9105 90.0134 44.9888 88.0814 46.1407 87.1328C46.6873 86.654 47.4266 86.4763 48.1389 86.4748C47.8588 85.6842 47.5802 84.8907 47.3965 84.0715C44.1922 84.3953 40.9457 84.3411 37.77 83.7719C37.4372 84.7025 37.0216 85.6029 36.5368 86.4657Z" fill="#5E6278"/>
<path d="M34.4258 4.61851C34.8309 4.48751 35.242 4.37457 35.6546 4.26013C35.3429 5.85778 34.9845 7.44789 34.6984 9.04855C34.9047 9.97762 35.2209 10.8781 35.4678 11.7981C35.1095 11.9035 34.7496 12.0104 34.3942 12.1249C34.1172 11.3133 33.9199 10.476 33.6714 9.65387C33.6067 9.36627 33.3733 9.17052 33.1836 8.96422C32.3117 8.07731 31.4685 7.1633 30.5936 6.2794C30.4686 6.14086 30.3165 6.01137 30.2578 5.82766C30.6207 5.7087 30.9896 5.61233 31.354 5.49789C32.1897 6.33812 32.9968 7.20696 33.8235 8.05623C34.0193 6.91032 34.2467 5.76893 34.4258 4.61851Z" fill="#5E6278"/>
<path d="M51.5658 5.23434C52.9466 4.94824 54.4855 5.66951 55.0637 6.97202C55.7941 8.62839 55.2399 10.7184 53.8787 11.8824C52.9933 12.6519 51.6667 12.8009 50.6006 12.3402C49.4622 11.8809 48.7123 10.7049 48.6777 9.49121C48.5663 7.67221 49.661 5.60025 51.5658 5.23434ZM51.7028 6.26279C50.6518 6.59407 50.0645 7.68426 49.8838 8.7097C49.7091 9.62974 49.9365 10.7335 50.7707 11.2665C51.5643 11.8177 52.7222 11.6144 53.323 10.8705C54.0759 9.958 54.4644 8.64947 54.082 7.50055C53.7748 6.54588 52.662 5.95712 51.7028 6.26279Z" fill="#5E6278"/>
<path d="M41.9166 6.56994C42.6002 6.28836 43.4043 6.97801 43.2176 7.69778C43.1046 8.41303 42.1274 8.74731 41.6034 8.24287C41.0372 7.79264 41.2239 6.78527 41.9166 6.56994Z" fill="#5E6278"/>
<path d="M22.834 9.20513C24.388 8.39953 25.9404 7.59242 27.4929 6.78381C27.642 7.07744 27.791 7.37107 27.9386 7.6647C27.3333 7.97339 26.734 8.2896 26.1332 8.60582C27.0924 10.4308 28.0275 12.2694 29.0002 14.0869C28.6644 14.2781 28.3241 14.4603 27.9823 14.638C27.0216 12.804 26.0654 10.9669 25.1092 9.12984C24.5039 9.44906 23.8986 9.76829 23.2887 10.0785C23.1366 9.78787 22.9846 9.49574 22.834 9.20513Z" fill="#5E6278"/>
<path d="M56.3926 14.4302C57.6017 12.3582 58.8259 10.2968 60.0441 8.23083C61.19 8.90242 62.3344 9.58002 63.4803 10.2531C63.3132 10.5362 63.1445 10.8193 62.9774 11.1024C62.1628 10.6145 61.3421 10.1387 60.523 9.65682C60.1872 10.223 59.8604 10.7967 59.5111 11.3569C60.2745 11.8327 61.0666 12.2618 61.827 12.7452C61.6598 13.0132 61.4987 13.2843 61.3391 13.5553C60.5666 13.1066 59.7972 12.6533 59.0292 12.1971C58.4766 13.1322 57.9255 14.0688 57.3744 15.0039C57.0491 14.8081 56.7223 14.6154 56.3926 14.4302Z" fill="#5E6278"/>
<path d="M18.8906 11.9894C19.2023 11.7665 19.508 11.5361 19.8182 11.3118C21.2472 13.2317 22.7214 15.1154 24.1654 17.0247C23.8612 17.2566 23.5586 17.4885 23.2574 17.7234C21.7983 15.8141 20.3241 13.9168 18.8906 11.9894Z" fill="#5E6278"/>
<path d="M203.955 13.0614C206.15 12.6112 208.596 13.1187 210.268 14.6621C209.951 15.0927 209.595 15.4933 209.269 15.9179C208.308 15.2207 207.183 14.7133 205.989 14.6335C204.956 14.5552 203.828 14.7193 203.015 15.4075C202.229 16.058 201.958 17.2204 202.315 18.1661C202.529 18.6976 202.964 19.1057 203.434 19.4159C205.006 20.4278 206.868 20.8976 208.392 21.9923C209.395 22.706 210.196 23.7751 210.38 25.0144C210.591 26.4344 210.231 27.9733 209.27 29.0635C208.574 29.8706 207.59 30.384 206.56 30.6159C204.184 31.1535 201.591 30.506 199.713 28.9626C200.028 28.5018 200.345 28.041 200.646 27.5697C201.851 28.3136 203.181 28.952 204.616 29.0454C205.561 29.0785 206.579 28.9295 207.347 28.3317C208.206 27.6646 208.513 26.478 208.34 25.4375C208.178 24.5702 207.517 23.9016 206.808 23.4303C205.108 22.31 203.026 21.8372 201.484 20.4684C199.919 19.1072 199.805 16.5428 200.988 14.903C201.685 13.9273 202.795 13.3099 203.955 13.0614Z" fill="#5E6278"/>
<path d="M269.084 12.9726C270.894 12.7497 272.808 13.1292 274.306 14.1953C276.396 15.6408 277.524 18.1495 277.737 20.6295C277.993 23.4318 277.348 26.4825 275.348 28.5605C273.12 30.9291 269.271 31.4562 266.434 29.9187C264.202 28.7427 262.799 26.3801 262.388 23.9392C261.93 21.1912 262.347 18.1736 264.031 15.8923C265.214 14.2691 267.092 13.1984 269.084 12.9726ZM268.533 14.8473C267.506 15.1153 266.583 15.7357 265.93 16.5684C265.008 17.7188 264.565 19.1809 264.418 20.6295C264.26 22.2377 264.403 23.9061 265.035 25.4059C265.484 26.4855 266.208 27.4688 267.181 28.1299C269.066 29.4504 271.878 29.2803 273.547 27.6766C274.626 26.6602 275.204 25.2222 275.466 23.7872C275.75 22.0992 275.729 20.3269 275.183 18.6931C274.781 17.493 274.055 16.3757 273.016 15.6348C271.742 14.7088 270.043 14.4558 268.533 14.8473Z" fill="#5E6278"/>
<path d="M105.085 13.2286C105.767 13.2271 106.451 13.2361 107.135 13.218C107.175 17.1451 107.127 21.0722 107.159 24.9993C107.163 26.0127 107.391 27.0984 108.133 27.8392C109.168 28.8797 110.756 29.1523 112.163 28.949C113.322 28.7879 114.436 28.0982 114.948 27.0216C115.329 26.2055 115.356 25.2824 115.385 24.397C115.415 20.6717 115.374 16.9464 115.407 13.221C116.082 13.2331 116.755 13.2286 117.431 13.2286C117.431 15.7989 117.43 18.3678 117.431 20.9382C117.404 22.6458 117.505 24.3639 117.282 26.0624C117.133 27.2354 116.668 28.4054 115.781 29.2155C114.509 30.4262 112.681 30.8463 110.967 30.7816C109.127 30.7319 107.201 30.0061 106.088 28.4792C105.26 27.3559 105.108 25.9103 105.094 24.5566C105.075 20.7801 105.09 17.0051 105.085 13.2286Z" fill="#5E6278"/>
<path d="M124.062 13.2286C124.766 13.2286 125.473 13.2271 126.179 13.2316C128.956 17.9447 131.696 22.6819 134.503 27.377C134.515 22.6609 134.471 17.9447 134.464 13.2286C135.098 13.2301 135.735 13.2211 136.372 13.2406C136.346 18.9837 136.382 24.7283 136.352 30.4714C135.632 30.4563 134.912 30.4744 134.194 30.4548C131.448 25.7477 128.686 21.0497 125.908 16.3621C125.915 21.0647 125.956 25.7688 125.948 30.4714C125.319 30.4609 124.69 30.4639 124.062 30.4654C124.06 24.7193 124.06 18.9747 124.062 13.2286Z" fill="#5E6278"/>
<path d="M143.566 30.4759C143.543 24.7253 143.543 18.9731 143.567 13.2225C144.252 13.2376 144.94 13.2301 145.627 13.2316C145.629 18.9762 145.629 24.7223 145.627 30.4668C144.94 30.4668 144.252 30.4593 143.566 30.4759Z" fill="#5E6278"/>
<path d="M150.207 13.2286C150.927 13.2286 151.648 13.2286 152.368 13.2286C154.048 18.3016 155.718 23.3776 157.403 28.4491C159.121 23.3716 160.85 18.2971 162.585 13.2256C163.25 13.2301 163.919 13.2271 164.586 13.2286C162.568 18.9732 160.544 24.7163 158.531 30.4624C157.737 30.4669 156.942 30.4654 156.149 30.4639C154.172 24.7178 152.186 18.9747 150.207 13.2286Z" fill="#5E6278"/>
<path d="M169.277 13.2346C172.398 13.221 175.52 13.2466 178.643 13.2225C178.664 13.7993 178.659 14.3775 178.649 14.9542C176.205 14.9437 173.76 14.9542 171.316 14.9482C171.311 16.8455 171.314 18.7413 171.314 20.637C173.615 20.6446 175.916 20.6205 178.218 20.6491C178.202 21.1957 178.202 21.7423 178.22 22.2889C175.919 22.3461 173.617 22.2994 171.314 22.313C171.308 24.4377 171.323 26.5623 171.308 28.6855C173.826 28.7111 176.344 28.687 178.863 28.6975C178.86 29.2878 178.86 29.8766 178.861 30.4653C175.666 30.4638 172.471 30.4729 169.275 30.4608C169.284 24.7192 169.281 18.9777 169.277 13.2346Z" fill="#5E6278"/>
<path d="M184.34 30.4533C184.374 24.7087 184.322 18.9627 184.367 13.2166C186.251 13.2527 188.136 13.194 190.02 13.2693C191.202 13.331 192.455 13.605 193.337 14.4528C194.763 15.7433 195.142 17.9252 194.525 19.7035C194.006 21.1656 192.548 22.1143 191.056 22.3356C192.087 22.4787 192.796 23.337 193.206 24.2314C194.182 26.2913 195.078 28.3859 196.011 30.4654C195.297 30.4669 194.585 30.4564 193.873 30.4744C193.048 28.7202 192.322 26.9192 191.48 25.171C191.069 24.3474 190.548 23.4348 189.6 23.1653C188.553 22.8882 187.455 22.9906 186.386 22.9665C186.385 25.4662 186.385 27.9658 186.385 30.4639C185.703 30.4624 185.02 30.4729 184.34 30.4533ZM186.386 14.885C186.385 17.0292 186.385 19.175 186.386 21.3192C187.695 21.2996 189.029 21.4081 190.312 21.0813C191.128 20.8765 191.896 20.3811 192.319 19.6372C192.935 18.5847 192.897 17.1828 192.238 16.1589C191.681 15.3367 190.67 14.9633 189.711 14.9136C188.604 14.8518 187.493 14.9 186.386 14.885Z" fill="#5E6278"/>
<path d="M216.158 13.2316C216.849 13.2316 217.541 13.2316 218.233 13.2316C218.235 18.9762 218.235 24.7208 218.233 30.4668C217.541 30.4668 216.849 30.4668 216.158 30.4653C216.158 24.7208 216.158 18.9762 216.158 13.2316Z" fill="#5E6278"/>
<path d="M222.871 13.2331C226.976 13.2301 231.079 13.2316 235.184 13.2316C235.182 13.8038 235.182 14.3775 235.184 14.9497C233.481 14.9482 231.778 14.9527 230.076 14.9482C230.07 20.1206 230.075 25.2945 230.073 30.4669C229.388 30.4684 228.703 30.4563 228.021 30.4804C227.968 25.302 228.028 20.1206 227.991 14.9422C226.285 14.9602 224.577 14.9452 222.871 14.9497C222.871 14.3775 222.871 13.8053 222.871 13.2331Z" fill="#5E6278"/>
<path d="M237.594 13.2301C238.387 13.2316 239.181 13.218 239.976 13.2406C241.358 15.9315 242.792 18.5952 244.185 21.2816C245.627 18.6314 246.945 15.9119 248.333 13.2301C249.081 13.2271 249.831 13.2286 250.583 13.2301C248.795 16.6362 247.006 20.0408 245.219 23.4454C245.096 23.6472 245.103 23.8851 245.105 24.1124C245.112 26.2296 245.106 28.3467 245.109 30.4639C244.423 30.4639 243.736 30.4729 243.052 30.4548C243.055 28.1886 243.088 25.9179 243.036 23.6532C241.263 20.1597 239.389 16.7145 237.594 13.2301Z" fill="#5E6278"/>
<path d="M283.465 13.2316C286.519 13.2316 289.571 13.2316 292.625 13.2316C292.623 13.8038 292.623 14.3775 292.625 14.9497C290.257 14.9512 287.89 14.9497 285.523 14.9497C285.523 16.8455 285.526 18.7398 285.522 20.6355C287.747 20.6476 289.974 20.6205 292.201 20.6476C292.186 21.1987 292.186 21.7498 292.2 22.2994C289.974 22.3326 287.747 22.304 285.523 22.3145C285.525 25.0324 285.523 27.7489 285.523 30.4668C284.837 30.4668 284.15 30.4668 283.465 30.4668C283.465 24.7208 283.465 18.9762 283.465 13.2316Z" fill="#5E6278"/>
<path d="M13.5073 17.6345C13.6985 16.332 14.8866 15.3126 16.1665 15.1425C16.2418 15.4632 16.3035 15.7869 16.3623 16.1107C15.5612 16.2477 14.7315 16.7792 14.5689 17.624C14.4589 18.154 15.0025 18.6449 15.5205 18.5079C16.4857 18.3046 17.3365 17.6481 18.3559 17.6827C19.5771 17.6918 20.5664 18.9928 20.2487 20.1733C19.9129 21.4442 18.6962 22.3311 17.4314 22.5299C17.3546 22.2091 17.2748 21.8884 17.192 21.5692C17.9614 21.3553 18.8453 21.006 19.1284 20.1838C19.3844 19.586 18.8754 18.8211 18.2114 18.8934C17.207 18.9777 16.3638 19.6884 15.3443 19.714C14.2767 19.7592 13.3326 18.6901 13.5073 17.6345Z" fill="#5E6278"/>
<path d="M65.362 15.8276C65.9794 15.4903 66.8196 16.0128 66.7865 16.719C66.8181 17.4659 65.8725 17.9794 65.2642 17.5442C64.6257 17.1722 64.6859 16.1242 65.362 15.8276Z" fill="#5E6278"/>
<path d="M70.8273 20.1221C71.5366 19.9309 72.3151 19.9264 73.0017 20.211C74.4864 20.7982 75.4019 22.6097 74.8599 24.1396C74.3419 25.6137 72.8948 26.6392 71.3875 26.8967C70.2311 27.1045 68.9873 26.6 68.3157 25.6333C67.7209 24.8398 67.5086 23.7571 67.8338 22.8115C68.2795 21.4728 69.4992 20.5031 70.8273 20.1221ZM71.2821 21.1807C70.1723 21.5165 69.0656 22.3206 68.796 23.5056C68.5205 24.6651 69.5384 25.9345 70.7475 25.8336C71.9266 25.7357 73.0951 25.0656 73.6959 24.0327C74.2169 23.1488 73.8931 21.923 73.0409 21.3704C72.5259 21.0286 71.8603 21.0196 71.2821 21.1807Z" fill="#5E6278"/>
<path d="M33.1881 20.5588C33.271 20.5498 33.4381 20.5317 33.5224 20.5227C34.328 21.6129 35.1261 22.7136 35.8654 23.8505C35.489 23.9408 35.108 24.0131 34.7301 24.0975C35.1517 24.8503 35.6802 25.537 36.1561 26.2568C36.8713 25.7373 37.5459 25.159 38.1859 24.5507C37.8953 24.3986 37.5941 24.2676 37.3125 24.1005C37.3441 23.8942 37.5489 23.8038 37.695 23.6879C38.4027 23.2 39.1074 22.7061 39.8076 22.2062C40.0019 22.0646 40.2142 21.9321 40.4656 21.9306C39.922 23.7526 39.2911 25.546 38.7129 27.3575C36.918 26.7461 34.9936 26.698 33.1159 26.6814C31.4188 26.7341 29.6721 26.7808 28.0579 27.3635C27.4511 25.5641 26.8593 23.7602 26.2871 21.9487C26.7554 21.9201 27.0761 22.3161 27.4511 22.5299C28.1633 23.0615 28.993 23.453 29.6179 24.0944C29.3153 24.236 29.0021 24.361 28.728 24.5552C29.2821 25.1846 29.9537 25.6996 30.5726 26.2643C31.077 25.5551 31.6236 24.8624 32.0121 24.0794C31.6387 24.0101 31.2653 23.9484 30.8978 23.852C31.6086 22.7197 32.4337 21.6626 33.1881 20.5588Z" fill="#5E6278"/>
<path d="M49.4125 22.7844C49.9471 22.0269 50.4877 21.274 51.0177 20.5136C51.5221 20.5016 51.6727 21.0632 51.9528 21.381C52.4949 22.2272 53.1951 22.9771 53.6333 23.8851C53.2674 23.9498 52.903 24.0101 52.5401 24.0838C52.9286 24.8548 53.4857 25.5219 53.945 26.2507C54.6768 25.7538 55.3333 25.15 55.9853 24.5552C55.6872 24.3925 55.38 24.2465 55.0728 24.1034C55.377 23.6863 55.8588 23.4635 56.2609 23.1578C56.8406 22.7693 57.3827 22.3236 57.985 21.9697C58.0588 21.9682 58.2033 21.9622 58.2756 21.9592C57.6974 23.7616 57.0951 25.5565 56.5123 27.3559C54.7536 26.7566 52.8683 26.7039 51.0282 26.6798C49.2876 26.7205 47.5062 26.7822 45.8453 27.3574C45.2581 25.5565 44.6603 23.7601 44.082 21.9577C44.6121 21.9276 44.978 22.4019 45.4101 22.6398C46.0652 23.1382 46.8602 23.4755 47.4008 24.1064C47.0921 24.2389 46.7864 24.3805 46.4898 24.5401C47.0891 25.1018 47.6764 25.683 48.3133 26.201L48.4247 26.192C48.9322 25.5445 49.3508 24.8352 49.8281 24.1667C49.4969 23.9679 49.1023 23.9574 48.7319 23.8911C48.8704 23.4725 49.1656 23.1397 49.4125 22.7844Z" fill="#5E6278"/>
<path d="M9.31658 23.1924C9.64936 22.6699 10.1689 22.2046 10.8164 22.179C12.0014 22.0419 13.2979 23.1382 12.9681 24.388C13.5298 24.1094 14.1637 24.2374 14.7615 24.278C15.4482 24.3413 16.1363 24.3895 16.823 24.4602C16.6046 24.8006 16.4074 25.1529 16.2221 25.5128C15.2735 25.4646 14.3279 25.2839 13.3762 25.3216C12.7709 25.3592 12.5405 25.9977 12.283 26.4464C13.1654 26.9147 14.0372 27.4011 14.9151 27.8799C14.7344 28.2127 14.5507 28.5439 14.3595 28.8707C12.2589 27.7158 10.1508 26.5729 8.03516 25.4435C8.45226 24.6876 8.8513 23.9197 9.31658 23.1924ZM10.3706 23.477C9.93848 23.8624 9.71562 24.4166 9.41145 24.8969C10.086 25.2673 10.7636 25.6317 11.4428 25.9946C11.7078 25.4887 12.0526 24.9858 12.0767 24.3955C12.0933 23.5929 11.0272 22.968 10.3706 23.477Z" fill="#5E6278"/>
<path d="M77.4737 27.3108C77.6242 27.7143 77.7598 28.1224 77.8983 28.529C77.287 29.303 76.5627 29.9851 75.992 30.7907C76.9512 30.9924 77.9088 31.2048 78.862 31.4427C78.9734 31.8282 79.0999 32.2106 79.2249 32.5931C77.9073 32.2663 76.5868 31.9501 75.2662 31.6384C74.3371 32.7602 73.3854 33.864 72.4729 35.0009C72.3073 34.5973 72.1703 34.1832 72.0573 33.7646C72.7771 32.962 73.4713 32.1384 74.1639 31.3132C73.1295 31.0497 72.0739 30.866 71.0454 30.5829C70.8151 30.2426 70.7639 29.7953 70.6133 29.4129C72.0483 29.7336 73.4683 30.1281 74.9093 30.4202C75.7345 29.3602 76.6395 28.3633 77.4737 27.3108Z" fill="#5E6278"/>
<path d="M30.3802 28.0622C32.154 27.8213 33.9549 27.8152 35.7348 27.9824C36.5208 28.0803 37.3309 28.1631 38.0567 28.5004C38.2826 28.5681 38.4859 28.8889 38.2088 29.0379C37.733 29.3542 37.1457 29.434 36.5946 29.5409C34.7922 29.8119 32.9536 29.8255 31.1391 29.6643C30.3441 29.5785 29.5324 29.4882 28.7901 29.178C28.5883 29.1102 28.4724 28.925 28.3398 28.7744C28.891 28.264 29.674 28.1887 30.3802 28.0622Z" fill="#5E6278"/>
<path d="M46.4452 28.5319C47.2176 28.1464 48.1 28.0726 48.9448 27.9687C50.8933 27.8076 52.8749 27.8121 54.8038 28.1705C55.3082 28.3015 55.9467 28.3648 56.2147 28.8828C55.6064 29.3812 54.7993 29.473 54.0509 29.592C52.0482 29.8374 50.0094 29.8359 48.0112 29.5483C47.4284 29.4294 46.7825 29.3676 46.2976 28.9897C46.0943 28.8496 46.2825 28.6012 46.4452 28.5319Z" fill="#5E6278"/>
<path d="M5.25977 33.5567C5.65428 32.2286 6.05633 30.902 6.44031 29.5724C6.75953 29.6522 7.07876 29.7365 7.39648 29.8239C7.10587 30.7876 6.81224 31.7498 6.52011 32.712C7.16459 32.8761 7.80305 33.0583 8.44451 33.236C8.70351 32.3611 8.90227 31.4682 9.21548 30.6129C9.51212 30.7062 9.80876 30.7966 10.1069 30.8869C9.86146 31.7558 9.61451 32.6231 9.37057 33.492C10.0964 33.6802 10.8191 33.888 11.5434 34.0852C11.8039 33.1396 12.0825 32.2 12.3385 31.2529C12.6622 31.3342 12.9845 31.4215 13.3082 31.5073C12.9559 32.8309 12.5824 34.147 12.221 35.4676C9.90362 34.8186 7.57868 34.1997 5.25977 33.5567Z" fill="#5E6278"/>
<path d="M28.7539 32.6427C31.4658 32.6427 34.1778 32.6442 36.8897 32.6427C37.9784 32.6623 39.1484 32.6412 40.1136 33.2209C41.2203 33.8759 41.6917 35.2131 41.6977 36.4433C41.7142 41.4154 41.6962 46.3876 41.7067 51.3582C41.7097 51.6714 41.6947 51.9846 41.651 52.2948C41.3438 51.837 41.4447 51.2121 41.0668 50.783C40.4208 49.9141 39.2327 49.8343 38.2404 49.8042C35.0797 49.7952 31.9191 49.7967 28.7599 49.8027C28.7479 44.0837 28.7584 38.3632 28.7539 32.6427ZM29.7989 35.3667C29.8742 35.4495 30.0233 35.6166 30.0971 35.6995C30.1453 36.2521 30.1317 36.8107 30.1106 37.3664C30.1438 37.5983 29.8742 37.6751 29.7538 37.8196C30.4449 37.797 31.2129 37.9431 31.8317 37.5546C32.5485 37.13 32.5816 35.8771 31.7821 35.5218C31.1556 35.2673 30.457 35.3908 29.7989 35.3667ZM33.4535 35.4254C32.5365 35.8019 32.4461 37.2881 33.3496 37.7338C34.1627 38.1991 35.3086 37.5576 35.2469 36.5984C35.3387 35.6693 34.2621 35.0143 33.4535 35.4254ZM35.4743 35.3697C35.5962 35.5142 35.8838 35.588 35.8402 35.8274C35.8432 36.3319 35.81 36.8363 35.7528 37.3378C35.7619 37.5666 35.5405 37.6766 35.408 37.8256C35.7573 37.8286 36.1112 37.8392 36.456 37.7654C36.3612 37.7112 36.1699 37.6028 36.0736 37.5486C36.0178 37.0712 36.0555 36.5894 36.0721 36.1105C36.3732 36.6421 36.5238 37.2414 36.7903 37.7895C36.8355 37.7835 36.9258 37.7729 36.971 37.7684C37.2511 37.1721 37.4137 36.5276 37.7224 35.9449C37.7359 36.481 37.7329 37.0185 37.7254 37.5561C37.6351 37.6208 37.4559 37.7473 37.3655 37.8106C37.8037 37.8256 38.2404 37.8241 38.6786 37.8226C38.6003 37.7383 38.4422 37.5696 38.3624 37.4853C38.3081 36.8905 38.2916 36.2897 38.3097 35.6919C38.3925 35.6091 38.5581 35.445 38.6424 35.3622C38.3172 35.3637 37.9934 35.3652 37.6697 35.3637C37.4785 35.8606 37.2857 36.3575 37.099 36.8559C36.8656 36.362 36.6458 35.8621 36.4289 35.3622C36.1097 35.3637 35.792 35.3652 35.4743 35.3697ZM38.8307 35.3697C39.308 35.6076 39.1544 36.1587 39.1815 36.5879C39.1544 37.0215 39.308 37.5666 38.8382 37.8211C39.2779 37.8226 39.7176 37.8226 40.1573 37.8256C40.079 37.7413 39.9224 37.5742 39.8426 37.4913C39.7974 36.8935 39.8034 36.2897 39.8395 35.6919C39.9193 35.6196 40.0805 35.4736 40.1618 35.3998C39.7191 35.3516 39.2734 35.3546 38.8307 35.3697ZM31.3243 39.9021C31.4583 40.0527 31.7324 40.128 31.7444 40.3584C31.7971 40.9306 31.761 41.5058 31.7309 42.078C31.6465 42.1457 31.4749 42.2798 31.3905 42.3475C31.7459 42.3701 32.1028 42.3686 32.4566 42.3189C31.6977 42.1141 32.0862 41.1926 31.9929 40.6309C32.4913 41.1805 32.9189 41.7904 33.3842 42.3686C33.4625 42.3837 33.6176 42.4138 33.6944 42.4273C33.7863 41.6624 33.6357 40.8779 33.8043 40.125L34.1401 40.0211C33.8043 39.8268 33.4083 39.9112 33.0409 39.9081C33.7155 40.143 33.446 40.914 33.5017 41.4546C33.0544 40.9547 32.6509 40.4186 32.2278 39.9006C31.9266 39.9021 31.6255 39.9006 31.3243 39.9021ZM34.2184 40.0708C34.8539 40.6866 34.8012 41.7738 35.3704 42.4108L35.5375 42.3716C35.9847 41.5675 36.0344 40.5029 36.7888 39.9021C36.447 39.9021 36.1037 39.9021 35.7619 39.9006C35.8432 39.9729 36.0043 40.1174 36.0856 40.1897C35.9651 40.6369 35.801 41.0706 35.6414 41.5058C35.4065 41.0706 35.2499 40.5993 35.0827 40.137C35.1716 40.0813 35.3523 39.9699 35.4411 39.9127C35.0014 39.9021 34.5617 39.9021 34.1236 39.8856C34.1461 39.9307 34.1943 40.0241 34.2184 40.0708ZM37.2315 39.9879C36.8686 40.1957 36.7602 40.768 37.0779 41.0616C37.3324 41.2769 37.6546 41.3913 37.9091 41.6067C38.0838 41.8371 37.9498 42.224 37.6396 42.2286C37.239 42.1939 37.1065 41.7482 36.8069 41.5449C36.834 41.7949 36.8792 42.0418 36.9258 42.2888C37.2978 42.3912 37.7134 42.4936 38.0793 42.3099C38.4843 42.1427 38.6575 41.6007 38.4301 41.2302C38.1892 40.8779 37.6998 40.8267 37.4393 40.5014C37.2872 40.2229 37.6531 39.9217 37.9091 40.0798C38.1004 40.2364 38.2419 40.4442 38.4075 40.6264C38.388 40.393 38.3669 40.1596 38.3443 39.9262C37.9769 39.8675 37.5673 39.7711 37.2315 39.9879ZM31.0171 44.4662C31.109 44.5249 31.2927 44.6423 31.3845 44.7011C31.4086 45.341 31.4056 45.9825 31.389 46.6225C31.2641 46.7038 31.1406 46.7851 31.0171 46.8664C31.4704 46.9056 31.9236 46.901 32.3783 46.8995C32.2744 46.7776 32.1314 46.6842 32.0621 46.5381C32.0154 45.9313 32.0486 45.323 32.0546 44.7161C32.1736 44.6243 32.2925 44.5324 32.4115 44.4376C31.9462 44.433 31.4809 44.4315 31.0171 44.4662ZM32.5199 44.4541C32.6373 44.5309 32.7533 44.6077 32.8722 44.6845C32.8978 45.326 32.9355 45.9735 32.8662 46.6119C32.7774 46.6752 32.5997 46.8001 32.5109 46.8619C33.1538 46.9296 33.7998 46.883 34.4443 46.9086C34.503 46.6601 34.5527 46.4117 34.5949 46.1602C34.3329 46.5065 34.0347 46.8152 33.5574 46.6842C33.5438 46.0789 33.5152 45.4705 33.5559 44.8652C33.5498 44.6484 33.7878 44.5625 33.9097 44.4255C33.446 44.4391 32.9822 44.4346 32.5199 44.4541ZM34.6385 44.4496C34.7575 44.5369 34.8765 44.6258 34.9954 44.7146C35.0029 45.326 35.0346 45.9388 34.9909 46.5502C34.9036 46.6345 34.7274 46.8062 34.64 46.892C35.2845 46.8995 35.929 46.8995 36.575 46.8965C36.6202 46.6526 36.6623 46.4071 36.6985 46.1632C36.4395 46.505 36.1458 46.8077 35.6745 46.6993C35.6549 46.0909 35.6278 45.4811 35.667 44.8742C35.6565 44.6544 35.8944 44.564 36.0178 44.4255C35.5571 44.4391 35.0978 44.4376 34.6385 44.4496ZM36.2542 44.43C36.4063 44.5776 36.6036 44.6996 36.6819 44.9104C36.959 45.5654 37.1924 46.24 37.4483 46.9056C37.5191 46.9161 37.6637 46.9402 37.7344 46.9507C38.0205 46.2686 38.2524 45.5624 38.5656 44.8923C38.6545 44.6905 38.8532 44.5746 39.0083 44.43C38.6515 44.4391 38.2946 44.4376 37.9377 44.4361C38.0311 44.5038 38.2148 44.6363 38.3081 44.7041C38.15 45.1664 37.9949 45.6301 37.8383 46.0924C37.6396 45.6347 37.4664 45.1664 37.2857 44.7011C37.37 44.6348 37.5387 44.5008 37.623 44.4345C37.1653 44.4376 36.709 44.4421 36.2542 44.43Z" fill="#5E6278"/>
<path d="M44.1401 33.4664C45.0059 32.7361 46.197 32.6713 47.2781 32.6472C50.1527 32.6382 53.0272 32.6457 55.9018 32.6442C55.9078 38.3587 55.8913 44.0732 55.9093 49.7861C53.1311 49.8163 50.353 49.7907 47.5733 49.7997C46.5057 49.8148 45.3869 49.7214 44.3735 50.1295C43.7365 50.3809 43.2652 50.9847 43.1749 51.6639C43.0951 51.8476 43.1734 52.1517 42.943 52.2376C42.9053 52.0448 42.8873 51.8521 42.8888 51.6563C42.8978 46.6375 42.8873 41.6187 42.8933 36.5999C42.8873 35.4555 43.2155 34.2117 44.1401 33.4664ZM44.5105 35.3667C44.6385 35.4661 44.7574 35.5745 44.8674 35.6934C44.8885 36.24 44.8433 36.7867 44.7861 37.3302C44.7966 37.5576 44.5798 37.6721 44.4488 37.8241C44.771 37.8226 45.0917 37.8226 45.414 37.8256L45.4215 37.7172C45.3417 37.6736 45.1821 37.5832 45.1023 37.5395C45.0526 37.0622 45.0872 36.5819 45.1098 36.106C45.4019 36.6391 45.5555 37.2309 45.8175 37.7775C45.8627 37.7775 45.9545 37.7744 45.9997 37.7729C46.2783 37.1751 46.4484 36.5307 46.7541 35.9449C46.7662 36.4825 46.7662 37.02 46.7556 37.5576C46.6668 37.6209 46.4906 37.7488 46.4018 37.8121C46.84 37.8241 47.2781 37.8241 47.7163 37.8226C47.6365 37.7383 47.4754 37.5697 47.3956 37.4853C47.3399 36.886 47.3278 36.2822 47.3384 35.6814C47.4272 35.6031 47.6049 35.445 47.6937 35.3667C47.3625 35.3652 47.0327 35.3652 46.7014 35.3637C46.5147 35.847 46.331 36.3319 46.1473 36.8168C45.8732 36.359 45.6775 35.8621 45.4742 35.3712C45.152 35.3637 44.8312 35.3652 44.5105 35.3667ZM47.885 35.3652C47.9603 35.4525 48.1123 35.6272 48.1876 35.716C48.2253 36.3033 48.2268 36.8981 48.1861 37.4868C48.1048 37.5697 47.9407 37.7368 47.8594 37.8211C48.3081 37.8226 48.7568 37.8211 49.2071 37.8241C49.1242 37.7413 48.9586 37.5772 48.8758 37.4944C48.8306 36.8996 48.8336 36.2988 48.8728 35.704C48.9556 35.6182 49.1197 35.4495 49.201 35.3637C48.7628 35.3637 48.3232 35.3637 47.885 35.3652ZM49.2658 35.3742C49.4118 35.4751 49.5474 35.5895 49.6708 35.7175C49.7371 36.2084 49.7115 36.7068 49.6964 37.2007C49.7356 37.4778 49.576 37.6736 49.3305 37.7835C49.6979 37.8467 50.0744 37.8437 50.4373 37.7564C50.3244 37.7157 50.0985 37.6344 49.984 37.5922C49.9283 37.0999 49.9223 36.6029 49.9449 36.1075C50.2927 36.487 50.5999 36.9026 50.9146 37.3122C51.1164 37.5606 51.2926 37.8994 51.663 37.8904C51.6796 37.2007 51.6374 36.5096 51.6916 35.8214C51.672 35.5865 51.934 35.5097 52.0635 35.3652C51.6991 35.3637 51.3362 35.3652 50.9749 35.3727C51.1149 35.4691 51.2519 35.57 51.3874 35.6754C51.4567 36.088 51.4311 36.5111 51.4432 36.9282C51.0005 36.4147 50.5909 35.8726 50.1527 35.3546C49.8561 35.3622 49.5609 35.3667 49.2658 35.3742ZM51.8844 37.8226C52.2262 37.8241 52.568 37.8196 52.9098 37.8091C52.8195 37.7519 52.6388 37.6344 52.5469 37.5757C52.5996 37.4116 52.6523 37.2474 52.7035 37.0833C52.9083 37.0788 53.1131 37.0758 53.3179 37.0712C53.3766 37.2444 53.4323 37.4176 53.491 37.5922C53.4127 37.6465 53.2546 37.7549 53.1748 37.8091C53.616 37.8272 54.0587 37.8241 54.5014 37.8196C54.3508 37.669 54.1506 37.5531 54.0798 37.3423C53.7997 36.6782 53.613 35.9795 53.3224 35.32L53.1432 35.3351C52.6132 36.1015 52.6342 37.2038 51.8844 37.8226ZM46.203 39.8193C46.1955 40.0994 46.1895 40.3795 46.1879 40.6595C46.3566 40.3569 46.5584 40.0723 46.9378 40.0587C46.9559 40.7348 46.9559 41.4124 46.9333 42.0885C46.8339 42.1503 46.6352 42.2753 46.5358 42.3385C47.0342 42.3716 47.5341 42.3716 48.0325 42.3355C47.9271 42.2738 47.7148 42.1533 47.6079 42.0931C47.5853 41.4139 47.5838 40.7348 47.6064 40.0572C47.9783 40.0648 48.1741 40.3674 48.3623 40.643C48.3638 40.378 48.3533 40.1129 48.3322 39.8479C47.626 39.9066 46.9032 39.9669 46.203 39.8193ZM48.5626 39.9112C48.683 40.006 48.805 40.1009 48.9285 40.1943C48.9164 40.8086 48.9661 41.4245 48.9044 42.0373C48.8261 42.1171 48.6695 42.2753 48.5912 42.3551C49.0384 42.3626 49.4856 42.3656 49.9344 42.343C49.847 42.2783 49.6723 42.1458 49.585 42.0795C49.576 41.5013 49.5519 40.9216 49.585 40.3448C49.5594 40.122 49.8094 40.0422 49.9253 39.8991C49.4706 39.9006 49.0158 39.8976 48.5626 39.9112ZM50.8077 40.0196C50.1452 40.3975 49.9765 41.3929 50.4614 41.9771C50.9011 42.5207 51.8 42.5583 52.312 42.0961C52.8481 41.6007 52.8616 40.6324 52.309 40.1446C51.9054 39.7847 51.27 39.7651 50.8077 40.0196ZM45.5886 44.4331C45.7829 44.5897 46.0434 44.7387 45.9606 45.0354C45.8913 45.6618 46.0524 46.3996 45.5947 46.9071C45.9214 46.8995 46.2572 46.9297 46.5749 46.8318C45.8672 46.6737 46.2527 45.7792 46.2105 45.2763C46.5508 45.7958 46.6638 46.4237 46.971 46.9613C47.382 46.356 47.5296 45.6226 47.8338 44.9646C47.7495 45.6 48.1289 46.4403 47.5341 46.8995C47.9633 46.8995 48.3909 46.8965 48.8186 46.8905C48.7403 46.8227 48.5822 46.6902 48.5039 46.624C48.3984 45.9946 48.4421 45.3486 48.4165 44.7116C48.546 44.6198 48.6755 44.5279 48.8065 44.4376C48.4632 44.4376 48.1214 44.4391 47.7796 44.4466C47.5974 44.9405 47.4061 45.4314 47.2239 45.9238C46.974 45.4359 46.7707 44.927 46.5373 44.4315C46.2211 44.4376 45.9049 44.4376 45.5886 44.4331ZM48.9375 44.4361C49.0234 44.5083 49.195 44.6499 49.2823 44.7222C49.2899 45.332 49.323 45.9434 49.2748 46.5532C49.1784 46.636 48.9872 46.8017 48.8908 46.8845C49.5654 46.9041 50.2415 46.9025 50.9176 46.892C50.9583 46.642 50.9959 46.3921 51.0276 46.1436C50.8679 46.3093 50.7294 46.493 50.5698 46.6571C50.3665 46.6842 50.1617 46.6978 49.9584 46.6963C49.9419 46.3605 49.9359 46.0232 49.9359 45.6859C50.2641 45.6783 50.4885 45.8831 50.6571 46.1376C50.6662 45.8063 50.6707 45.4751 50.6647 45.1453C50.4779 45.3712 50.2476 45.5308 49.9434 45.5413C49.9359 45.2402 49.9344 44.9405 49.9313 44.6424C50.35 44.5445 50.621 44.8095 50.8303 45.1332C50.8273 44.9044 50.8243 44.677 50.8228 44.4511C50.1933 44.4315 49.5654 44.4391 48.9375 44.4361ZM51.014 46.895C51.3347 46.898 51.6555 46.898 51.9762 46.8935C51.8738 46.8017 51.7714 46.7128 51.6675 46.6255C51.7187 46.4659 51.7684 46.3093 51.8211 46.1512C52.0289 46.1527 52.2397 46.1542 52.449 46.1557C52.5725 46.4177 52.5891 46.6842 52.3858 46.9116C52.7969 46.8995 53.2094 46.895 53.622 46.8785C53.4489 46.7309 53.2366 46.6029 53.1718 46.3695C52.8978 45.6904 52.6884 44.9857 52.3993 44.3126C51.6675 44.9992 51.806 46.237 51.014 46.895Z" fill="#5E6278"/>
<path d="M22.7476 33.7736C23.1391 33.2059 24.1013 33.1878 24.4642 33.7932C24.7066 34.2991 25.3255 34.2871 25.7848 34.4602C25.7832 34.3247 25.7817 34.0552 25.7802 33.9197C26.1748 33.9182 26.5708 33.9182 26.9668 33.9182C26.9713 39.9609 26.9653 46.0051 26.9698 52.0494C31.3396 52.0449 35.7094 52.0494 40.0792 52.0479C40.2795 52.5583 40.5385 53.123 41.1017 53.3127C41.8681 53.5732 42.7354 53.5732 43.5034 53.3188C44.0756 53.1366 44.3466 52.5659 44.5469 52.0479C48.9303 52.0403 53.3151 52.0614 57.6985 52.0373C57.6834 45.9976 57.6955 39.9579 57.6925 33.9182C58.087 33.9182 58.4815 33.9182 58.876 33.9166C58.8805 40.3554 58.8775 46.7942 58.8775 53.2329C54.3436 53.2359 49.8096 53.2269 45.2757 53.2359C44.5424 54.5324 42.8996 54.8547 41.5338 54.6318C40.6349 54.5309 39.8142 54.0084 39.3459 53.2344C34.827 53.2329 30.3097 53.2254 25.7908 53.239C25.7802 52.8083 25.7817 52.3791 25.7817 51.9485C25.4188 52.0961 25.0575 52.2496 24.7051 52.4198C24.5365 52.9468 24.0471 53.4076 23.4583 53.2977C22.7129 53.2194 22.2702 52.2752 22.6994 51.6564C23.0126 51.1233 23.7203 51.045 24.2368 51.3115C24.7548 51.0962 25.2728 50.8764 25.7848 50.646C25.7817 50.1747 25.7817 49.7049 25.7817 49.2366C25.4309 49.342 25.0816 49.4489 24.7352 49.5648C24.5199 50.0437 24.0335 50.4502 23.4779 50.3222C22.7009 50.2183 22.3094 49.1793 22.8274 48.5891C23.1903 48.0982 23.904 48.0907 24.3814 48.4174C24.8497 48.2834 25.3134 48.1403 25.7802 48.0003C25.7832 47.5139 25.7817 47.0276 25.7833 46.5412C25.4264 46.5999 25.0695 46.6586 24.7141 46.7219C24.4491 47.1254 23.9989 47.4778 23.4854 47.3513C22.7069 47.2384 22.332 46.1934 22.856 45.6091C23.2595 45.0821 24.0456 45.1333 24.5109 45.5459C24.9355 45.4796 25.3586 45.4058 25.7817 45.332C25.7817 44.8366 25.7817 44.3397 25.7833 43.8443C25.4098 43.8564 25.0379 43.8699 24.666 43.888C24.2699 44.4346 23.4071 44.6047 22.9298 44.0687C22.341 43.507 22.6873 42.3988 23.4899 42.2708C23.9402 42.1428 24.3121 42.456 24.6614 42.6849C25.0349 42.7014 25.4083 42.6683 25.7817 42.6563C25.7817 42.1187 25.7817 41.5826 25.7848 41.0466C25.3872 41.024 24.9897 41.0059 24.5922 40.9954C24.294 41.277 23.9025 41.5269 23.4719 41.4125C22.7732 41.295 22.3741 40.4111 22.7596 39.8133C23.0698 39.2321 23.9432 39.092 24.4039 39.5754C24.7533 39.9639 25.321 39.7892 25.7817 39.854C25.7817 39.3586 25.7817 38.8647 25.7833 38.3723C25.3466 38.291 24.9129 38.2082 24.4747 38.1419C24.1495 38.3753 23.7399 38.568 23.3378 38.4129C22.6828 38.2262 22.3726 37.3619 22.7641 36.8048C23.1075 36.2265 24.029 36.1271 24.4506 36.6692C24.7382 37.127 25.3225 37.0502 25.7833 37.1601C25.7817 36.6737 25.7817 36.1874 25.7802 35.6995C25.3104 35.5685 24.8527 35.3953 24.3768 35.2899C24.0109 35.3697 23.642 35.6092 23.2595 35.439C22.588 35.2327 22.3049 34.3217 22.7476 33.7736Z" fill="#5E6278"/>
<path d="M30.7724 35.5474C31.7617 35.4541 31.9213 36.8499 31.4093 37.4417C31.2738 37.6164 30.8432 37.7504 30.7935 37.4432C30.7272 36.8138 30.7739 36.1784 30.7724 35.5474Z" fill="#5E6278"/>
<path d="M33.7531 35.5609C34.1341 35.3441 34.4383 35.8184 34.4849 36.1452C34.5542 36.6225 34.634 37.2339 34.2711 37.6133C33.8751 37.8678 33.5258 37.389 33.4715 37.0366C33.3857 36.5517 33.3255 35.9058 33.7531 35.5609Z" fill="#5E6278"/>
<path d="M52.752 36.8409C52.8393 36.6075 52.9296 36.3771 53.023 36.1467C53.0983 36.3861 53.1751 36.6271 53.2519 36.868C53.0847 36.859 52.9176 36.8499 52.752 36.8409Z" fill="#5E6278"/>
<path d="M72.8164 37.5079C75.2106 37.3212 77.6018 37.0998 79.999 36.9297C80.0773 38.2518 80.2098 39.5708 80.3092 40.8914C79.981 40.9185 79.6542 40.9441 79.3274 40.9712C79.2507 40.0271 79.1708 39.083 79.1001 38.1373C78.4435 38.184 77.7885 38.2518 77.1305 38.2774C77.1636 39.1763 77.2675 40.0708 77.3308 40.9667C77.0085 40.9908 76.6878 41.0179 76.3686 41.0405C76.3023 40.1506 76.2255 39.2622 76.1532 38.3737C75.0706 38.4716 73.9879 38.5544 72.9037 38.6342C72.8751 38.2578 72.8465 37.8829 72.8164 37.5079Z" fill="#5E6278"/>
<path d="M4.54561 37.0592C6.91573 38.0063 9.27681 38.9776 11.6439 39.9338C11.6304 40.3298 11.6138 40.7258 11.5957 41.1233C9.16839 41.8551 6.73805 42.5779 4.30619 43.2962C4.3077 42.9017 4.3092 42.5072 4.30469 42.1141C6.25318 41.5525 8.21071 41.024 10.1592 40.4638C8.31461 39.6431 6.39322 38.9987 4.51851 38.2443C4.52754 37.8497 4.53658 37.4537 4.54561 37.0592Z" fill="#5E6278"/>
<path d="M51.2317 40.0889C51.4591 39.9594 51.7211 40.119 51.8265 40.3298C52.0448 40.7529 52.0403 41.2574 51.9665 41.7181C51.9364 41.9711 51.7647 42.2391 51.4786 42.2301C51.057 42.1307 50.932 41.6504 50.8944 41.2769C50.8688 40.8689 50.8688 40.3569 51.2317 40.0889Z" fill="#5E6278"/>
<path d="M74.8897 44.0567C76.6439 43.6004 78.8348 44.2494 79.663 45.96C80.2894 47.2941 79.8799 49.0604 78.6556 49.9112C77.0324 50.9984 74.6412 50.6536 73.2965 49.2682C72.4563 48.3723 72.2952 46.9734 72.7605 45.8606C73.1324 44.9662 73.9561 44.2916 74.8897 44.0567ZM75.3625 45.1348C74.3792 45.2628 73.5073 46.1031 73.5224 47.1255C73.4456 48.0832 74.2602 48.8285 75.1005 49.1161C76.0401 49.461 77.1709 49.5348 78.0488 48.9881C78.9884 48.419 79.258 46.99 78.5427 46.1407C77.7868 45.2357 76.4843 44.9737 75.3625 45.1348Z" fill="#5E6278"/>
<path d="M51.8711 45.9404C51.9539 45.692 52.0413 45.4465 52.1286 45.1996C52.2069 45.4405 52.2867 45.6814 52.3695 45.9224C52.2445 45.9269 51.9961 45.9359 51.8711 45.9404Z" fill="#5E6278"/>
<path d="M118.736 45.7431C124.026 45.192 129.578 46.7294 133.616 50.2454C135.933 52.2346 137.73 54.826 138.782 57.6946C140.764 63.1169 140.172 69.4428 137.143 74.3682C135.018 77.8556 131.675 80.557 127.85 81.9754C121.799 84.2281 114.622 83.43 109.346 79.6505C105.744 77.1057 103.142 73.1982 102.186 68.8931C100.928 63.3052 102.18 57.1239 105.806 52.6426C108.935 48.699 113.741 46.2189 118.736 45.7431ZM119.18 47.5576C117.18 47.7985 115.244 48.5725 113.657 49.8163C111.665 51.3612 110.242 53.5386 109.319 55.862C108.054 59.0603 107.638 62.5477 107.817 65.9689C107.968 68.845 108.545 71.7361 109.814 74.3381C110.883 76.5411 112.511 78.5166 114.633 79.774C116.948 81.1729 119.754 81.6276 122.421 81.3099C124.499 81.0675 126.516 80.2528 128.141 78.9277C130.105 77.3482 131.496 75.1542 132.393 72.8202C133.666 69.4985 134.038 65.8816 133.788 62.3505C133.578 59.4563 132.922 56.5532 131.547 53.9813C130.395 51.8265 128.673 49.9307 126.489 48.7954C124.265 47.6133 121.665 47.2594 119.18 47.5576Z" fill="#5E6278"/>
<path d="M235.292 45.7582C240.695 45.1573 246.389 46.746 250.472 50.39C252.662 52.3159 254.368 54.7809 255.404 57.5063C257.562 63.2058 256.842 69.9442 253.425 75.0066C250.963 78.6868 247.114 81.3806 242.846 82.5205C236.938 84.1257 230.253 82.9858 225.405 79.1807C221.621 76.2625 219.11 71.7842 218.554 67.041C217.866 61.5946 219.498 55.8183 223.254 51.7617C226.336 48.3526 230.733 46.228 235.292 45.7582ZM235.883 47.5561C234.199 47.7609 232.556 48.33 231.135 49.2591C229.06 50.5917 227.505 52.6155 226.463 54.829C225.118 57.69 224.534 60.8642 224.478 64.0114C224.436 67.2804 224.883 70.6037 226.181 73.6243C227.176 75.9463 228.741 78.0754 230.862 79.4818C232.88 80.8401 235.338 81.4574 237.757 81.4032C240.084 81.3761 242.424 80.688 244.32 79.3177C246.464 77.7893 247.995 75.5307 248.974 73.1108C250.323 69.759 250.73 66.0818 250.493 62.492C250.296 59.5467 249.638 56.5878 248.235 53.9722C247.098 51.8476 245.408 49.9789 243.267 48.839C241.027 47.6268 238.394 47.2549 235.883 47.5561Z" fill="#5E6278"/>
<path d="M4.73047 46.8212C7.1051 46.4854 9.47522 46.1165 11.8483 45.7777C11.9025 46.1542 11.9568 46.5306 12.011 46.9071C9.64085 47.2639 7.27074 47.6208 4.89761 47.9596C4.8419 47.5801 4.78618 47.1992 4.73047 46.8212Z" fill="#5E6278"/>
<path d="M141.652 46.2355C146.978 46.237 152.304 46.234 157.631 46.237C157.628 46.6782 157.628 47.1194 157.627 47.5606C156.481 47.797 155.335 48.0365 154.187 48.2623C153.898 48.3361 153.555 48.3813 153.374 48.6463C153.303 48.9896 153.55 49.2772 153.721 49.5468C156.479 53.4814 159.221 57.4266 161.983 61.3597C162.087 61.6368 162.338 61.4862 162.432 61.2934C165.264 57.3347 168.104 53.382 170.93 49.4203C171.17 49.1538 171.298 48.6644 170.849 48.5364C169.641 48.1178 168.373 47.8844 167.137 47.5591C167.134 47.1179 167.134 46.6767 167.134 46.2355C171.415 46.234 175.696 46.2355 179.979 46.2355C179.977 46.6782 179.977 47.1209 179.974 47.5651C178.538 47.9627 177.053 48.1991 175.652 48.7171C174.43 49.1703 173.665 50.2665 172.9 51.2528C169.73 55.2447 166.559 59.235 163.394 63.2299C167.167 68.193 170.932 73.1621 174.702 78.1282C175.311 79.0121 176.053 79.8629 177.09 80.2393C178.327 80.691 179.626 80.9365 180.888 81.3054C180.888 81.7421 180.888 82.1803 180.896 82.6184C175.568 82.6365 170.239 82.62 164.913 82.626C164.912 82.1878 164.912 81.7496 164.909 81.3129C166.25 80.9982 167.628 80.8235 168.95 80.4335C169.421 80.28 169.175 79.7469 168.961 79.4759C166.344 75.7761 163.715 72.0854 161.091 68.3902C160.646 67.7819 160.242 67.1419 159.754 66.5667C156.934 70.3387 154.222 74.1966 151.444 78.0017C151.031 78.6146 150.525 79.1687 150.188 79.8267C150.045 80.2182 150.546 80.3643 150.822 80.4591C151.941 80.7633 153.075 81.0057 154.195 81.3069C154.196 81.7481 154.196 82.1908 154.178 82.632C149.903 82.62 145.63 82.6245 141.357 82.629C141.351 82.1878 141.351 81.7466 141.354 81.3054C142.563 81.0088 143.773 80.7181 144.975 80.3914C145.936 80.1294 146.83 79.6008 147.464 78.8239C151.164 74.2101 154.832 69.5678 158.539 64.96C155.145 60.408 151.707 55.8892 148.295 51.3492C147.538 50.3689 146.866 49.2125 145.666 48.7171C144.374 48.1946 142.992 47.9401 141.655 47.5591C141.65 47.1179 141.65 46.6767 141.652 46.2355Z" fill="#5E6278"/>
<path d="M185.84 46.2385C195.009 46.231 204.177 46.237 213.348 46.2355C213.346 49.2712 213.346 52.3053 213.348 55.3395C212.839 55.341 212.333 55.341 211.827 55.3395C211.25 53.4949 210.669 51.6518 210.091 49.8087C209.91 49.2471 209.673 48.6538 209.177 48.2984C208.731 47.9807 208.16 47.9566 207.633 47.9596C203.906 47.9717 200.178 47.9476 196.451 47.9717C196.466 53.1892 196.453 58.4053 196.457 63.6213C199.08 63.6229 201.703 63.6213 204.328 63.6229C205.087 63.6078 205.924 63.7162 206.6 63.2856C207.187 62.9121 207.457 62.2315 207.644 61.5915C207.927 60.6188 208.207 59.6446 208.494 58.6718C208.994 58.6748 209.496 58.6748 209.999 58.6643C210.029 62.7088 210.002 66.7534 210.012 70.7979C209.506 70.7995 209.002 70.7995 208.499 70.804C208.183 69.5948 207.891 68.3796 207.582 67.169C207.448 66.6405 207.218 66.1014 206.764 65.7701C206.287 65.4012 205.661 65.3425 205.079 65.3395C202.205 65.3379 199.332 65.3395 196.457 65.3395C196.46 69.8071 196.451 74.2748 196.462 78.7425C196.411 79.4322 196.838 80.1248 197.532 80.2814C199.053 80.6518 200.592 80.9515 202.117 81.3054C202.117 81.739 202.119 82.1742 202.134 82.6109C196.704 82.6455 191.273 82.6154 185.843 82.6259C185.841 82.1847 185.841 81.745 185.841 81.3069C186.986 81.0358 188.127 80.7557 189.27 80.4802C189.799 80.3356 190.384 80.2091 190.771 79.7875C191.091 79.4291 191.098 78.9172 191.104 78.4624C191.098 69.0286 191.109 59.5934 191.1 50.1581C191.16 49.4669 190.725 48.8089 190.055 48.6222C188.669 48.1975 187.243 47.916 185.841 47.5531C185.841 47.1149 185.841 46.6767 185.84 46.2385Z" fill="#5E6278"/>
<path d="M260.771 46.2355C265.497 46.2355 270.226 46.2355 274.952 46.2355C277.827 46.237 280.766 46.1919 283.549 47.0216C286.301 47.8196 288.619 49.9368 289.697 52.587C290.701 54.9646 290.631 57.7925 289.388 60.0692C288.125 62.4499 285.798 64.1032 283.303 65.0007C282.678 65.2492 282.005 65.3515 281.396 65.6346C282.689 66.3258 283.568 67.5274 284.473 68.6417C287.13 72.0237 289.689 75.4795 292.29 78.9052C292.886 79.6957 293.758 80.2754 294.732 80.4772C295.987 80.7437 297.236 81.0298 298.489 81.3039C298.488 81.7406 298.489 82.1788 298.498 82.6169C295.514 82.6305 292.529 82.6335 289.546 82.6154C288.569 82.6124 287.892 81.8129 287.364 81.0916C284.538 77.1434 281.716 73.1937 278.894 69.2425C278.045 68.1026 277.106 66.8197 275.631 66.5005C274.237 66.2234 272.805 66.4071 271.396 66.3484C271.385 70.4893 271.387 74.6302 271.394 78.7712C271.349 79.4683 271.804 80.1474 272.502 80.292C274.013 80.6549 275.538 80.9576 277.053 81.3054C277.051 81.7466 277.051 82.1878 277.048 82.629C271.626 82.6245 266.204 82.6215 260.781 82.6305C260.768 82.1878 260.768 81.7466 260.772 81.3054C262.177 80.944 263.609 80.676 264.994 80.2393C265.639 80.0556 266.068 79.4292 266.024 78.7621C266.035 69.226 266.03 59.6868 266.027 50.1506C266.077 49.4685 265.662 48.8089 264.991 48.6237C263.605 48.2006 262.177 47.916 260.772 47.5561C260.769 47.1149 260.769 46.6752 260.771 46.2355ZM271.39 47.9627C271.397 53.5236 271.373 59.0845 271.402 64.6453C272.984 64.6197 274.567 64.6514 276.149 64.6288C277.72 64.6032 279.33 64.3577 280.73 63.6094C281.816 63.0356 282.727 62.1352 283.293 61.042C284.086 59.5527 284.326 57.8362 284.333 56.1662C284.342 54.3563 283.848 52.5087 282.749 51.0526C281.483 49.3525 279.461 48.2955 277.366 48.0801C275.38 47.8723 273.38 47.9958 271.39 47.9627Z" fill="#5E6278"/>
<path d="M301.421 46.2355C306.045 46.2355 310.671 46.2355 315.297 46.2355C318.724 46.24 322.195 46.1452 325.565 46.889C328.337 47.4582 330.984 48.6869 333.137 50.5346C336.807 53.6305 338.853 58.3496 339.182 63.0868C339.49 67.6795 338.539 72.5417 335.672 76.2399C333.996 78.4067 331.699 80.0586 329.167 81.081C326.479 82.1275 323.576 82.4513 320.713 82.5838C314.286 82.6802 307.857 82.5928 301.43 82.632C301.416 82.1878 301.415 81.7466 301.422 81.3039C302.787 80.9651 304.166 80.6699 305.52 80.2845C306.211 80.1188 306.732 79.4864 306.675 78.7621C306.688 69.3223 306.675 59.8825 306.682 50.4412C306.679 49.9624 306.675 49.4158 306.324 49.0468C305.955 48.6704 305.423 48.5409 304.934 48.4099C303.761 48.1313 302.594 47.8347 301.421 47.5591C301.418 47.1179 301.418 46.6767 301.421 46.2355ZM312.041 47.9612C312.041 58.3797 312.043 68.7983 312.041 79.2169C312.056 79.6611 312.028 80.164 312.315 80.5374C312.642 80.9109 313.186 80.8898 313.643 80.9094C315.45 80.9018 317.257 80.9229 319.066 80.8943C321.373 80.828 323.731 80.6067 325.881 79.7047C328.102 78.7847 329.856 76.9627 330.999 74.8772C332.36 72.3791 332.93 69.5286 333.112 66.7113C333.279 63.8126 333.11 60.8703 332.374 58.0545C331.736 55.6407 330.615 53.3052 328.864 51.5013C327.367 49.9398 325.401 48.839 323.271 48.4385C319.573 47.7097 315.783 48.041 312.041 47.9612Z" fill="#5E6278"/>
<path d="M5.75 52.2271C8.01923 51.4501 10.2779 50.643 12.5426 49.854C12.6721 50.1943 12.7971 50.5376 12.9206 50.8825C11.6045 52.4711 10.3171 54.0838 8.98896 55.6618C10.6378 54.9903 12.2972 54.3307 13.9611 53.6908C14.0725 54.025 14.1915 54.3548 14.3119 54.6861C12.0864 55.564 9.83822 56.3846 7.61718 57.276C7.4666 56.9327 7.3356 56.5819 7.21965 56.2265C8.52668 54.6575 9.81564 53.0719 11.1166 51.4968C9.44371 52.0615 7.78432 52.6668 6.1129 53.236C5.99093 52.9002 5.86896 52.5629 5.75 52.2271Z" fill="#5E6278"/>
<path d="M71.3609 52.1788C73.5443 53.1501 75.7201 54.1409 77.899 55.1242C77.4443 56.0879 77.1356 57.1404 76.4791 57.9942C75.6328 59.0362 73.7656 58.6643 73.2386 57.4792C73.1181 57.2112 73.1121 56.9145 73.085 56.6284C71.8608 57.0004 70.5553 56.767 69.2949 56.8362C69.453 56.4733 69.6126 56.112 69.7602 55.7461C70.6998 55.6738 71.647 55.7867 72.5836 55.6738C73.21 55.603 73.4057 54.9194 73.6196 54.43C72.707 54.0355 71.8096 53.6123 70.9016 53.2118C71.0552 52.8685 71.2073 52.5237 71.3609 52.1788ZM74.0005 56.4733C74.0487 57.2729 75.1344 57.7804 75.7593 57.2684C76.1658 56.8618 76.327 56.2881 76.583 55.7867C75.9008 55.4389 75.1916 55.1513 74.4974 54.832C74.2851 55.3591 73.9689 55.8846 74.0005 56.4733Z" fill="#5E6278"/>
<path d="M40.9298 58.1297C41.3424 57.5816 41.6902 56.9823 42.1405 56.4643C42.5244 56.3454 42.66 56.758 42.8527 56.9929C43.458 57.8948 44.1371 58.7471 44.7124 59.6671C44.5392 60.0195 43.9564 59.8599 43.6297 60.0436C44.1191 60.7604 44.5573 61.5163 45.1234 62.1773C45.78 61.6156 46.4546 61.0751 47.093 60.4938C46.8054 60.3026 46.4892 60.1595 46.1775 60.015C46.7858 59.363 47.6125 58.9655 48.3082 58.4158C48.644 58.2261 48.9271 57.8316 49.3442 57.8647C48.8744 59.6882 48.1727 61.453 47.6396 63.2615C45.917 62.7134 44.0935 62.617 42.3001 62.5974C40.4991 62.617 38.6711 62.7104 36.944 63.2615C36.4109 61.5735 35.8432 59.8945 35.2966 58.211C35.1837 58.0484 35.2725 57.6961 35.512 57.8888C36.5344 58.5604 37.5644 59.2275 38.5446 59.9608C38.2329 60.1415 37.9152 60.3101 37.6065 60.4953C38.2209 61.0645 38.8458 61.6217 39.4677 62.1818C40.0128 61.5057 40.472 60.7664 40.9464 60.0436C40.5835 59.9261 40.2055 59.8614 39.8306 59.8027C40.1016 59.1868 40.5624 58.6869 40.9298 58.1297Z" fill="#5E6278"/>
<path d="M13.5086 58.5499C14.1561 58.1178 14.9647 57.776 15.7417 58.0666C16.9704 58.5183 17.8137 59.8555 17.7233 61.158C17.6706 61.9244 17.0502 62.471 16.4735 62.8971C15.2162 63.8036 13.9558 64.7041 12.6864 65.5925C12.4726 65.2748 12.2558 64.9601 12.0374 64.6469C13.2195 63.8142 14.3925 62.9694 15.573 62.1337C15.9856 61.819 16.5066 61.5194 16.6331 60.9758C16.7686 60.0617 16.0052 59.0333 15.0385 59.0785C14.6696 59.1191 14.3579 59.3405 14.0522 59.5317C12.7903 60.39 11.527 61.2468 10.2636 62.1006C10.0483 61.7919 9.83296 61.4817 9.61914 61.173C10.9171 60.3027 12.2016 59.4082 13.5086 58.5499Z" fill="#5E6278"/>
<path d="M66.5087 60.8297C67.0192 60.1069 67.5869 59.4278 68.1395 58.7382C70.0082 60.2364 71.8844 61.7272 73.7546 63.2254C72.9776 64.15 72.312 65.1935 71.3468 65.9373C70.4162 66.6707 69.0701 66.6631 68.0401 66.1451C66.9318 65.585 66.0013 64.5339 65.8341 63.2736C65.6986 62.4033 66.0163 61.5344 66.5087 60.8297ZM67.0237 61.9078C66.6638 62.6562 66.8912 63.5657 67.4182 64.1756C68.0762 64.9571 69.0881 65.6121 70.1527 65.3742C71.133 65.1558 71.6691 64.2253 72.291 63.5266C70.9312 62.4304 69.576 61.3266 68.1937 60.262C67.7299 60.7499 67.3188 61.301 67.0237 61.9078Z" fill="#5E6278"/>
<path d="M40.0612 63.8864C41.966 63.7268 43.8994 63.7343 45.7862 64.0641C46.2605 64.171 46.78 64.2448 47.1685 64.5595C47.3989 64.7372 47.1384 64.9841 46.9577 65.0579C46.1626 65.4193 45.2772 65.4991 44.4189 65.5925C42.5352 65.7446 40.6243 65.731 38.7587 65.4028C38.2783 65.2898 37.7423 65.2145 37.3643 64.8697C37.2167 64.6212 37.5104 64.4601 37.6971 64.3758C38.4455 64.0656 39.2616 63.9753 40.0612 63.8864Z" fill="#5E6278"/>
<path d="M37.4052 76.4568C38.0015 76.0893 38.8538 76.5561 38.8749 77.2518C38.9547 77.9806 38.0889 78.5619 37.4474 78.202C36.7487 77.8948 36.7231 76.7971 37.4052 76.4568Z" fill="#5E6278"/>
<path d="M47.4752 78.0845C48.1333 77.711 49.0202 78.3254 48.9073 79.0707C48.8591 79.7995 47.9089 80.2197 47.3397 79.7589C46.7495 79.3659 46.8323 78.3766 47.4752 78.0845Z" fill="#5E6278"/>
</g>
<defs>
<clipPath id="clip0_695_6786">
<rect width="338.953" height="100" fill="white" transform="translate(0.740234)"/>
</clipPath>
</defs>
</svg>
